<?xml version="1.0" standalone="no"?>
<!DOCTYPE svg PUBLIC "-//W3C//DTD SVG 20010904//EN"
 "http://www.w3.org/TR/2001/REC-SVG-20010904/DTD/svg10.dtd">
<svg version="1.0" xmlns="http://www.w3.org/2000/svg"
 width="512.000000pt" height="512.000000pt" viewBox="0 0 512.000000 512.000000"
 preserveAspectRatio="xMidYMid meet">
<metadata>
Created by potrace 1.11, written by Peter Selinger 2001-2013
</metadata>
<g transform="translate(0.000000,512.000000) scale(0.100000,-0.100000)"
fill="#000000" stroke="none">
<path d="M2287 4074 c-1 -1 -51 -5 -112 -8 -60 -4 -119 -9 -130 -11 -11 -2
-42 -7 -70 -10 -146 -17 -391 -77 -530 -130 -38 -14 -78 -29 -87 -32 -10 -3
-18 -9 -18 -12 0 -4 -6 -8 -12 -8 -20 0 -148 -65 -148 -75 0 -4 -4 -7 -9 -5
-12 3 -142 -84 -148 -100 -3 -7 -9 -11 -13 -8 -14 9 -171 -167 -224 -250 -73
-114 -153 -286 -141 -305 3 -5 1 -11 -4 -14 -4 -3 -12 -20 -16 -38 -4 -18 -9
-35 -9 -38 -1 -3 -6 -27 -11 -55 -4 -27 -10 -57 -11 -65 -24 -116 -23 -522 1
-645 2 -11 7 -41 10 -67 3 -26 10 -69 15 -95 6 -26 12 -61 15 -78 7 -48 15
-83 25 -109 5 -13 7 -26 4 -28 -2 -3 7 -15 21 -28 23 -22 34 -23 152 -25 l128
-1 75 50 c41 28 78 54 81 59 3 5 8 7 10 5 8 -6 139 67 139 78 0 5 -14 50 -30
100 -37 107 -96 332 -110 418 -5 33 -12 70 -14 81 -18 91 -28 385 -15 440 4
17 10 50 13 75 4 25 13 70 22 100 8 30 16 62 17 70 1 8 4 17 7 20 11 11 85
166 82 173 -1 5 2 6 7 3 5 -4 12 2 16 13 7 23 124 145 186 194 25 19 77 52
115 73 38 21 71 40 74 43 3 3 10 7 15 8 6 1 44 14 85 29 124 45 143 46 181 12
28 -26 31 -33 26 -71 -6 -40 -36 -76 -65 -77 -21 0 -197 -72 -204 -84 -4 -6
-8 -7 -8 -3 0 9 -60 -30 -71 -46 -3 -5 -8 -7 -10 -5 -9 7 -87 -59 -135 -113
-87 -99 -147 -233 -170 -379 -3 -19 -7 -46 -10 -60 -5 -30 -5 -233 0 -275 3
-17 7 -50 10 -75 3 -25 13 -83 21 -130 9 -47 19 -100 22 -117 3 -18 9 -33 12
-33 4 0 8 -14 9 -31 1 -17 7 -39 12 -49 6 -10 10 -28 10 -39 0 -12 5 -21 11
-21 5 0 8 -4 5 -9 -3 -4 7 -46 22 -91 24 -72 30 -81 43 -69 8 8 21 15 29 17 8
1 24 7 35 12 47 20 343 140 378 151 20 7 37 17 37 22 0 4 4 6 8 3 6 -4 157 47
242 81 8 3 21 7 28 9 8 1 21 6 30 10 25 11 24 11 60 19 17 4 32 12 32 17 0 5
4 7 8 4 4 -2 55 11 112 30 58 19 139 44 180 55 41 12 80 25 86 30 6 5 13 6 16
4 3 -3 25 1 49 9 49 16 275 75 317 82 15 3 41 9 57 14 27 8 141 33 205 44 14
3 35 7 46 10 12 2 39 7 60 11 22 3 53 8 69 11 17 3 44 7 60 9 60 6 115 18 115
24 0 3 -13 47 -29 96 -16 50 -48 153 -71 230 -23 77 -45 149 -49 160 -5 11
-32 97 -61 190 -28 94 -58 177 -66 186 -8 8 -14 21 -14 27 0 11 -73 106 -108
140 -66 64 -157 112 -312 162 -142 47 -303 81 -449 96 -54 5 -259 12 -264 8z"/>
<path d="M3798 2605 c-2 -1 -32 -6 -68 -9 -54 -5 -156 -21 -340 -51 -14 -3
-43 -9 -65 -14 -22 -5 -51 -12 -65 -14 -14 -3 -45 -10 -70 -16 -25 -5 -76 -17
-115 -26 -38 -9 -77 -19 -85 -22 -8 -3 -23 -8 -33 -10 -32 -6 -272 -75 -282
-81 -5 -3 -16 -7 -25 -7 -28 -3 -165 -49 -168 -57 -2 -4 -7 -6 -12 -3 -8 5
-161 -44 -170 -54 -3 -3 -9 -6 -15 -6 -22 -1 -512 -181 -530 -195 -5 -5 -13
-9 -18 -9 -4 0 -28 -9 -53 -21 -26 -11 -49 -20 -51 -20 -2 0 -28 -11 -56 -24
-29 -12 -81 -36 -117 -51 -36 -16 -71 -35 -78 -44 -6 -8 -12 -12 -12 -7 0 4
-41 -14 -90 -40 l-91 -46 31 -29 c16 -16 35 -29 40 -29 6 0 9 -4 6 -8 -6 -10
29 -42 45 -42 5 0 7 -4 4 -10 -3 -5 -3 -10 2 -10 4 0 24 -15 44 -33 44 -39 60
-52 119 -97 25 -19 47 -38 50 -41 10 -11 186 -125 235 -151 155 -85 294 -138
429 -163 87 -16 259 -22 314 -11 15 3 43 8 62 10 62 9 198 44 215 56 6 4 28
13 50 20 63 21 225 100 225 110 0 6 3 9 8 8 12 -4 72 24 72 33 0 5 4 9 9 9 19
0 412 256 419 272 2 4 9 8 16 8 7 0 21 8 32 18 11 9 31 23 45 31 13 8 63 38
111 67 47 29 126 72 175 96 48 24 90 46 91 51 2 4 8 5 13 2 5 -3 19 0 31 7 13
6 28 13 33 14 6 1 42 10 80 19 39 10 99 18 135 20 59 1 67 -1 92 -26 35 -34
37 -78 5 -114 -18 -21 -33 -28 -73 -30 -100 -8 -254 -48 -254 -67 0 -5 -4 -7
-8 -4 -5 3 -46 -15 -93 -40 -46 -24 -99 -52 -116 -61 -29 -15 -45 -43 -25 -43
4 0 26 -17 48 -38 118 -105 315 -239 335 -227 5 4 9 2 9 -3 0 -16 86 -34 139
-29 59 6 122 35 169 77 37 35 104 139 96 152 -3 4 -1 8 4 8 16 0 45 122 47
195 3 173 -80 332 -208 400 -20 11 -37 23 -37 27 0 5 -4 8 -9 8 -5 0 -68 41
-139 90 -72 50 -135 90 -140 90 -6 0 -12 4 -14 8 -1 5 -73 56 -158 113 -137
93 -191 124 -202 114z"/>
</g>
</svg>
