<svg version="1.1" id="Warstwa_1" xmlns="http://www.w3.org/2000/svg" xmlns:xlink="http://www.w3.org/1999/xlink" x="0px" y="0px" width="60px" height="60px" viewBox="0 0 60 60" style="enable-background:new 0 0 60 60;" xml:space="preserve">
	<style type="text/css">
		.st0{fill:#FFFFFF;}
	</style>
	<g id="Welcome">
		<g id="Tablet---Step-3" transform="translate(-218.000000, -568.000000)">
			<g id="noun_834226_cc-copy-3" transform="translate(218.000000, 568.000000)">
				<path id="Shape" class="st0" d="M53.6,7.5c0.5,0,0.9-0.4,0.9-0.9V2.4c0-0.5-0.4-0.9-0.9-0.9H6.4c-0.5,0-0.9,0.4-0.9,0.9v4.3
					c0,0.5,0.4,0.9,0.9,0.9h1.4v45.1H6.4c-0.5,0-0.9,0.4-0.9,0.9v4.3c0,0.5,0.4,0.9,0.9,0.9h47.3c0.5,0,0.9-0.4,0.9-0.9v-4.3
					c0-0.5-0.4-0.9-0.9-0.9h-1.4V7.5H53.6z M7.2,3.2h45.6v2.6H7.2V3.2z M46.7,50.9c0,0.9-0.8,1.7-1.7,1.7h-3.5V37.9
					c3.1,2,5.2,5.4,5.2,9.4L46.7,50.9L46.7,50.9z M39.8,46.3h-4.7v-0.7h4.7V46.3z M39.8,43.8h-5.5c-0.5,0-0.9,0.4-0.9,0.9v2.4
					c0,0.5,0.4,0.9,0.9,0.9h5.5v4.6h-9V42c3.1-0.6,5.2-4.3,5.8-5.7c1.1,0.1,2.2,0.4,3.1,0.8L39.8,43.8L39.8,43.8z M13.5,50.9v-3.5
					c0-3.8,2-7.2,4.9-9.2v14.4h-3.2C14.3,52.5,13.5,51.8,13.5,50.9z M20.2,37.2c1-0.4,2-0.7,3.1-0.9c0.7,1.4,2.8,5,5.9,5.7v10.6h-9
					V37.2z M29.1,7.5v2.5c-1.6,0.1-3.1,0.6-4.2,1.2c-4.7,2.8-5.2,9.8-3.2,13.2c0.2,0.3,0.5,0.5,0.7,0.6c0.3,1,1.1,4,2.7,6.3l-0.9,3.3
					c-0.1,0-0.3,0-0.4,0c0,0-0.1,0-0.1,0c-1.2,0.1-2.4,0.4-3.5,0.8V7.5H29.1z M34.8,36C34.8,36.1,34.8,36.1,34.8,36
					c-0.8,1.6-2.2,3.7-4,4.2v-6c1.1-0.2,2.1-0.8,3-1.6L34.8,36z M29.1,19.4c-0.4,0-0.9-0.1-1.5-0.2c-0.4-0.1-0.8-0.1-1.2-0.1
					c-1.5,0-2.8,0.6-3.6,1.8c-0.1,0.2-0.2,0.5-0.3,0.8c-0.6-2.8,0-7.1,3.2-9c0.8-0.5,2.1-0.8,3.3-1L29.1,19.4L29.1,19.4z M24,23.9
					c0-0.2,0-0.4,0-0.6c0-0.4,0.1-1.3,0.2-1.5c0.5-0.7,1.2-1.1,2.2-1.1c0.3,0,0.6,0,0.8,0.1c0.7,0.1,1.3,0.2,1.8,0.2v11.4
					c-3-1-4.7-6.1-5.1-8.3c0,0,0-0.1,0-0.1C24,24,24,23.9,24,23.9z M25.4,36.6l1-3.9c0.8,0.7,1.7,1.2,2.7,1.5v6
					C27.6,39.7,26.3,38,25.4,36.6C25.4,36.6,25.4,36.6,25.4,36.6z M30.9,32.5V20.8c0.4-0.1,0.7-0.3,0.9-0.5c0.5-0.3,0.7-0.4,1.4-0.4
					c2.4,0.9,2.9,3.1,3,3.6C35.7,26.1,33.8,31.8,30.9,32.5z M37.8,22.7c-0.3-1.3-1.3-3.5-4.1-4.4c-0.1,0-0.1,0-0.2,0
					c-0.2,0-0.3,0-0.5,0c-1,0-1.6,0.4-2.1,0.7c0,0,0,0,0,0v-7.3c3.8,0.2,7.7,2.3,7.7,7.7C38.6,20.7,38.4,21.7,37.8,22.7z M36.2,34.5
					l-1-3.4c0,0,0-0.1,0-0.1c1.3-2,2.1-4.5,2.5-6c0.4,0,0.7-0.2,1-0.5c0.6-0.7,1-1.4,1.3-2.2v12.9C38.7,34.8,37.4,34.6,36.2,34.5z
					 M39.8,16.2c-1.3-4.3-5.3-6.1-9-6.3V7.5h9V16.2z M9.5,7.5h9v28.6c-3.9,2.2-6.6,6.4-6.6,11.2v3.5c0,0.6,0.2,1.2,0.5,1.7H9.5
					L9.5,7.5L9.5,7.5z M52.8,56.8H7.2v-2.6h8H45h7.8L52.8,56.8L52.8,56.8z M50.5,52.5H48c0.3-0.5,0.5-1.1,0.5-1.7v-3.5
					c0-4.9-2.8-9.2-6.9-11.3V7.5h9V52.5z"/>
			</g>
		</g>
	</g>
</svg>
