<svg version="1.1" id="Warstwa_1" xmlns="http://www.w3.org/2000/svg" xmlns:xlink="http://www.w3.org/1999/xlink" x="0px" y="0px" width="60px" height="60px" viewBox="0 0 60 60" style="enable-background:new 0 0 60 60;" xml:space="preserve">
<style type="text/css">
	.st0{fill:#FFFFFF;}
</style>
<g id="Welcome">
	<g id="Tablet---Step-3" transform="translate(-349.000000, -569.000000)">
		<g id="noun_32561_cc-copy-2" transform="translate(349.000000, 569.000000)">
			<path id="Shape" class="st0" d="M21.5,45.4c0,0.5,0.4,1,0.9,1c0.5,0,0.9-0.4,0.9-1c0-2.9-2.3-5.2-5.1-5.2c-2.8,0-5.1,2.3-5.1,5.2
				c0,0.5,0.4,1,0.9,1s0.9-0.4,0.9-1h0c0-1.8,1.5-3.3,3.2-3.3C20,42.1,21.5,43.6,21.5,45.4z M33.2,45.4c0,0.5,0.4,1,0.9,1
				c0.5,0,0.9-0.4,0.9-1c0-2.9-2.3-5.2-5.1-5.2c-2.8,0-5.1,2.3-5.1,5.2c0,0.5,0.4,0.9,0.9,0.9c0.5,0,0.9-0.4,0.9-0.9
				c0-1.8,1.5-3.3,3.2-3.3C31.8,42.1,33.2,43.6,33.2,45.4z M45,45.4c0,0.5,0.4,1,0.9,1c0.5,0,0.9-0.4,0.9-1c0-2.9-2.3-5.2-5.1-5.2
				c-2.8,0-5.1,2.3-5.1,5.2c0,0.5,0.4,1,0.9,1c0.5,0,0.9-0.4,0.9-1h0c0-1.8,1.5-3.3,3.3-3.3C43.6,42.1,45,43.6,45,45.4z M12.7,47.4
				c-2.8,0-5.1,2.3-5.1,5.2c0,0.5,0.4,0.9,0.9,0.9c0.5,0,0.9-0.4,0.9-0.9c0-1.8,1.4-3.3,3.2-3.3c1.8,0,3.2,1.5,3.2,3.3
				c0,0.5,0.4,0.9,0.9,0.9c0.5,0,0.9-0.4,0.9-0.9C17.8,49.7,15.5,47.4,12.7,47.4z M24.2,47.4c-2.8,0-5.1,2.3-5.1,5.2
				c0,0.5,0.4,0.9,0.9,0.9c0.5,0,0.9-0.4,0.9-0.9c0-1.8,1.4-3.3,3.2-3.3c1.8,0,3.2,1.5,3.2,3.3c0,0.5,0.4,0.9,0.9,0.9
				c0.5,0,0.9-0.4,0.9-0.9C29.3,49.7,27,47.4,24.2,47.4z M35.8,47.4c-2.8,0-5.1,2.3-5.1,5.2c0,0.5,0.4,0.9,0.9,0.9
				c0.5,0,0.9-0.4,0.9-0.9c0-1.8,1.5-3.3,3.2-3.3c1.8,0,3.3,1.5,3.3,3.3c0,0.5,0.4,0.9,0.9,0.9c0.5,0,0.9-0.4,0.9-0.9
				C40.9,49.7,38.6,47.4,35.8,47.4z M47.3,47.4c-2.8,0-5.1,2.3-5.1,5.2c0,0.5,0.4,0.9,0.9,0.9c0.5,0,0.9-0.4,0.9-0.9h0
				c0-1.8,1.5-3.3,3.2-3.3c1.8,0,3.3,1.5,3.3,3.3c0,0.5,0.4,0.9,0.9,0.9c0.5,0,0.9-0.4,0.9-0.9C52.5,49.7,50.2,47.4,47.3,47.4z
				 M59.7,3.3C59.5,3.1,59.3,3,59.1,3H0.9C0.7,3,0.4,3.1,0.3,3.3C0.1,3.5,0,3.7,0,3.9v52.1c0,0.2,0.1,0.5,0.3,0.7S0.7,57,0.9,57
				h58.1c0.2,0,0.5-0.1,0.7-0.3c0.2-0.2,0.3-0.4,0.3-0.7V3.9C60,3.7,59.9,3.5,59.7,3.3z M54.7,4.9h3.4l0,31.2l-3.4-3.4V4.9L54.7,4.9
				z M52.8,4.9v19.4c-2.7-0.5-5.4-3.5-7.4-7.4c-2.1-3.9-3.4-8.6-3.7-12H52.8z M39.9,4.9c0.2,3.8,1.7,8.7,3.9,12.9
				c1.7,3.1,3.8,5.9,6.3,7.4c-2.7,1.3-4.6,3.9-4.9,7H14.8c-0.3-3.1-2.2-5.7-4.9-7c2.5-1.5,4.6-4.3,6.3-7.4c2.2-4.2,3.7-9.1,3.9-12.9
				L39.9,4.9L39.9,4.9z M52.8,26.2v5.9H47C47.5,29.1,49.8,26.7,52.8,26.2z M7.2,4.9h11.1c-0.2,3.4-1.6,8.1-3.7,12
				c-2,3.9-4.8,6.8-7.4,7.4V4.9z M7.2,26.2c3,0.4,5.4,2.8,5.8,5.9H7.2V26.2z M1.9,4.9h3.4v27.8l-3.4,3.4V4.9z M1.9,55.1V38.8L6.6,34
				h46.8l4.7,4.8l0,16.3L1.9,55.1L1.9,55.1z"/>
		</g>
	</g>
</g>
</svg>
