<svg version="1.1" id="Warstwa_1" xmlns="http://www.w3.org/2000/svg" xmlns:xlink="http://www.w3.org/1999/xlink" x="0px" y="0px" width="60px" height="60px" viewBox="0 0 60 60" style="enable-background:new 0 0 60 60;" xml:space="preserve">
<style type="text/css">
	.st0{fill:#FFFFFF;}
</style>
<g id="Welcome">
	<g id="Tablet---Step-3" transform="translate(-489.000000, -563.000000)">
		<g id="noun_707677_cc-copy-3" transform="translate(489.000000, 563.000000)">
			<path id="Shape" class="st0" d="M9.8,30.1c-0.4,0-0.7,0.4-0.7,1.1v1.7c0,0.7,0.3,1.1,0.7,1.1c0.4,0,0.7-0.4,0.7-1.1v-1.7
				C10.4,30.6,10.2,30.1,9.8,30.1z"/>
			<path id="Shape_1_" class="st0" d="M16.3,30.1c-0.4,0-0.7,0.4-0.7,1.1v1.7c0,0.7,0.3,1.1,0.7,1.1s0.7-0.4,0.7-1.1v-1.7
				C17,30.6,16.6,30.1,16.3,30.1z"/>
			<path id="Shape_2_" class="st0" d="M24.1,30.1c-0.4,0-0.7,0.4-0.7,1.1v1.7c0,0.7,0.3,1.1,0.7,1.1c0.4,0,0.7-0.4,0.7-1.1v-1.7
				C24.8,30.6,24.5,30.1,24.1,30.1z"/>
			<path id="Shape_3_" class="st0" d="M9.8,35.3c-0.4,0-0.7,0.4-0.7,1.1v1.7c0,0.7,0.3,1.1,0.7,1.1c0.4,0,0.7-0.4,0.7-1.1v-1.7
				C10.4,35.9,10.2,35.3,9.8,35.3z"/>
			<path id="Shape_4_" class="st0" d="M16.3,35.3c-0.4,0-0.7,0.4-0.7,1.1v1.7c0,0.7,0.3,1.1,0.7,1.1s0.7-0.4,0.7-1.1v-1.7
				C17,35.9,16.6,35.3,16.3,35.3z"/>
			<path id="Shape_5_" class="st0" d="M24.1,35.3c-0.4,0-0.7,0.4-0.7,1.1v1.7c0,0.7,0.3,1.1,0.7,1.1c0.4,0,0.7-0.4,0.7-1.1v-1.7
				C24.8,35.9,24.5,35.3,24.1,35.3z"/>
			<path id="Shape_6_" class="st0" d="M9.8,41.8c-0.4,0-0.7,0.4-0.7,1.1v1.7c0,0.7,0.3,1.1,0.7,1.1c0.4,0,0.7-0.4,0.7-1.1v-1.7
				C10.4,42.3,10.2,41.8,9.8,41.8z"/>
			<path id="Shape_7_" class="st0" d="M16.3,41.8c-0.4,0-0.7,0.4-0.7,1.1v1.7c0,0.7,0.3,1.1,0.7,1.1s0.7-0.4,0.7-1.1v-1.7
				C17,42.3,16.6,41.8,16.3,41.8z"/>
			<path id="Shape_8_" class="st0" d="M24.1,41.8c-0.4,0-0.7,0.4-0.7,1.1v1.7c0,0.7,0.3,1.1,0.7,1.1c0.4,0,0.7-0.4,0.7-1.1v-1.7
				C24.8,42.3,24.5,41.8,24.1,41.8z"/>
			<path id="Shape_9_" class="st0" d="M9.8,47c-0.4,0-0.7,0.4-0.7,1.1v1.7c0,0.7,0.3,1.1,0.7,1.1c0.4,0,0.7-0.4,0.7-1.1v-1.7
				C10.4,47.6,10.2,47,9.8,47z"/>
			<path id="Shape_10_" class="st0" d="M16.3,47c-0.4,0-0.7,0.4-0.7,1.1v1.7c0,0.7,0.3,1.1,0.7,1.1s0.7-0.4,0.7-1.1v-1.7
				C17,47.6,16.6,47,16.3,47z"/>
			<path id="Shape_11_" class="st0" d="M24.1,47c-0.4,0-0.7,0.4-0.7,1.1v1.7c0,0.7,0.3,1.1,0.7,1.1c0.4,0,0.7-0.4,0.7-1.1v-1.7
				C24.8,47.6,24.5,47,24.1,47z"/>
			<path id="Shape_12_" class="st0" d="M9.8,53.5c-0.4,0-0.7,0.4-0.7,1.1v1.7c0,0.7,0.3,1.1,0.7,1.1c0.4,0,0.7-0.4,0.7-1.1v-1.7
				C10.4,54,10.2,53.5,9.8,53.5z"/>
			<path id="Shape_13_" class="st0" d="M16.3,53.5c-0.4,0-0.7,0.4-0.7,1.1v1.7c0,0.7,0.3,1.1,0.7,1.1S17,57,17,56.3v-1.7
				C17,54,16.6,53.5,16.3,53.5z"/>
			<path id="Shape_14_" class="st0" d="M24.1,53.5c-0.4,0-0.7,0.4-0.7,1.1v1.7c0,0.7,0.3,1.1,0.7,1.1c0.4,0,0.7-0.4,0.7-1.1v-1.7
				C24.8,54,24.5,53.5,24.1,53.5z"/>
			<path id="Shape_15_" class="st0" d="M32,30.1c-0.4,0-0.7,0.4-0.7,1.1v1.7c0,0.7,0.3,1.1,0.7,1.1c0.4,0,0.7-0.4,0.7-1.1v-1.7
				C32.6,30.6,32.3,30.1,32,30.1z"/>
			<path id="Shape_16_" class="st0" d="M39.8,30.1c-0.4,0-0.7,0.4-0.7,1.1v1.7c0,0.7,0.3,1.1,0.7,1.1s0.7-0.4,0.7-1.1v-1.7
				C40.4,30.6,40.1,30.1,39.8,30.1z"/>
			<path id="Shape_17_" class="st0" d="M32,35.3c-0.4,0-0.7,0.4-0.7,1.1v1.7c0,0.7,0.3,1.1,0.7,1.1c0.4,0,0.7-0.4,0.7-1.1v-1.7
				C32.6,35.9,32.3,35.3,32,35.3z"/>
			<path id="Shape_18_" class="st0" d="M39.8,35.3c-0.4,0-0.7,0.4-0.7,1.1v1.7c0,0.7,0.3,1.1,0.7,1.1s0.7-0.4,0.7-1.1v-1.7
				C40.4,35.9,40.1,35.3,39.8,35.3z"/>
			<path id="Shape_19_" class="st0" d="M32,41.8c-0.4,0-0.7,0.4-0.7,1.1v1.7c0,0.7,0.3,1.1,0.7,1.1c0.4,0,0.7-0.4,0.7-1.1v-1.7
				C32.6,42.3,32.3,41.8,32,41.8z"/>
			<path id="Shape_20_" class="st0" d="M39.8,41.8c-0.4,0-0.7,0.4-0.7,1.1v1.7c0,0.7,0.3,1.1,0.7,1.1s0.7-0.4,0.7-1.1v-1.7
				C40.4,42.3,40.1,41.8,39.8,41.8z"/>
			<path id="Shape_21_" class="st0" d="M32,47c-0.4,0-0.7,0.4-0.7,1.1v1.7c0,0.7,0.3,1.1,0.7,1.1c0.4,0,0.7-0.4,0.7-1.1v-1.7
				C32.6,47.6,32.3,47,32,47z"/>
			<path id="Shape_22_" class="st0" d="M39.8,47c-0.4,0-0.7,0.4-0.7,1.1v1.7c0,0.7,0.3,1.1,0.7,1.1s0.7-0.4,0.7-1.1v-1.7
				C40.4,47.6,40.1,47,39.8,47z"/>
			<path id="Shape_23_" class="st0" d="M32,53.5c-0.4,0-0.7,0.4-0.7,1.1v1.7c0,0.7,0.3,1.1,0.7,1.1c0.4,0,0.7-0.4,0.7-1.1v-1.7
				C32.6,54,32.3,53.5,32,53.5z"/>
			<path id="Shape_24_" class="st0" d="M39.8,53.5c-0.4,0-0.7,0.4-0.7,1.1v1.7c0,0.7,0.3,1.1,0.7,1.1s0.7-0.4,0.7-1.1v-1.7
				C40.4,54,40.1,53.5,39.8,53.5z"/>
			<path id="Shape_25_" class="st0" d="M59,58h-3.3L53.7,1c0-0.5-0.5-1-1-1h-7.1c-0.5,0-1,0.4-1,1l-0.9,25.3l-2.7-1.6l-0.7-14.6
				c0-0.5-0.5-1-1-1h-4.2c-0.5,0-1,0.4-1,1L34,20.2l-3-1.8c-0.3-0.2-0.7-0.2-1,0s-0.5,0.5-0.5,0.9v6v0.3l-1.4-0.9l-0.9-14.6
				c0-0.5-0.5-1-1-1h-4.2c-0.5,0-1,0.4-1,1l-0.5,10.1l-3.2-1.9c-0.3-0.2-0.7-0.2-1,0c-0.3,0.2-0.5,0.5-0.5,0.9v6.2l-1.2-0.8
				l-0.7-14.5c0-0.5-0.5-1-1-1H9c-0.5,0-1,0.4-1,1L7.5,20.3l-3.3-2c-0.3-0.2-0.7-0.2-1,0s-0.5,0.5-0.5,0.9v39H1c-0.6,0-1,0.4-1,1
				c0,0.6,0.4,1,1,1H59c0.6,0,1-0.4,1-1C60,58.5,59.4,58,59,58z M46.6,1.9h5.2L53.7,58h-8.9L46.6,1.9z M36.2,11h2.4l0.7,12.4
				l-3.5-2.2L36.2,11z M23.1,11h2.4L26,23.3l-3.5-2.1L23.1,11z M9.8,11.1h2.4l0.7,12.3l-3.5-2.1L9.8,11.1z M4.6,20.8l11.9,7.1
				c0.3,0.2,0.7,0.2,1,0s0.5-0.5,0.5-0.9v-6.3l11.9,7.1c0.3,0.2,0.7,0.2,1,0c0.3-0.2,0.5-0.5,0.5-0.8l0.1-1.9v-4.4l12.4,7.7l-1,29.5
				H4.6V20.8z"/>
		</g>
	</g>
</g>
</svg>
