<svg version="1.1" id="Warstwa_1" xmlns="http://www.w3.org/2000/svg" xmlns:xlink="http://www.w3.org/1999/xlink" x="0px" y="0px" width="60px" height="60px" viewBox="0 0 60 60" style="enable-background:new 0 0 60 60;" xml:space="preserve">
<style type="text/css">
	.st0{fill:#FFFFFF;}
</style>
<g id="Welcome">
	<g id="Tablet---Step-3" transform="translate(-218.000000, -713.000000)">
		<g id="noun_763079_cc-copy-3" transform="translate(218.000000, 713.000000)">
			<path id="Shape" class="st0" d="M32.6,27.4c2.9,0,5.2-3.5,5.2-7.8s-2.3-7.8-5.2-7.8c-2.9,0-5.2,3.5-5.2,7.8S29.7,27.4,32.6,27.4z
				 M32.6,13.2c2.2,0,3.9,2.9,3.9,6.5s-1.7,6.5-3.9,6.5c-2.2,0-3.9-2.9-3.9-6.5S30.4,13.2,32.6,13.2z"/>
			<path id="Shape_1_" class="st0" d="M7,56h7.1c0.3,0,0.6-0.1,0.8-0.3c0.2,0.2,0.5,0.3,0.8,0.3h3.8c0.3,0,0.5-0.1,0.8-0.3
				c0.2,0.2,0.5,0.3,0.8,0.3h3.8c0.3,0,0.7-0.2,0.9-0.5c0.3,0.3,0.8,0.5,1.3,0.5h12.6c0.5,0,0.9-0.2,1.3-0.5
				c0.3,0.3,0.5,0.5,0.9,0.5H53c0.8,0,1.5-0.9,1.5-2.1V6.1C54.5,4.9,53.9,4,53,4H41.9c-0.3,0-0.7,0.2-0.9,0.5
				C40.7,4.2,40.2,4,39.8,4H27.1c-0.5,0-0.9,0.2-1.3,0.5C25.5,4.2,25.3,4,24.9,4H21c-0.3,0-0.5,0.1-0.8,0.3C20,4.1,19.8,4,19.5,4
				h-3.8c-0.3,0-0.6,0.1-0.8,0.3C14.6,4.1,14.4,4,14,4H7C6.2,4,5.5,4.9,5.5,6.1v47.8C5.5,55.1,6.2,56,7,56z M14.2,44.4H6.8V15.7h7.3
				L14.2,44.4L14.2,44.4z M6.8,45.7h7.3v2.9H6.8V45.7z M14.2,14.4H6.8v-2.9h7.3L14.2,14.4L14.2,14.4z M14,54.7H7
				c-0.1-0.1-0.2-0.3-0.2-0.7v-4h7.3v4C14.2,54.3,14.1,54.5,14,54.7z M26.3,45.7h14.2v2.9H26.3V45.7z M53.2,44.4H41.8V15.7h11.3
				L53.2,44.4L53.2,44.4z M41.8,45.7h11.3v2.9H41.8V45.7z M53.2,14.4H41.8v-2.9h11.3L53.2,14.4L53.2,14.4z M40.5,44.4H26.3v-7.1
				h14.2V44.4z M39.8,54.7H27.1c-0.4,0-0.7-0.3-0.7-0.7v-4h14.2v4C40.5,54.3,40.2,54.7,39.8,54.7z M53,54.7H42
				c-0.1-0.1-0.2-0.3-0.2-0.7v-4h11.3v4C53.2,54.3,53,54.5,53,54.7z M42,5.3h11c0.1,0.1,0.2,0.3,0.2,0.7v4H41.8v-4
				C41.8,5.7,41.9,5.5,42,5.3z M27.1,5.3h12.7c0.4,0,0.7,0.3,0.7,0.7v29.8H26.3V6.1C26.3,5.7,26.7,5.3,27.1,5.3z M21.1,5.3h3.6
				c0.1,0.1,0.2,0.3,0.2,0.7v47.8c0,0.4-0.1,0.7-0.2,0.7h-3.6c-0.1-0.1-0.2-0.3-0.2-0.7V6.1C20.9,5.7,21,5.5,21.1,5.3z M15.7,5.3
				h3.6c0.1,0.1,0.2,0.3,0.2,0.7v47.8c0,0.4-0.1,0.7-0.2,0.7h-3.6c-0.1-0.1-0.2-0.3-0.2-0.7V6.1C15.6,5.7,15.7,5.5,15.7,5.3z M7,5.3
				H14c0.1,0.1,0.2,0.3,0.2,0.7v4H6.8v-4C6.8,5.7,7,5.5,7,5.3z"/>
		</g>
	</g>
</g>
</svg>
