<?xml version="1.0" encoding="UTF-8"?>
<svg width="57px" height="53px" viewBox="0 0 57 53" version="1.1" xmlns="http://www.w3.org/2000/svg" xmlns:xlink="http://www.w3.org/1999/xlink">
    <!-- Generator: Sketch 46.2 (44496) - http://www.bohemiancoding.com/sketch -->
    <title>noun_90453_cc copy 5</title>
    <desc>Created with Sketch.</desc>
    <defs></defs>
    <g id="Welcome" stroke="none" stroke-width="1" fill="none" fill-rule="evenodd">
        <g id="Tablet---Step-2" transform="translate(-218.000000, -631.000000)" fill-rule="nonzero" fill="#FFFFFF">
            <g id="noun_90453_cc-copy-5" transform="translate(218.000000, 631.000000)">
                <path d="M23.0350515,24.810989 C21.9773196,24.810989 20.9783505,24.578022 20.214433,24.1120879 C19.5680412,23.7626374 19.0391753,22.656044 19.0391753,21.7824176 C19.0391753,21.1417582 19.2742268,20.6758242 19.7443299,20.3846154 C20.3907216,19.9769231 21.3309278,19.8604396 22.2123711,19.8021978 C22.9762887,19.743956 23.7989691,19.6857143 24.6216495,19.743956 L24.6804124,19.743956 C25.3268041,19.743956 26.0319588,19.8021978 26.6783505,20.0934066 C27.0309278,20.2681319 27.2659794,20.6175824 27.3835052,20.967033 C27.5597938,21.6659341 27.2659794,23.2384615 26.7371134,23.7626374 C26.5020619,23.9956044 26.2082474,24.1703297 25.914433,24.2868132 C25.8556701,24.2868132 25.7969072,24.3450549 25.7969072,24.3450549 C24.9154639,24.6362637 23.9752577,24.810989 23.0350515,24.810989 Z M24.2103093,19.9769231 C23.5051546,19.9769231 22.8587629,20.0351648 22.2123711,20.0934066 C21.3896907,20.1516484 20.5082474,20.2681319 19.8618557,20.6175824 C19.3917526,20.9087912 19.2742268,21.432967 19.2742268,21.7824176 C19.2742268,22.5978022 19.7443299,23.5879121 20.3319588,23.9373626 C21.0371134,24.3450549 21.9773196,24.578022 23.0350515,24.578022 C23.9164948,24.578022 24.856701,24.4032967 25.6793814,24.1120879 C25.7381443,24.1120879 25.7969072,24.0538462 25.7969072,24.0538462 C26.0319588,23.9373626 26.3257732,23.8208791 26.5608247,23.5879121 C27.0309278,23.121978 27.2659794,21.6659341 27.1484536,21.0252747 C27.0896907,20.7340659 26.8546392,20.4428571 26.5608247,20.3263736 C26.0319588,20.0351648 25.3268041,20.0351648 24.6804124,19.9769231 L24.6216495,19.9769231 C24.5041237,19.9769231 24.3278351,19.9769231 24.2103093,19.9769231 Z" id="Shape"></path>
                <path d="M33.671134,24.578022 L33.671134,24.578022 C32.7896907,24.578022 31.8494845,24.4032967 31.085567,24.1703297 C31.0268041,24.1703297 30.9680412,24.1120879 30.9680412,24.1120879 C30.6742268,23.9956044 30.3804124,23.8791209 30.1453608,23.6461538 C29.6164948,23.121978 29.3226804,21.6659341 29.4402062,20.967033 C29.4989691,20.6175824 29.7927835,20.3263736 30.1453608,20.0934066 C30.7329897,19.8021978 31.4969072,19.743956 32.143299,19.6857143 L32.2020619,19.6857143 C32.9659794,19.6274725 33.7886598,19.6274725 34.6701031,19.6857143 C35.3752577,19.743956 36.4329897,19.8021978 37.1381443,20.2098901 C37.6082474,20.4428571 37.843299,20.9087912 37.843299,21.5494505 C37.843299,22.4230769 37.3731959,23.4714286 36.7268041,23.8791209 C35.9041237,24.3450549 34.8463918,24.578022 33.671134,24.578022 Z M33.2010309,19.9186813 C32.8484536,19.9186813 32.4958763,19.9186813 32.143299,19.9186813 L32.0845361,19.9186813 C31.4381443,19.9769231 30.7329897,19.9769231 30.2041237,20.2681319 C29.9103093,20.4428571 29.7340206,20.6758242 29.6164948,20.967033 C29.4989691,21.6076923 29.7927835,23.0054945 30.2628866,23.4714286 C30.4979381,23.7043956 30.7917526,23.8208791 31.0268041,23.8791209 C31.085567,23.8791209 31.1443299,23.9373626 31.1443299,23.9373626 C31.9082474,24.2285714 32.7896907,24.3450549 33.671134,24.3450549 L33.671134,24.3450549 C34.7876289,24.3450549 35.7865979,24.1120879 36.5505155,23.6461538 C37.1381443,23.2967033 37.6082474,22.3648352 37.5494845,21.5494505 C37.5494845,21.2 37.4319588,20.6758242 36.9618557,20.4428571 C36.256701,20.0934066 35.257732,19.9769231 34.5525773,19.9769231 C34.0824742,19.9186813 33.671134,19.9186813 33.2010309,19.9186813 Z" id="Shape"></path>
                <path d="M44.6597938,15.4340659 C42.4268041,3.61098901 36.4329897,1.51428571 34.6113402,1.16483516 C34.3762887,1.10659341 34.1412371,1.10659341 33.9061856,1.10659341 C33.142268,1.10659341 32.3195876,1.33956044 31.7319588,1.63076923 C31.1443299,0.931868132 30.3216495,0.349450549 29.557732,0.232967033 C26.9721649,-0.116483516 23.9752577,0.582417582 20.8608247,2.38791209 C18.4515464,3.78571429 16.2773196,5.64945055 14.6319588,7.92087912 C13.6917526,9.2021978 12.8690722,10.4252747 12.1051546,12.3472527 C10.1072165,17.1813187 10.4597938,23.8791209 12.9278351,27.3153846 C13.9268041,29.1791209 15.2195876,30.2857143 15.2783505,30.343956 C15.3371134,30.4021978 15.3958763,30.4021978 15.4546392,30.4604396 C15.7484536,30.7516484 16.042268,31.0428571 16.3948454,31.2175824 C16.9824742,31.4505495 17.628866,31.4505495 18.0989691,31.1593407 C19.4505155,34.7120879 22.271134,38.2648352 24.856701,39.5461538 C25.7381443,40.3032967 27.2659794,40.7692308 28.9113402,40.7692308 C30.4979381,40.7692308 31.9082474,40.3032967 32.7309278,39.5461538 C35.4927835,38.0901099 38.0783505,33.8967033 38.7247423,30.9263736 C39.0185567,31.0428571 39.371134,31.1010989 39.6649485,31.1010989 C40.0762887,31.1010989 41.3103093,30.9846154 41.956701,29.4120879 L42.0154639,29.3538462 C44.3659794,26.3835165 45.3649485,19.2197802 44.6597938,15.4340659 Z M14.2206186,24.1703297 C14.2206186,24.2285714 14.2206186,24.2285714 14.1618557,24.2868132 C13.985567,24.7527473 13.985567,25.9175824 14.2206186,27.2571429 C14.2206186,27.3153846 14.2206186,27.3153846 14.2206186,27.3736264 L14.2206186,27.3736264 C14.1030928,27.1989011 13.985567,26.9659341 13.8680412,26.7912088 C13.8680412,26.7912088 13.8680412,26.732967 13.8092784,26.732967 C11.5175258,23.5879121 11.2237113,17.4142857 13.0453608,12.8714286 C13.8092784,11.0659341 14.514433,9.95934066 15.4546392,8.67802198 C17.0412371,6.52307692 19.0979381,4.71758242 21.3309278,3.43626374 C23.7402062,2.0967033 25.9731959,1.3978022 28.0886598,1.3978022 C28.5,1.3978022 28.9113402,1.3978022 29.3226804,1.45604396 C29.7340206,1.51428571 30.2628866,1.92197802 30.6742268,2.32967033 C30.9680412,2.5043956 31.1443299,2.73736264 31.2618557,2.91208791 C31.2618557,2.97032967 31.3206186,3.14505495 31.3206186,3.14505495 C31.614433,4.36813187 31.614433,6.11538462 31.2030928,7.22197802 C31.1443299,7.3967033 31.0268041,7.57142857 30.9092784,7.74615385 C30.8505155,7.86263736 30.7329897,7.97912088 30.6154639,8.0956044 C30.4979381,8.21208791 30.4391753,8.27032967 30.3216495,8.32857143 C30.0865979,8.5032967 29.9103093,8.61978022 29.7927835,8.67802198 C29.7340206,8.67802198 29.6164948,8.67802198 29.557732,8.61978022 C29.4402062,8.61978022 29.3226804,8.56153846 29.2051546,8.56153846 C28.2061856,8.38681319 27.0309278,8.21208791 25.914433,8.21208791 C25.1505155,8.21208791 24.5628866,8.27032967 23.9752577,8.44505495 C23.1525773,8.67802198 22.3298969,9.2021978 21.5072165,10.0175824 C21.0371134,10.4835165 20.6257732,11.0076923 20.2731959,11.5318681 C19.7443299,12.3472527 19.3329897,13.2208791 18.9804124,14.0945055 C18.6278351,14.9098901 18.3927835,15.7252747 18.157732,16.5406593 C17.9226804,17.2978022 17.7463918,18.0549451 17.4525773,18.7538462 C17.2762887,19.1615385 17.1587629,19.510989 16.9824742,19.8604396 C16.6298969,20.6758242 16.2773196,21.3164835 16.042268,21.7824176 C14.8670103,23.121978 14.514433,23.5296703 14.2206186,24.1703297 Z M41.1927835,27.956044 L41.1927835,28.1307692 C41.0164948,29.2956044 40.5463918,29.9362637 39.7824742,29.9362637 C39.3123711,29.9362637 38.9597938,29.7032967 38.9010309,29.5868132 C38.7835052,29.3538462 38.5484536,29.2373626 38.2546392,29.2956044 C38.0195876,29.3538462 37.843299,29.5868132 37.7845361,29.8197802 C37.6670103,32.3824176 34.8463918,37.1582418 32.2020619,38.4978022 C32.143299,38.4978022 32.0845361,38.556044 32.0845361,38.6142857 C31.4381443,39.1967033 30.3216495,39.5461538 28.9701031,39.5461538 C27.6185567,39.5461538 26.2670103,39.1384615 25.6206186,38.6142857 C25.5618557,38.556044 25.5618557,38.556044 25.5030928,38.4978022 C22.9175258,37.2747253 19.9793814,33.3725275 18.9216495,29.8197802 C18.8628866,29.5868132 18.6278351,29.4120879 18.3927835,29.4120879 L18.3927835,29.4120879 C18.157732,29.4120879 17.9226804,29.5868132 17.8639175,29.7615385 C17.7463918,30.0527473 17.5701031,30.2274725 17.2762887,30.2274725 C17.1587629,30.2274725 17.0412371,30.2274725 16.9237113,30.1692308 C16.6298969,30.0527473 16.3360825,29.8197802 16.1010309,29.4120879 C15.7484536,28.4802198 15.5134021,27.6065934 15.3958763,26.8494505 C15.3371134,26.2087912 15.3371134,25.4516484 15.3371134,24.578022 C15.5134021,24.2285714 15.7484536,23.8791209 16.9824742,22.656044 C17.0412371,22.5978022 17.0412371,22.5978022 17.1,22.5395604 C17.1,22.4813187 17.1587629,22.4813187 17.1587629,22.4230769 C17.2175258,22.3065934 17.2762887,22.1318681 17.3938144,22.0153846 C17.7463918,21.3164835 18.2164948,20.3263736 18.6278351,19.278022 C18.9216495,18.5208791 19.156701,17.7637363 19.3329897,17.0065934 C19.5680412,16.2494505 19.8030928,15.4340659 20.0969072,14.6769231 C20.6845361,13.1626374 21.3309278,11.9978022 22.3298969,11.0076923 C23.0350515,10.3087912 23.6814433,9.9010989 24.3278351,9.72637363 C24.7979381,9.60989011 25.3268041,9.55164835 25.914433,9.55164835 C26.9134021,9.55164835 28.0298969,9.72637363 29.028866,9.84285714 C29.3226804,9.9010989 29.557732,9.9010989 29.7927835,9.95934066 C29.8515464,9.95934066 29.9103093,9.95934066 29.9690722,9.95934066 C30.0278351,9.95934066 30.0278351,9.95934066 30.0865979,9.95934066 C30.2041237,9.95934066 30.2628866,10.0175824 30.4391753,10.0175824 C30.6154639,10.0758242 30.7329897,10.1340659 30.9680412,10.1340659 C31.9670103,10.2505495 32.9072165,10.4835165 33.7886598,10.832967 C34.5525773,11.1241758 35.8453608,12.8714286 35.9628866,13.7450549 C36.0216495,14.2692308 36.5505155,16.8318681 36.785567,17.4725275 C36.9030928,17.8802198 38.0195876,20.4428571 39.0773196,22.3065934 C39.3123711,22.7142857 40.1350515,23.9956044 41.0164948,24.0538462 C41.2515464,24.0538462 41.3103093,24.1703297 41.3690722,24.2285714 C41.4278351,24.2868132 41.4865979,24.4032967 41.4865979,24.5197802 C41.5453608,25.1604396 41.4278351,26.2087912 41.1927835,27.956044 Z M42.8381443,24.810989 C42.8381443,24.6945055 42.7793814,24.5197802 42.7793814,24.4032967 C42.7206186,24.2868132 42.7206186,24.1120879 42.6618557,23.9956044 C42.6618557,23.9956044 42.6618557,23.9373626 42.6030928,23.9373626 C42.5443299,23.8208791 42.485567,23.7043956 42.4268041,23.5879121 C42.3680412,23.4714286 42.3092784,23.4131868 42.1917526,23.3549451 C42.1329897,23.2967033 42.0742268,23.2967033 42.0154639,23.2384615 L41.956701,23.1802198 C41.8979381,23.121978 41.7804124,23.121978 41.7216495,23.0637363 L41.7216495,23.0637363 C41.6041237,23.0054945 41.5453608,23.0054945 41.4278351,23.0054945 C41.3690722,23.0054945 41.3103093,23.0054945 41.2515464,22.9472527 C41.2515464,22.9472527 41.1927835,22.889011 41.1340206,22.889011 L41.1340206,22.889011 C40.957732,22.7725275 40.7226804,22.5395604 40.4876289,22.1901099 L40.4876289,22.1901099 L40.4876289,22.1901099 C40.428866,22.0736264 40.3113402,21.9571429 40.2525773,21.7824176 C40.1350515,21.6076923 40.0762887,21.432967 39.9587629,21.2582418 C39.9587629,21.2582418 39.9587629,21.2 39.9,21.2 C39.7824742,21.0252747 39.7237113,20.8505495 39.6061856,20.6175824 C39.1360825,19.6857143 38.6659794,18.6956044 38.3721649,17.9967033 L38.3721649,17.9967033 C38.3134021,17.8802198 38.2546392,17.7637363 38.1958763,17.6472527 L38.1958763,17.6472527 C38.1371134,17.5307692 38.1371134,17.4725275 38.0783505,17.356044 C38.0783505,17.356044 38.0783505,17.356044 38.0783505,17.2978022 C38.0783505,17.2395604 38.0195876,17.1813187 38.0195876,17.1230769 C37.843299,16.5406593 37.314433,14.0945055 37.2556701,13.5703297 C37.2556701,13.4538462 37.1969072,13.3956044 37.1969072,13.2791209 C37.1969072,13.2791209 37.1969072,13.2208791 37.1969072,13.1626374 C37.1969072,13.1043956 37.1381443,12.9879121 37.1381443,12.9296703 C37.1381443,12.9296703 37.1381443,12.8714286 37.0793814,12.8714286 C36.9618557,12.6384615 36.8443299,12.4054945 36.7268041,12.1725275 C36.7268041,12.1725275 36.7268041,12.1142857 36.6680412,12.1142857 C36.6092784,11.9978022 36.5505155,11.8813187 36.4917526,11.7648352 C36.4917526,11.7648352 36.4917526,11.7648352 36.4917526,11.7065934 C36.3154639,11.4736264 36.1391753,11.2406593 35.9628866,11.0076923 L35.9628866,11.0076923 C35.8453608,10.8912088 35.7865979,10.7747253 35.6690722,10.6582418 L35.6690722,10.6582418 C35.4927835,10.4252747 35.257732,10.2505495 35.0814433,10.1340659 C35.0814433,10.1340659 35.0226804,10.1340659 35.0226804,10.0758242 C34.7876289,9.95934066 34.6701031,9.9010989 34.6113402,9.9010989 L34.5525773,9.84285714 C34.4350515,9.78461538 34.3762887,9.72637363 34.2587629,9.72637363 C33.3773196,9.37692308 32.4371134,9.14395604 31.4381443,8.96923077 C31.614433,8.79450549 31.7319588,8.61978022 31.9082474,8.44505495 C31.9670103,8.38681319 31.9670103,8.32857143 31.9670103,8.27032967 L31.9670103,8.27032967 C32.6721649,7.10549451 32.7896907,5.35824176 32.6134021,4.01868132 L32.6134021,4.01868132 C32.6134021,3.78571429 32.5546392,3.61098901 32.4958763,3.37802198 C32.4371134,3.2032967 32.4371134,2.97032967 32.3783505,2.7956044 C32.3783505,2.73736264 32.3195876,2.67912088 32.3195876,2.67912088 C32.7896907,2.44615385 33.3773196,2.27142857 33.9061856,2.27142857 C34.0824742,2.27142857 34.2,2.27142857 34.3762887,2.32967033 C40.8402062,3.61098901 43.0731959,13.6285714 43.4845361,15.667033 C43.9546392,18.1714286 43.6608247,21.8406593 42.8381443,24.810989 Z" id="Shape"></path>
                <path d="M30.3804124,21.432967 C31.0268041,21.7824176 29.6752577,21.9571429 29.3226804,21.7824176 C29.0876289,21.6659341 28.7938144,21.4912088 28.5,21.4912088 C28.0298969,21.6076923 27.6185567,21.8406593 27.0896907,21.8989011 C26.9134021,21.8989011 26.2670103,21.8989011 26.2082474,21.6659341 C26.1494845,21.3747253 26.5608247,21.3747253 26.7371134,21.3164835 C27.0309278,21.3164835 27.3835052,21.0252747 27.7360825,20.967033 C28.0886598,20.8505495 28.4412371,20.8505495 28.7938144,20.9087912 C29.3814433,20.967033 29.9103093,21.1417582 30.3804124,21.432967 L30.3804124,21.432967 Z M37.5494845,21.8406593 C38.1371134,21.8406593 38.7247423,21.8406593 39.371134,21.7241758 C39.5474227,21.7241758 39.9,21.6076923 39.6649485,21.3747253 C39.4886598,21.1417582 38.9597938,21.1417582 38.7247423,21.1417582 C38.2546392,21.2 37.7845361,21.2 37.2556701,21.2582418 C37.0793814,21.2582418 36.6092784,21.2582418 36.7268041,21.5494505 C36.785567,21.8406593 37.3731959,21.8989011 37.5494845,21.8406593 L37.5494845,21.8406593 Z M19.3329897,21.7241758 C18.8041237,21.7241758 18.0989691,21.8406593 17.628866,21.7241758 C17.4525773,21.6659341 16.8649485,21.6659341 16.7474227,21.8406593 C16.6298969,22.0736264 17.1,22.1901099 17.2175258,22.2483516 C18.0402062,22.4230769 18.8628866,22.3648352 19.685567,22.3065934 C19.8618557,22.3065934 20.3319588,22.2483516 20.214433,22.0153846 C20.0969072,21.7241758 19.5092784,21.6659341 19.3329897,21.7241758 L19.3329897,21.7241758 Z" id="Shape"></path>
                <path d="M40.1350515,28.8296703 C40.1350515,29.0626374 39.9,29.2956044 39.6649485,29.2956044 C39.4298969,29.2956044 39.1948454,29.0626374 39.1948454,28.8296703 C39.1948454,28.5967033 39.4298969,28.3637363 39.6649485,28.3637363 C39.9,28.3637363 40.1350515,28.5967033 40.1350515,28.8296703 Z M17.0412371,28.421978 C16.8061856,28.421978 16.571134,28.6549451 16.571134,28.8879121 C16.571134,29.1208791 16.8061856,29.3538462 17.0412371,29.3538462 C17.2762887,29.3538462 17.5113402,29.1208791 17.5113402,28.8879121 C17.5113402,28.6549451 17.2762887,28.421978 17.0412371,28.421978 Z" id="Shape"></path>
                <path d="M16.8061856,25.043956 C16.8649485,24.9274725 17.4525773,25.043956 17.3350515,25.1604396 C17.1,25.6263736 17.1587629,26.1505495 17.5701031,26.5 C17.6876289,26.6164835 17.5113402,26.6164835 17.4525773,26.6164835 C17.3350515,26.6164835 17.1587629,26.6164835 17.1,26.5 C16.6298969,26.1505495 16.5123711,25.5681319 16.8061856,25.043956 L16.8061856,25.043956 Z M39.371134,25.1021978 C39.6649485,25.6263736 39.6649485,26.267033 39.3123711,26.732967 C39.1948454,26.9076923 39.7824742,27.0241758 39.8412371,26.9076923 C40.1938144,26.3835165 40.2525773,25.6846154 39.9,25.1604396 C39.8412371,24.9857143 39.2536082,24.9857143 39.371134,25.1021978 L39.371134,25.1021978 Z" id="Shape"></path>
                <path d="M22.6237113,29.5285714 C22.5061856,29.6450549 22.0360825,29.5285714 22.2123711,29.4120879 C23.0938144,28.6549451 23.857732,27.8395604 24.6216495,26.9659341 C24.7391753,26.8494505 25.0917526,26.732967 24.9742268,26.9076923 C24.2103093,27.7813187 22.5649485,29.5285714 22.6237113,29.5285714 L22.6237113,29.5285714 Z M35.1989691,29.0043956 C35.0226804,28.7714286 34.1412371,27.7230769 33.4948454,26.9659341 C33.3773196,26.8494505 32.9659794,26.732967 33.0835052,26.8494505 C33.671134,27.7230769 34.2587629,28.5384615 35.0226804,29.2956044 C35.1402062,29.4703297 35.1989691,29.0043956 35.1989691,29.0043956 Z" id="Shape"></path>
                <path d="M13.2804124,20.6758242 C12.5752577,20.7923077 12.5164948,20.3263736 13.2216495,20.2098901 C15.1020619,19.9186813 15.8072165,17.7054945 16.4536082,16.2494505 C16.571134,15.9582418 17.7463918,15.9 17.5701031,16.1912088 C16.6886598,18.2879121 15.8072165,20.2681319 13.2804124,20.6758242 L13.2804124,20.6758242 Z M38.0783505,14.0945055 C38.7247423,16.3076923 40.1350515,18.0549451 41.8979381,19.5692308 C42.1329897,19.743956 43.2494845,19.6274725 42.8969072,19.3362637 C41.2515464,17.9384615 39.8412371,16.2494505 39.2536082,14.0945055 C39.1948454,13.6868132 38.0195876,13.8032967 38.0783505,14.0945055 L38.0783505,14.0945055 Z M29.2051546,6.34835165 C27.8536082,5.18351648 25.7381443,5.12527473 24.0927835,5.41648352 C21.9185567,5.76593407 19.9793814,7.3967033 18.6278351,9.02747253 C18.3927835,9.26043956 19.5092784,9.55164835 19.7443299,9.31868132 C20.6257732,8.21208791 21.8597938,7.16373626 23.0938144,6.46483516 C24.4453608,5.70769231 26.9134021,5.41648352 28.2061856,6.46483516 C28.3824742,6.63956044 29.4989691,6.63956044 29.2051546,6.34835165 L29.2051546,6.34835165 Z" id="Shape"></path>
                <path d="M26.2082474,22.0153846 C25.2680412,20.967033 24.7391753,20.6758242 23.0350515,20.6758242 C21.9773196,20.6758242 21.5659794,21.0252747 21.2134021,21.432967 C20.9783505,21.6659341 20.743299,21.9571429 20.5082474,22.3065934 C20.214433,22.7142857 20.8020619,22.5395604 20.9195876,22.3648352 C20.9783505,22.2483516 21.0958763,22.1318681 21.1546392,22.0153846 C21.6835052,22.3065934 22.271134,22.4230769 22.9175258,22.4230769 C23.328866,22.4230769 23.7989691,22.3648352 24.2103093,22.2483516 C24.6216495,22.1318681 25.0329897,22.0153846 25.385567,21.8989011 C25.6793814,21.7824176 25.0917526,21.6659341 24.9154639,21.7241758 C24.7391753,21.7824176 24.5628866,21.8406593 24.3278351,21.8989011 C24.3278351,21.8406593 24.3865979,21.7241758 24.3865979,21.6659341 C24.3865979,21.432967 24.2690722,21.2 24.1515464,21.0835165 C24.0340206,21.0835165 24.0340206,21.0252747 24.1515464,21.0835165 C24.7979381,21.0835165 25.385567,21.6076923 25.8556701,22.1318681 C25.9731959,22.2483516 26.443299,22.2483516 26.2082474,22.0153846 Z M22.7412371,21.0252747 C22.6237113,21.2 22.5061856,21.432967 22.5061856,21.6659341 C22.5061856,21.8406593 22.5649485,22.0153846 22.6237113,22.1901099 L22.6237113,22.1901099 C22.4474227,22.1901099 22.2123711,22.1318681 22.0360825,22.0736264 C21.8597938,22.0153846 21.6835052,21.9571429 21.5072165,21.8989011 C21.4484536,21.8989011 21.3896907,21.8406593 21.3309278,21.8406593 L21.3309278,21.8406593 C21.5072165,21.6076923 21.742268,21.432967 21.9773196,21.3164835 C22.1536082,21.2 22.3298969,21.1417582 22.5061856,21.0835165 C22.5649485,21.0835165 22.6237113,21.0835165 22.6237113,21.0835165 C22.6824742,21.0252747 22.7412371,21.0252747 22.7412371,21.0252747 L22.7412371,21.0252747 L22.7412371,21.0252747 Z M23.328866,21.4912088 C23.2113402,21.4912088 23.0938144,21.3747253 23.0938144,21.2582418 C23.0938144,21.1417582 23.2113402,21.0252747 23.328866,21.0252747 C23.4463918,21.0252747 23.5639175,21.1417582 23.5639175,21.2582418 C23.5639175,21.3747253 23.4463918,21.4912088 23.328866,21.4912088 Z" id="Shape"></path>
                <path d="M36.4329897,21.8989011 C35.9041237,21.2582418 35.5515464,20.8505495 35.1989691,20.6758242 C34.728866,20.3846154 34.4938144,20.2098901 33.4360825,20.2681319 C32.5546392,20.2681319 32.0845361,20.5010989 31.614433,20.8505495 C31.2030928,21.0835165 31.0268041,21.4912088 30.6742268,21.8406593 C30.4979381,22.0153846 30.9092784,21.9571429 31.0268041,21.8406593 L31.085567,21.7824176 C31.1443299,21.7824176 31.1443299,21.8406593 31.2030928,21.8406593 C31.7907216,22.0153846 32.4958763,22.1318681 33.2010309,22.1901099 C33.4948454,22.1901099 33.7886598,22.1901099 34.0824742,22.1901099 C34.6701031,22.1318681 35.1989691,22.0153846 35.6690722,21.6076923 L35.6690722,21.6076923 C35.7278351,21.6659341 35.7865979,21.7241758 35.9041237,21.8406593 C36.0216495,21.8989011 36.5505155,22.0153846 36.4329897,21.8989011 Z M32.9072165,21.8406593 C32.3783505,21.7824176 31.9082474,21.6659341 31.4969072,21.5494505 C31.4381443,21.5494505 31.4381443,21.5494505 31.3793814,21.5494505 C31.614433,21.3164835 31.8494845,21.1417582 32.0845361,20.967033 C32.3195876,20.7923077 32.6721649,20.6758242 33.0247423,20.6175824 C32.9072165,20.7340659 32.7896907,20.9087912 32.7309278,21.0835165 C32.7309278,21.1417582 32.7309278,21.2 32.7309278,21.2582418 C32.7309278,21.5494505 32.7896907,21.7241758 32.9072165,21.8406593 Z M33.5536082,21.2 C33.4360825,21.2 33.3185567,21.0835165 33.3185567,20.967033 C33.3185567,20.8505495 33.4360825,20.7340659 33.5536082,20.7340659 C33.671134,20.7340659 33.7886598,20.8505495 33.7886598,20.967033 C33.7886598,21.0835165 33.671134,21.2 33.5536082,21.2 Z M35.6103093,21.4912088 C35.5515464,21.432967 35.4927835,21.432967 35.3752577,21.432967 C35.1402062,21.5494505 34.6701031,21.6659341 34.4938144,21.7824176 C34.5525773,21.6659341 34.6113402,21.4912088 34.6113402,21.3747253 C34.6113402,21.1417582 34.4938144,20.9087912 34.3175258,20.7340659 C34.4350515,20.7340659 34.5525773,20.7923077 34.6701031,20.8505495 L34.6701031,20.8505495 C34.7876289,20.9087912 34.8463918,20.9087912 34.9051546,20.967033 C34.9051546,20.967033 34.9051546,20.967033 34.9639175,20.967033 C35.0226804,21.0252747 35.1402062,21.0835165 35.1989691,21.1417582 C35.1989691,21.1417582 35.1989691,21.1417582 35.257732,21.2 C35.3164948,21.2582418 35.4340206,21.3747253 35.4927835,21.432967 L35.4927835,21.432967 L35.4927835,21.432967 C35.5515464,21.432967 35.5515464,21.4912088 35.6103093,21.4912088 L35.6103093,21.4912088 C35.6690722,21.5494505 35.6103093,21.5494505 35.6103093,21.4912088 Z" id="Shape"></path>
                <path d="M33.9649485,30.8098901 C34.0237113,30.6934066 33.7886598,30.4021978 33.5536082,30.2857143 C33.3773196,30.2274725 33.2010309,30.1692308 33.0247423,30.110989 C32.7896907,29.9945055 32.5546392,29.9362637 32.3195876,29.878022 C31.6731959,29.7032967 31.0268041,29.6450549 30.3804124,29.5285714 C30.2628866,29.5285714 29.7340206,29.4703297 29.557732,29.5285714 C29.4402062,29.5285714 28.9113402,29.6450549 28.9113402,29.6450549 C28.9113402,29.6450549 28.5587629,29.5868132 28.3237113,29.5285714 C27.9123711,29.4703297 27.442268,29.5868132 27.0309278,29.7032967 C26.5020619,29.8197802 25.9731959,29.9362637 25.5030928,30.0527473 C25.1505155,30.1692308 24.7391753,30.2274725 24.1515464,30.4021978 C23.857732,30.4604396 23.7989691,30.9263736 23.9164948,30.9263736 L23.9164948,30.9263736 C23.9164948,31.0428571 24.0340206,31.1593407 24.0927835,31.2175824 C24.2690722,31.4505495 24.3278351,31.567033 24.5628866,31.7417582 C24.9742268,32.0912088 26.0907216,33.0813187 27.2659794,33.489011 C28.2649485,33.7802198 29.3226804,33.721978 30.3216495,33.489011 C31.2618557,33.256044 32.3195876,32.7318681 32.8484536,31.9747253 C32.9659794,31.8 33.2597938,31.4505495 33.3773196,31.3923077 C33.3773196,31.3923077 33.4948454,31.2758242 33.5536082,31.1593407 L33.5536082,31.1593407 C33.671134,31.0428571 33.7886598,30.8681319 33.8474227,30.8098901 C33.8474227,30.8098901 33.9061856,30.8098901 33.9649485,30.8098901 Z M32.0257732,31.8582418 C31.1443299,32.3824176 29.8515464,32.4989011 28.8525773,32.4989011 C28.1474227,32.4989011 26.5608247,32.2659341 25.9731959,32.0912088 C25.5030928,31.9747253 25.0917526,31.7417582 24.7391753,31.5087912 C25.1505155,31.6252747 25.5618557,31.7417582 25.5618557,31.7417582 C25.5618557,31.7417582 25.5618557,31.7417582 25.6206186,31.8 C25.7381443,31.8582418 25.8556701,31.9747253 26.0907216,31.9747253 C26.3257732,32.032967 26.5608247,31.9747253 26.6783505,31.9164835 C26.7958763,31.9747253 26.9721649,32.0912088 27.1484536,32.1494505 C27.3247423,32.1494505 27.5010309,32.0912088 27.6185567,32.0912088 C27.7360825,32.1494505 28.0298969,32.2659341 28.3824742,32.2659341 C28.7350515,32.2659341 28.9701031,32.1494505 29.0876289,32.0912088 C29.2051546,32.1494505 29.4402062,32.2659341 29.8515464,32.2659341 C29.8515464,32.2659341 29.8515464,32.2659341 29.9103093,32.2659341 C30.2628866,32.2659341 30.556701,32.032967 30.6742268,31.9747253 C30.6154639,31.9747253 30.9680412,32.032967 31.1443299,32.032967 C31.2618557,31.9747253 31.4969072,31.9164835 31.614433,31.8 C31.7319588,31.8582418 31.9670103,31.9164835 32.143299,31.8582418 C32.2608247,31.6835165 32.0257732,31.8 32.0257732,31.8582418 Z M33.3773196,30.9263736 L32.4958763,31.2758242 L32.4371134,31.2758242 C32.3783505,31.3340659 32.2020619,31.4505495 32.0845361,31.5087912 C31.9670103,31.5087912 31.7319588,31.5087912 31.614433,31.4505495 C31.5556701,31.4505495 31.4969072,31.4505495 31.4969072,31.4505495 C31.3206186,31.567033 31.1443299,31.6835165 31.085567,31.6835165 C30.9680412,31.6835165 30.8505155,31.6835165 30.7917526,31.6252747 C30.6742268,31.6252747 30.556701,31.6252747 30.4979381,31.6835165 C30.4391753,31.7417582 30.2041237,31.9164835 29.9103093,31.9164835 C29.4402062,31.9164835 29.2051546,31.7417582 29.2051546,31.7417582 C29.1463918,31.6835165 29.0876289,31.6835165 29.028866,31.7417582 C29.028866,31.7417582 28.7938144,31.9164835 28.3824742,31.9164835 C27.971134,31.9164835 27.6773196,31.7417582 27.6773196,31.7417582 C27.6185567,31.7417582 27.5597938,31.6835165 27.5597938,31.7417582 C27.5010309,31.7417582 27.3247423,31.8582418 27.1484536,31.8 C27.0309278,31.8 26.8546392,31.6835165 26.7371134,31.6252747 C26.6783505,31.6252747 26.6783505,31.567033 26.6195876,31.6252747 C26.5608247,31.6252747 26.2670103,31.7417582 26.1494845,31.6835165 C26.0319588,31.6835165 25.8556701,31.567033 25.7969072,31.5087912 C25.7381443,31.4505495 25.6793814,31.4505495 25.6793814,31.4505495 C25.6206186,31.4505495 24.7391753,31.1593407 24.2103093,31.0428571 C24.2103093,30.9846154 24.1515464,30.9846154 24.0927835,30.9263736 C24.2103093,30.8681319 24.3278351,30.8681319 24.4453608,30.8098901 C24.5628866,30.7516484 24.9154639,30.7516484 25.0329897,30.6934066 C25.1505155,30.6934066 25.2680412,30.6351648 25.385567,30.7516484 C25.385567,30.7516484 25.4443299,30.9263736 25.5030928,30.9263736 C25.5618557,30.9263736 25.7381443,30.5769231 26.0319588,30.6351648 C26.3845361,30.6351648 26.5020619,31.0428571 26.5608247,31.0428571 C26.6195876,31.0428571 26.7371134,30.6351648 27.0309278,30.6351648 C27.5010309,30.6351648 27.442268,31.0428571 27.5010309,31.0428571 C27.5010309,31.0428571 27.6185567,30.8098901 27.6773196,30.7516484 C27.9123711,30.4021978 28.6175258,30.5186813 28.7350515,30.6934066 C28.7938144,30.7516484 28.8525773,30.8098901 28.8525773,30.9263736 C28.8525773,30.9263736 28.9113402,31.1010989 28.9701031,31.1010989 C29.028866,31.1010989 29.028866,30.9263736 29.0876289,30.8681319 C29.1463918,30.8098901 29.1463918,30.6934066 29.2639175,30.6351648 C29.4989691,30.4604396 29.9103093,30.5186813 30.0865979,30.5769231 C30.1453608,30.5769231 30.2628866,30.6934066 30.3216495,30.7516484 C30.3804124,30.8098901 30.4391753,30.9846154 30.4391753,30.9846154 C30.4979381,30.9846154 30.6154639,30.5769231 30.9092784,30.5769231 C31.2618557,30.5769231 31.3206186,30.9846154 31.3793814,30.9846154 C31.4381443,30.9846154 31.4969072,30.5769231 31.9082474,30.5769231 C32.2608247,30.5769231 32.3195876,30.8098901 32.3195876,30.8098901 C32.3783505,30.8098901 32.4371134,30.6351648 32.4371134,30.5769231 C32.4958763,30.5186813 32.6134021,30.5186813 32.6721649,30.5769231 C32.7896907,30.5769231 33.2010309,30.6351648 33.4948454,30.7516484 C33.4948454,30.7516484 33.4360825,30.8681319 33.3773196,30.9263736 Z" id="Shape"></path>
                <path d="M31.2618557,19.4527473 C31.0268041,19.2197802 31.0268041,18.8120879 31.3793814,18.6956044 C31.6731959,18.5791209 32.5546392,18.3461538 33.2010309,18.3461538 C33.7886598,18.3461538 34.9051546,18.4626374 35.4340206,18.6373626 C35.9628866,18.8120879 36.1979381,18.9285714 36.5505155,19.1615385 C36.9030928,19.3945055 36.7268041,19.510989 36.7268041,19.510989 C36.7268041,19.510989 36.0216495,19.1032967 35.6690722,19.0450549 C35.0226804,18.9285714 34.0237113,19.0450549 33.3185567,19.1615385 C32.7309278,19.278022 32.4958763,19.3945055 32.2020619,19.4527473 C31.7907216,19.6274725 31.4381443,19.6274725 31.2618557,19.4527473 Z M25.4443299,19.5692308 C25.6206186,19.3945055 25.7969072,18.9868132 25.5618557,18.8703297 C25.2680412,18.6956044 24.2103093,18.6373626 23.6226804,18.6373626 C23.0350515,18.6373626 21.9773196,18.6956044 21.4484536,18.8703297 C20.9195876,19.0450549 20.5670103,19.1615385 20.2731959,19.3945055 C20.1556701,19.510989 19.2742268,20.2098901 19.8618557,20.0351648 C19.8618557,20.0351648 21.0958763,19.3945055 21.5072165,19.3362637 C22.0948454,19.278022 22.9175258,19.3362637 23.6226804,19.4527473 C24.1515464,19.5692308 24.3278351,19.510989 24.6216495,19.6274725 C24.9154639,19.6857143 25.2092784,19.743956 25.4443299,19.5692308 Z" id="Shape"></path>
                <path d="M21.0371134,38.4395604 L25.2680412,52.7087912 L15.5721649,52.7087912 L16.7474227,50.5538462 L13.2804124,48.2824176 L17.6876289,39.4879121 L19.9206186,38.6725275 L19.9793814,34.5373626 L21.1546392,34.5373626 L21.0371134,38.4395604 Z M15.9835052,39.9538462 L2.23298969,44.8461538 L0.0587628866,52.7087912 L14.1030928,52.7087912 L15.1020619,50.9032967 L11.6350515,48.5736264 L15.9835052,39.9538462 Z M43.2494845,48.2824176 L38.842268,39.4879121 L36.3154639,38.556044 L36.3742268,36.1098901 L35.1989691,36.1098901 L35.1402062,38.789011 L31.6731959,52.767033 L40.957732,52.767033 L39.7824742,50.6120879 L43.2494845,48.2824176 Z M54.3556701,44.8461538 L40.6051546,39.9538462 L44.9536082,48.5736264 L41.4865979,50.9032967 L42.485567,52.7087912 L56.5298969,52.7087912 L54.3556701,44.8461538 Z" id="Shape"></path>
                <path d="M36.1979381,22.5395604 C35.8453608,22.4230769 36.3154639,22.3065934 36.4917526,22.3648352 C37.0206186,22.5395604 37.4907216,22.889011 37.9020619,23.3549451 C37.9608247,23.4714286 37.4319588,23.5296703 37.3731959,23.3549451 C37.0206186,23.0054945 36.6092784,22.7142857 36.1979381,22.5395604 L36.1979381,22.5395604 Z M19.5680412,22.5978022 C18.9804124,22.7142857 18.5103093,23.0054945 18.0989691,23.4714286 C17.9814433,23.5879121 18.5103093,23.7043956 18.6278351,23.5879121 C18.9804124,23.1802198 19.3917526,22.889011 19.9206186,22.7725275 C20.0381443,22.7725275 20.0381443,22.656044 19.9206186,22.5978022 C19.8618557,22.5395604 19.685567,22.5978022 19.5680412,22.5978022 L19.5680412,22.5978022 Z M20.214433,23.3549451 C20.4494845,23.1802198 20.6845361,23.0637363 20.9195876,22.889011 C20.9783505,22.8307692 20.743299,22.7142857 20.6845361,22.7725275 C20.4494845,22.889011 20.1556701,23.0637363 19.9793814,23.2384615 C19.9206186,23.2967033 20.1556701,23.4131868 20.214433,23.3549451 L20.214433,23.3549451 Z M36.3154639,23.1802198 C36.1391753,22.889011 35.9041237,22.7142857 35.6103093,22.5978022 C35.4340206,22.5395604 35.1989691,22.5978022 35.4340206,22.7142857 C35.6690722,22.8307692 35.7865979,22.9472527 35.9041237,23.121978 C35.9628866,23.2967033 36.3742268,23.3549451 36.3154639,23.1802198 L36.3154639,23.1802198 Z" id="Shape"></path>
                <path d="M32.6134021,26.9076923 C32.4958763,27.1989011 32.2020619,27.4318681 31.7319588,27.5483516 C31.5556701,27.6065934 31.3793814,27.5483516 31.2030928,27.5483516 C31.0268041,27.6065934 30.6154639,27.6065934 30.2041237,27.6065934 C30.0278351,27.6065934 29.9103093,27.6065934 29.7927835,27.6065934 C29.7340206,27.6648352 29.6752577,27.6648352 29.6164948,27.7230769 C29.3814433,27.8978022 29.1463918,28.0142857 28.7938144,28.0142857 C28.7350515,28.0142857 28.7350515,28.0142857 28.6762887,28.0142857 C28.4412371,28.0142857 28.3237113,27.8978022 28.1474227,27.7813187 C28.0886598,27.7230769 28.0298969,27.7230769 27.971134,27.6648352 L27.971134,27.6648352 C27.8536082,27.6648352 27.6773196,27.6648352 27.3835052,27.6648352 C27.2072165,27.6648352 27.0309278,27.6065934 26.9134021,27.6065934 C26.8546392,27.6065934 26.7958763,27.6065934 26.7958763,27.6065934 C26.6195876,27.6648352 26.5020619,27.6648352 26.3257732,27.6065934 C25.9731959,27.5483516 25.6793814,27.3736264 25.5618557,27.0824176 C25.3268041,26.5582418 25.6206186,25.7428571 25.9731959,25.1604396 C26.0319588,25.043956 26.3257732,24.8692308 26.443299,24.8692308 C26.5020619,24.8692308 26.5020619,24.9274725 26.5608247,24.9274725 C26.5608247,24.9857143 26.5608247,25.043956 26.5020619,25.1021978 C26.2670103,25.4516484 25.8556701,26.4417582 26.1494845,26.9076923 C26.2670103,27.0241758 26.3845361,27.1406593 26.5608247,27.1406593 C26.6783505,27.1406593 26.8546392,27.0824176 26.9721649,27.0824176 C27.0896907,27.0241758 27.2072165,27.0241758 27.3247423,27.0241758 C27.6185567,27.0241758 27.7948454,27.1406593 28.0298969,27.2571429 C28.0886598,27.2571429 28.1474227,27.3153846 28.2061856,27.3736264 C28.2649485,27.4318681 28.3824742,27.4901099 28.3824742,27.4901099 C28.5,27.5483516 28.6175258,27.5483516 28.7350515,27.5483516 C29.028866,27.5483516 29.2639175,27.4318681 29.557732,27.2571429 C29.8515464,27.1406593 30.1453608,26.9659341 30.4979381,26.9659341 C30.556701,26.9659341 30.6742268,26.9659341 30.7329897,26.9659341 C30.9680412,27.0241758 31.2030928,27.0824176 31.4381443,27.0824176 C31.6731959,27.0824176 31.8494845,27.0241758 31.9670103,26.9076923 C32.0845361,26.7912088 32.0845361,26.6164835 32.0845361,26.4417582 C32.0845361,25.9758242 31.7319588,25.5681319 31.4381443,25.1604396 C31.3206186,24.9857143 31.2030928,24.8692308 31.1443299,24.7527473 C31.1443299,24.6945055 31.085567,24.6945055 31.1443299,24.6362637 C31.1443299,24.6362637 31.2030928,24.578022 31.2030928,24.578022 C31.3206186,24.578022 31.5556701,24.6945055 31.614433,24.7527473 C31.6731959,24.810989 31.7319588,24.8692308 31.7319588,24.9274725 C32.143299,25.3351648 32.8484536,26.267033 32.6134021,26.9076923 Z" id="Shape"></path>
            </g>
        </g>
    </g>
</svg>