<svg version="1.1" id="Warstwa_1" xmlns="http://www.w3.org/2000/svg" xmlns:xlink="http://www.w3.org/1999/xlink" x="0px" y="0px" width="90px" height="60px" viewBox="0 0 90 60" style="enable-background:new 0 0 90 60;" xml:space="preserve">
<style type="text/css">
	.st0{fill:#FFFFFF;}
</style>
<g id="Welcome">
	<g id="Tablet---Step-3" transform="translate(-339.000000, -718.000000)">
		<g id="noun_881596_cc-copy-2" transform="translate(339.000000, 718.000000)">
			<g id="Group">
				<path id="Shape" class="st0" d="M83.9,51.4L61.3,20.7L51.2,32.6l-8.3-10.5c0.6-1.4,0.9-2.8,0.9-4.4c0-6-4.8-10.9-10.8-10.9
					c-4,0-7.5,2.2-9.3,5.5h-8.1v2.1h7.1H25h4.4v-2.1h-3.2c1.6-2.1,4.1-3.4,6.9-3.4c4.8,0,8.7,4,8.7,8.8c0,0.9-0.1,1.7-0.4,2.5
					l-4.6-5.9l-8.9,10.4c-0.1-0.1-0.3-0.2-0.4-0.3h-2.9c0.6,0.7,1.2,1.4,1.9,1.9l-21.2,25H0v2.1h90v-2.1H83.9z M67.7,32.8l-5.7-3.4
					l-1.7,2.7L59,29.8h-2.7l4.9-5.8L67.7,32.8z M54.5,31.9h3.3l2.4,4.4l2.4-4l8.2,4.8l2.8,3.8h-3.1v2.1h4.6l3.5,4.8h-3v2.1h4.5
					l1.2,1.7H66.1l-8.8-11.1h3.6v-2.1h-5.2l-3.2-4L54.5,31.9z M43.3,25.9l-5.7-4v7.6l-4.2-1.1l-1.7,3.4l-1.1-2.2l-4.8,0.8l11-12.9
					L43.3,25.9z M23.6,33l5.7-1l2.2,4.5l2.8-5.7l5.2,1.3v-6.3l8.2,5.8l11.7,14.8h-4.4v2.1h6l2.3,2.9H8L23.6,33z"/>
				<rect id="Rectangle-path" x="21" y="38.5" class="st0" width="6.3" height="2.1"/>
				<rect id="Rectangle-path_1_" x="25.7" y="42.9" class="st0" width="7.4" height="2.1"/>
				<rect id="Rectangle-path_2_" x="38.3" y="35.2" class="st0" width="6.3" height="2.1"/>
				<rect id="Rectangle-path_3_" x="36.7" y="46.4" class="st0" width="4.8" height="2.1"/>
				<rect id="Rectangle-path_4_" x="42.4" y="40.8" class="st0" width="6" height="2.1"/>
				<rect id="Rectangle-path_5_" x="14.4" y="46.4" class="st0" width="5.5" height="2.1"/>
				<rect id="Rectangle-path_6_" x="65.6" y="46.4" class="st0" width="4.9" height="2.1"/>
				<path id="Shape_1_" class="st0" d="M19.9,22.4h7.4v-2.1h-2.6c-0.3-0.8-0.4-1.7-0.4-2.7c0-0.4,0-0.9,0.1-1.3h-2.1
					c0,0.4-0.1,0.8-0.1,1.3c0,0.9,0.1,1.8,0.3,2.7h-2.7V22.4z"/>
				<path id="Shape_2_" class="st0" d="M52.2,17.9c0.2,0.3,0.5,0.4,0.8,0.4c0.1,0,0.3,0,0.4-0.1c0.4-0.2,0.7-0.6,0.6-1.1
					c0-0.1-0.3-3.4,2.3-5.1l-1.1-1.8c-2.1,1.3-2.8,3.3-3.1,4.8c-2-1-4.4-0.4-5.7,0.3l0.9,1.8C47.5,17.2,50.6,15.7,52.2,17.9z"/>
				<path id="Shape_3_" class="st0" d="M60.5,12.4c-0.1,0.5,0.2,0.9,0.6,1.1c0.1,0.1,0.3,0.1,0.4,0.1c0.3,0,0.6-0.1,0.8-0.4
					c0,0,2.1-2.6,5.2-1.9l0.5-2c-2.4-0.5-4.3,0.3-5.6,1.2c-0.7-2.2-2.9-3.4-4.2-3.9l-0.6,2C57.6,8.6,60.9,9.7,60.5,12.4z"/>
			</g>
		</g>
	</g>
</g>
</svg>
