<?xml version="1.0" encoding="UTF-8"?>
<svg width="32px" height="13px" viewBox="0 0 32 13" version="1.1" xmlns="http://www.w3.org/2000/svg" xmlns:xlink="http://www.w3.org/1999/xlink">
    <!-- Generator: Sketch 46.2 (44496) - http://www.bohemiancoding.com/sketch -->
    <title>noun_171703_cc copy 3</title>
    <desc>Created with Sketch.</desc>
    <defs></defs>
    <g id="Welcome" stroke="none" stroke-width="1" fill="none" fill-rule="evenodd">
        <g id="Desktop---Landing" transform="translate(-497.000000, -561.000000)" fill-rule="nonzero" fill="#000000">
            <g id="noun_171703_cc-copy-3" transform="translate(497.000000, 561.000000)">
                <g id="Group">
                    <path d="M18.8277778,0.479282946 L18.776389,0.620647054 L18.7055556,0.595256297 L14.3194446,12.6276677 L14.673611,12.7566794 L16.4694443,7.82952581 L29.5027776,12.5768865 L27.0145835,7.75335389 L31.9986112,5.62877619 L19.0083335,0.864945865 L19.0597223,0.724268297 L18.9888889,0.698191351 L19.0409721,0.556827243 L18.8277778,0.479282946 Z M19.2729166,1.32129119 L19.2673611,1.48186965 L19.4173611,1.53814068 L19.2638891,1.58411816 L19.2555556,1.74538316 L19.1666667,1.61294022 L19.0118055,1.65617259 L19.1097223,1.52853332 L19.0222222,1.39403181 L19.1722222,1.44755773 L19.2729166,1.32129119 Z M20.1229166,1.630096 L20.1173611,1.79067446 L20.2673611,1.84694549 L20.1138887,1.89292332 L20.10625,2.05418797 L20.0166667,1.92174503 L19.8618055,1.96566395 L19.9604167,1.83733849 L19.8722222,1.70283662 L20.0229166,1.75704908 L20.1229166,1.630096 Z M19.5652779,1.83459338 L19.5597223,1.99585803 L19.7090279,2.05144286 L19.5555556,2.0974207 L19.5479168,2.25868535 L19.4583332,2.12624241 L19.3041668,2.17016132 L19.4020832,2.04183586 L19.3145835,1.90802019 L19.4645835,1.96154646 L19.5652779,1.83459338 Z M20.9743054,1.939587 L20.9694443,2.10016546 L21.1187499,2.15643684 L20.9652779,2.20241432 L20.9576388,2.36367897 L20.8680555,2.23123603 L20.7131943,2.27515495 L20.8118055,2.14682949 L20.7243054,2.01232762 L20.8743054,2.06654008 L20.9743054,1.939587 Z M19.0097223,2.04320824 L19.0041668,2.2037867 L19.1541668,2.26005773 L19.0006944,2.30603557 L18.9923612,2.46730022 L18.9034724,2.33485727 L18.7486112,2.37877619 L18.8465276,2.25045073 L18.7590279,2.11594886 L18.9090279,2.16947514 L19.0097223,2.04320824 Z M20.4152779,2.14339819 L20.4097223,2.30466319 L20.5590279,2.36024803 L20.40625,2.40622551 L20.3979168,2.5681767 L20.3083335,2.43504722 L20.1541668,2.47896614 L20.2520832,2.35132686 L20.1645835,2.21682535 L20.3145835,2.27035127 L20.4152779,2.14339819 Z M21.8243054,2.24839181 L21.8194446,2.40965681 L21.9687499,2.46524165 L21.8152779,2.51121914 L21.8076388,2.67317032 L21.7180555,2.54004119 L21.5638891,2.58396011 L21.6618055,2.4556343 L21.5743054,2.32181897 L21.7243054,2.37534524 L21.8243054,2.24839181 Z M19.8597223,2.35201305 L19.8541668,2.51327805 L20.0041668,2.56886289 L19.8506944,2.61484038 L19.8430556,2.77679157 L19.7534724,2.64366208 L19.5986112,2.687581 L19.6972224,2.55925554 L19.6090279,2.42544022 L19.7597223,2.47896614 L19.8597223,2.35201305 Z M21.2666667,2.45288954 L21.2611111,2.61415419 L21.4111111,2.66973903 L21.2576388,2.71571686 L21.2493056,2.8776677 L21.1604167,2.74453857 L21.0055556,2.78845749 L21.1034724,2.66081822 L21.0159723,2.52631635 L21.1659723,2.57984262 L21.2666667,2.45288954 Z M19.3020832,2.55651043 L19.2965276,2.71777543 L19.4458332,2.77336027 L19.2923612,2.81933776 L19.2847221,2.98128895 L19.1951388,2.84815981 L19.0409721,2.89207873 L19.1388889,2.76443911 L19.0513888,2.62993759 L19.2013888,2.68346386 L19.3020832,2.55651043 Z M22.6777778,2.55856935 L22.6722222,2.71914781 L22.8222222,2.77541884 L22.6687499,2.82139668 L22.6604167,2.98266132 L22.5715278,2.85021838 L22.4166667,2.8941373 L22.5145835,2.76581184 L22.4270834,2.63130997 L22.5770834,2.68552243 L22.6777778,2.55856935 Z M20.7111111,2.66150441 L20.70625,2.82276905 L20.8555556,2.87835389 L20.7020832,2.92433173 L20.6944444,3.08628257 L20.6048612,2.95315343 L20.45,2.99707235 L20.5486112,2.86874654 L20.4611111,2.73493122 L20.6111111,2.78845749 L20.7111111,2.66150441 Z M22.1166667,2.76169435 L22.1111111,2.922959 L22.2611111,2.97923038 L22.1076388,3.02520786 L22.1,3.18647251 L22.0104167,3.05402957 L21.8555556,3.0972623 L21.9541668,2.96962303 L21.8659723,2.83512116 L22.0166667,2.88864743 L22.1166667,2.76169435 Z M18.7465276,2.76581184 L18.7409721,2.92707649 L18.8902777,2.98266132 L18.7368057,3.02932535 L18.7291666,3.19059 L18.6395833,3.05746086 L18.4854165,3.10137978 L18.5833333,2.97374016 L18.4958332,2.83923865 L18.6458332,2.89276492 L18.7465276,2.76581184 Z M20.1520832,2.86531559 L20.1465276,3.02658024 L20.2958332,3.08285127 L20.1430556,3.12882911 L20.1347221,3.29009376 L20.0451388,3.15696462 L19.8909721,3.20088354 L19.9888889,3.07324427 L19.9013888,2.93874241 L20.0513888,2.99226868 L20.1520832,2.86531559 Z M23.5277778,2.86737416 L23.5222222,3.02863881 L23.6722222,3.084224 L23.5187499,3.13020149 L23.5111111,3.29215232 L23.4215278,3.15902319 L23.2666667,3.20294211 L23.3652779,3.07461665 L23.2770834,2.94080097 L23.4277778,2.99432724 L23.5277778,2.86737416 Z M21.5611111,2.97030922 L21.55625,3.13157386 L21.7055556,3.18784524 L21.5520832,3.23382273 L21.5444444,3.39508738 L21.4548612,3.26195824 L21.3006944,3.30587716 L21.3986112,3.17823789 L21.3111111,3.04373603 L21.4611111,3.0972623 L21.5611111,2.97030922 Z M22.9694443,3.07187154 L22.9645835,3.23313654 L23.1138887,3.28872138 L22.9604167,3.33469886 L22.952778,3.49665005 L22.8631943,3.36352092 L22.7090279,3.40743984 L22.8069444,3.27980022 L22.7194446,3.1452987 L22.8694443,3.19882497 L22.9694443,3.07187154 Z M19.5965276,3.07461665 L19.5909721,3.2358813 L19.7402777,3.29215232 L19.5868057,3.33813016 L19.5791666,3.49939481 L19.4895833,3.36695186 L19.3354165,3.41018459 L19.4333333,3.28254532 L19.3458332,3.14804346 L19.4958332,3.20156973 L19.5965276,3.07461665 Z M21.0034724,3.17480659 L20.9979168,3.33607124 L21.1479168,3.39234262 L20.9944444,3.43832011 L20.9861113,3.59958476 L20.8972224,3.46645562 L20.7423612,3.51037454 L20.8402777,3.38273527 L20.752778,3.24823341 L20.9027776,3.30175968 L21.0034724,3.17480659 Z M19.0381945,3.27911403 L19.0326389,3.44037903 L19.1826389,3.49665005 L19.0291666,3.54262754 L19.0215278,3.70389254 L18.9319445,3.57144924 L18.7770834,3.61468197 L18.8756946,3.4870427 L18.7875001,3.35254119 L18.9381945,3.40606711 L19.0381945,3.27911403 Z M22.4145835,3.28048641 L22.4090279,3.44175141 L22.5590279,3.49733624 L22.4055556,3.54331373 L22.3972224,3.70526492 L22.3083335,3.57213578 L22.1534724,3.6160547 L22.2513888,3.48772889 L22.1638891,3.35391357 L22.3145835,3.40743984 L22.4145835,3.28048641 Z M23.8284722,3.36695186 L30.7555556,5.88405508 L30.0145835,6.19972214 L23.6402777,3.88299916 L23.8284722,3.36695186 Z M20.4479168,3.38410765 L20.4423612,3.54537265 L20.5923612,3.60164368 L20.4388889,3.64762116 L20.4305557,3.80888616 L20.3416668,3.67644286 L20.1868057,3.71967559 L20.2847221,3.59203632 L20.1972224,3.45753481 L20.3479168,3.51106073 L20.4479168,3.38410765 Z M21.8534724,3.48429795 L21.8479168,3.64487641 L21.9979168,3.70114743 L21.8444444,3.74712492 L21.8368057,3.90838992 L21.747222,3.77594697 L21.5923612,3.81917935 L21.6909721,3.69154008 L21.6027776,3.55703857 L21.7534724,3.61056449 L21.8534724,3.48429795 Z M18.4826389,3.48841508 L18.4770834,3.64968008 L18.6270834,3.70595111 L18.473611,3.75192859 L18.4659723,3.91319359 L18.376389,3.78006411 L18.2215278,3.82398303 L18.320139,3.69634376 L18.2326389,3.56184224 L18.3826389,3.61536816 L18.4826389,3.48841508 Z M19.8881945,3.58860503 L19.8833333,3.74918384 L20.0326389,3.80545486 L19.8791666,3.85143235 L19.8715278,4.01269735 L19.7819445,3.88025441 L19.6270834,3.92348714 L19.7256946,3.79584751 L19.6381945,3.661346 L19.7881945,3.71487227 L19.8881945,3.58860503 Z M23.2645835,3.58929157 L23.2590279,3.75055622 L23.4090279,3.80682724 L23.2555556,3.85280508 L23.2479168,4.01406973 L23.1583332,3.88094059 L23.0034724,3.92485951 L23.1020832,3.79721989 L23.0138887,3.66271838 L23.1645835,3.71624465 L23.2645835,3.58929157 Z M21.2979168,3.693599 L21.2923612,3.85417746 L21.4423612,3.91044849 L21.2888889,3.95642632 L21.2812501,4.11769097 L21.1916665,3.98524803 L21.0368057,4.02848076 L21.1354165,3.90084114 L21.047222,3.76633962 L21.1979168,3.81986589 L21.2979168,3.693599 Z M22.70625,3.79378895 L22.7013888,3.95505359 L22.8506944,4.01132497 L22.6972224,4.05730246 L22.6895833,4.21856711 L22.6,4.08543797 L22.4458332,4.12935689 L22.54375,4.00171762 L22.45625,3.86721576 L22.60625,3.92074203 L22.70625,3.79378895 Z M19.3326389,3.79790643 L19.3277778,3.95848489 L19.4770834,4.01475592 L19.323611,4.06073341 L19.3159723,4.22199841 L19.226389,4.08955546 L19.0715278,4.13278819 L19.170139,4.00514857 L19.0826389,3.87064705 L19.2326389,3.92417332 L19.3326389,3.79790643 Z M20.7395833,3.89809638 L20.7347221,4.05867484 L20.8840277,4.11494586 L20.7305557,4.1609237 L20.7229166,4.32218835 L20.6333333,4.18974541 L20.4791666,4.23297814 L20.5770834,4.10533886 L20.4895833,3.970837 L20.6395833,4.02436327 L20.7395833,3.89809638 Z M18.7750002,4.00240381 L18.7694443,4.16298227 L18.9187499,4.2192533 L18.7659723,4.26523114 L18.7576388,4.42649578 L18.6680555,4.29405284 L18.5138887,4.33728557 L18.6118055,4.2096463 L18.5243054,4.07514443 L18.6743054,4.1286707 L18.7750002,4.00240381 Z M22.1506944,4.00377619 L22.1458332,4.16435465 L22.2951388,4.22062603 L22.1416668,4.26660351 L22.1340277,4.42786816 L22.0444444,4.29542522 L21.8902777,4.33865795 L21.9881945,4.21101868 L21.9006944,4.07651681 L22.0506944,4.13004308 L22.1506944,4.00377619 Z M20.1847221,4.10739743 L20.1791666,4.26797589 L20.3284722,4.32424692 L20.1750002,4.37022476 L20.1673611,4.53148941 L20.0777778,4.39904646 L19.923611,4.44227919 L20.0215278,4.31463992 L19.9340277,4.18013805 L20.0840277,4.23366432 L20.1847221,4.10739743 Z M21.5902777,4.20690119 L21.5847221,4.36816584 L21.7340277,4.42375103 L21.5805554,4.46972851 L21.5729166,4.63099316 L21.4833333,4.49855022 L21.3291666,4.54246914 L21.4270834,4.41414368 L21.3395833,4.27964181 L21.4895833,4.33316808 L21.5902777,4.20690119 Z M18.2180555,4.21101868 L18.2124999,4.37228332 L18.3618055,4.42786816 L18.2090279,4.473846 L18.2006944,4.63511065 L18.1111111,4.5026677 L17.9569444,4.54658662 L18.0548612,4.41826116 L17.9673611,4.2837593 L18.1173611,4.33797176 L18.2180555,4.21101868 Z M19.6249998,4.31120862 L19.6194446,4.47247362 L19.7694443,4.52805846 L19.6159723,4.57403595 L19.6076388,4.73530059 L19.5187499,4.60285765 L19.3638891,4.64677657 L19.4618055,4.51845111 L19.3743054,4.38394924 L19.5243054,4.43747551 L19.6249998,4.31120862 Z M23.0013888,4.312581 L22.9958332,4.47315981 L23.1451388,4.52943084 L22.9916665,4.57540832 L22.9840277,4.73667332 L22.8944444,4.60423038 L22.7402777,4.64746276 L22.8381945,4.51982349 L22.7506944,4.38532197 L22.9006944,4.43884789 L23.0013888,4.312581 Z M23.4520832,4.39973265 L29.2750002,6.51538954 L28.5340277,6.83105659 L23.2638891,4.91577995 L23.4520832,4.39973265 Z M21.0347221,4.41620224 L21.0291666,4.5767807 L21.1791666,4.63305208 L21.0256946,4.67902957 L21.0173611,4.84029422 L20.9277778,4.70785127 L20.773611,4.751084 L20.8715278,4.62344473 L20.7840277,4.48894286 L20.9340277,4.54246914 L21.0347221,4.41620224 Z M22.4430556,4.51707873 L22.4375001,4.67765719 L22.5875001,4.73392822 L22.4340277,4.77990605 L22.426389,4.9411707 L22.3368057,4.80872776 L22.1819445,4.85196049 L22.2805554,4.72432086 L22.1923612,4.58981935 L22.3430556,4.64334562 L22.4430556,4.51707873 Z M19.0694443,4.52050968 L19.0638891,4.68177468 L19.2138887,4.73735951 L19.0604167,4.783337 L19.0520832,4.944602 L18.9631943,4.8121587 L18.8083335,4.85607762 L18.90625,4.72775216 L18.8187499,4.59325065 L18.9687499,4.64746276 L19.0694443,4.52050968 Z M20.476389,4.62069962 L20.4708334,4.78196462 L20.6208334,4.83754946 L20.4673611,4.88352695 L20.4597223,5.04479195 L20.370139,4.912349 L20.2152779,4.95626792 L20.3138887,4.82794211 L20.2256946,4.69344059 L20.376389,4.74696686 L20.476389,4.62069962 Z M17.7180555,4.65501154 L22.6993056,6.46460803 L26.8395833,7.96951719 L27.2111111,8.68868984 L17.5284722,5.17037265 L17.7180555,4.65501154 Z M21.8875001,4.72637978 L21.8819445,4.88695824 L22.0319445,4.94322927 L21.8784722,4.98920711 L21.8708334,5.15047176 L21.7812501,5.01802881 L21.626389,5.06126154 L21.7249998,4.93362227 L21.6368057,4.79912041 L21.7875001,4.85264668 L21.8875001,4.72637978 Z M19.9208334,4.83000103 L19.9152779,4.99126568 L20.0652779,5.04685051 L19.9118055,5.092828 L19.9041668,5.254093 L19.8145835,5.12165005 L19.6597223,5.16556897 L19.7583332,5.03724316 L19.670139,4.90274165 L19.8208334,4.95695411 L19.9208334,4.83000103 Z M21.326389,4.92950478 L21.3215278,5.09076943 L21.4708334,5.14635427 L21.3173611,5.19233211 L21.3097223,5.35359676 L21.220139,5.22115381 L21.0659723,5.26507273 L21.1638891,5.13674692 L21.076389,5.00293159 L21.226389,5.05645786 L21.326389,4.92950478 Z M22.7375001,5.03518459 L22.7326389,5.19576305 L22.8819445,5.25203443 L22.7284722,5.29801192 L22.7208334,5.45927657 L22.6312501,5.32683362 L22.4770834,5.37006635 L22.5750002,5.24242708 L22.4875001,5.10792522 L22.6375001,5.16145149 L22.7375001,5.03518459 Z M20.7708334,5.13880584 L20.7659723,5.30007049 L20.9152779,5.35565532 L20.7618055,5.40163316 L20.7541668,5.56289781 L20.6645835,5.43045486 L20.5104167,5.47437378 L20.6083335,5.34604832 L20.5208334,5.21223265 L20.6708334,5.26575892 L20.7708334,5.13880584 Z M22.179861,5.23968197 L22.1743054,5.40026043 L22.3243054,5.45653181 L22.1708334,5.5025093 L22.1624999,5.66377395 L22.0729166,5.531331 L21.9187499,5.57524992 L22.0166667,5.44692446 L21.9291666,5.31242259 L22.0791666,5.36594886 L22.179861,5.23968197 Z M23.0756946,5.43182724 L27.79375,7.146724 L27.0534724,7.46239105 L22.8875001,5.94856073 L23.0756946,5.43182724 Z M21.6243054,5.44898303 L21.6187499,5.61024803 L21.7680555,5.66583286 L21.6145835,5.71181035 L21.6069444,5.87307535 L21.5173611,5.74063205 L21.3631943,5.78455097 L21.4611111,5.65622551 L21.373611,5.521724 L21.523611,5.57593611 L21.6243054,5.44898303 Z M17.3395833,5.68573341 L27.5826389,9.40923451 L27.9541668,10.1284068 L17.1493056,6.20246724 L17.3395833,5.68573341 Z M22.4743054,5.75778819 L22.4687499,5.91905284 L22.6187499,5.97463768 L22.4652779,6.02061551 L22.4569444,6.18188016 L22.3673611,6.04943722 L22.2131943,6.09335614 L22.3111111,5.96503032 L22.223611,5.831215 L22.373611,5.88474127 L22.4743054,5.75778819 Z M16.9604167,6.717828 L28.3249998,10.8482653 L28.6965276,11.5681238 L16.770139,7.2338753 L16.9604167,6.717828 Z" id="Shape"></path>
                    <ellipse id="Oval" transform="translate(19.199069, 0.737025) rotate(19.853738) translate(-19.199069, -0.737025) " cx="18.8760778" cy="0.413351728" rx="1" ry="1"></ellipse>
                    <path d="M13.1722222,0.479282946 L12.9590279,0.556827243 L13.0111111,0.698191351 L12.9402777,0.724268297 L12.9916665,0.864945865 L0.00138887111,5.62877619 L4.98541653,7.75335389 L2.4972224,12.5768865 L15.5305557,7.82952581 L17.326389,12.7566794 L17.6805554,12.6276677 L13.2944444,0.595256297 L13.223611,0.620647054 L13.1722222,0.479282946 Z M12.7270834,1.32129119 L12.8277778,1.44755773 L12.9777778,1.39403181 L12.8902777,1.52853332 L12.9881945,1.65617259 L12.8333333,1.61294022 L12.7444444,1.74538316 L12.7361109,1.58411816 L12.5826389,1.53814068 L12.7326389,1.48186965 L12.7270834,1.32129119 Z M11.8770834,1.630096 L11.9770834,1.75704908 L12.1277778,1.70283662 L12.0395833,1.83733849 L12.1381945,1.96566395 L11.9833333,1.92174503 L11.89375,2.05418797 L11.8861113,1.89292332 L11.7326389,1.84694549 L11.8826389,1.79067446 L11.8770834,1.630096 Z M12.4347221,1.83459338 L12.5354165,1.96154646 L12.6854165,1.90802019 L12.5979168,2.04183586 L12.6958332,2.17016132 L12.5416668,2.12624241 L12.4520832,2.25868535 L12.4444444,2.0974207 L12.2909721,2.05144286 L12.4402777,1.99585803 L12.4347221,1.83459338 Z M11.0256946,1.939587 L11.1256946,2.06654008 L11.2756946,2.01232762 L11.1881945,2.14682949 L11.2868057,2.27515495 L11.1319445,2.23123603 L11.0423612,2.36367897 L11.0347221,2.20241432 L10.8812501,2.15643684 L11.0305557,2.10016546 L11.0256946,1.939587 Z M12.9902777,2.04320824 L13.0909721,2.16947514 L13.2409721,2.11594886 L13.1534724,2.25045073 L13.2513888,2.37877619 L13.0965276,2.33485727 L13.0076388,2.46730022 L12.9993056,2.30603557 L12.8458332,2.26005773 L12.9958332,2.2037867 L12.9902777,2.04320824 Z M11.5847221,2.14339819 L11.6854165,2.27035127 L11.8354165,2.21682535 L11.7479168,2.35132686 L11.8458332,2.47896614 L11.6916665,2.43504722 L11.6020832,2.5681767 L11.59375,2.40622551 L11.4409721,2.36024803 L11.5902777,2.30466319 L11.5847221,2.14339819 Z M10.1756946,2.24839181 L10.2756946,2.37534524 L10.4256946,2.32181897 L10.3381945,2.4556343 L10.4361109,2.58396011 L10.2819445,2.54004119 L10.1923612,2.67317032 L10.1847221,2.51121914 L10.0312501,2.46524165 L10.1805554,2.40965681 L10.1756946,2.24839181 Z M12.1402777,2.35201305 L12.2402777,2.47896614 L12.3909721,2.42544022 L12.3027776,2.55925554 L12.4013888,2.687581 L12.2465276,2.64366208 L12.1569444,2.77679157 L12.1493056,2.61484038 L11.9958332,2.56886289 L12.1458332,2.51327805 L12.1402777,2.35201305 Z M10.7333333,2.45288954 L10.8340277,2.57984262 L10.9840277,2.52631635 L10.8965276,2.66081822 L10.9944444,2.78845749 L10.8395833,2.74453857 L10.7506944,2.8776677 L10.7423612,2.71571686 L10.5888889,2.66973903 L10.7388889,2.61415419 L10.7333333,2.45288954 Z M12.6979168,2.55651043 L12.7986112,2.68346386 L12.9486112,2.62993759 L12.8611111,2.76443911 L12.9590279,2.89207873 L12.8048612,2.84815981 L12.7152779,2.98128895 L12.7076388,2.81933776 L12.5541668,2.77336027 L12.7034724,2.71777543 L12.6979168,2.55651043 Z M9.32222222,2.55856935 L9.42291662,2.68552243 L9.57291662,2.63130997 L9.48541653,2.76581184 L9.58333333,2.8941373 L9.42847218,2.85021838 L9.33958329,2.98266132 L9.33125013,2.82139668 L9.17777778,2.77541884 L9.32777778,2.71914781 L9.32222222,2.55856935 Z M11.2888889,2.66150441 L11.3888889,2.78845749 L11.5388889,2.73493122 L11.4513888,2.86874654 L11.55,2.99707235 L11.3951388,2.95315343 L11.3055556,3.08628257 L11.2979168,2.92433173 L11.1444444,2.87835389 L11.29375,2.82276905 L11.2888889,2.66150441 Z M9.88333333,2.76169435 L9.98333333,2.88864743 L10.1340277,2.83512116 L10.0458332,2.96962303 L10.1444444,3.0972623 L9.98958329,3.05402957 L9.9,3.18647251 L9.89236124,3.02520786 L9.73888889,2.97923038 L9.88888889,2.922959 L9.88333333,2.76169435 Z M13.2534724,2.76581184 L13.3541668,2.89276492 L13.5041668,2.83923865 L13.4166667,2.97374016 L13.5145835,3.10137978 L13.3604167,3.05746086 L13.2708334,3.19059 L13.2631943,3.02932535 L13.1097223,2.98266132 L13.2590279,2.92707649 L13.2534724,2.76581184 Z M11.8479168,2.86531559 L11.9486112,2.99226868 L12.0986112,2.93874241 L12.0111111,3.07324427 L12.1090279,3.20088354 L11.9548612,3.15696462 L11.8652779,3.29009376 L11.8569444,3.12882911 L11.7041668,3.08285127 L11.8534724,3.02658024 L11.8479168,2.86531559 Z M8.47222222,2.86737416 L8.57222222,2.99432724 L8.72291662,2.94080097 L8.63472213,3.07461665 L8.73333333,3.20294211 L8.57847218,3.15902319 L8.48958329,3.29215232 L8.48125013,3.13020149 L8.32777778,3.084224 L8.47777778,3.02863881 L8.47222222,2.86737416 Z M10.4388889,2.97030922 L10.5388889,3.0972623 L10.6888889,3.04373603 L10.6013888,3.17823789 L10.6993056,3.30587716 L10.5451388,3.26195824 L10.4555556,3.39508738 L10.4479168,3.23382273 L10.2944444,3.18784524 L10.44375,3.13157386 L10.4388889,2.97030922 Z M9.03055573,3.07187154 L9.13055573,3.19882497 L9.28055538,3.1452987 L9.19305564,3.27980022 L9.29097209,3.40743984 L9.13680569,3.36352092 L9.04722204,3.49665005 L9.03958329,3.33469886 L8.88611129,3.28872138 L9.03541653,3.23313654 L9.03055573,3.07187154 Z M12.4034724,3.07461665 L12.5041668,3.20156973 L12.6541668,3.14804346 L12.5666667,3.28254532 L12.6645835,3.41018459 L12.5104167,3.36695186 L12.4208334,3.49939481 L12.4131943,3.33813016 L12.2597223,3.29215232 L12.4090279,3.2358813 L12.4034724,3.07461665 Z M10.9965276,3.17480659 L11.0972224,3.30175968 L11.247222,3.24823341 L11.1597223,3.38273527 L11.2576388,3.51037454 L11.1027776,3.46645562 L11.0138887,3.59958476 L11.0055556,3.43832011 L10.8520832,3.39234262 L11.0020832,3.33607124 L10.9965276,3.17480659 Z M12.9618055,3.27911403 L13.0618055,3.40606711 L13.2124999,3.35254119 L13.1243054,3.4870427 L13.2229166,3.61468197 L13.0680555,3.57144924 L12.9784722,3.70389254 L12.9708334,3.54262754 L12.8173611,3.49665005 L12.9673611,3.44037903 L12.9618055,3.27911403 Z M9.58541653,3.28048641 L9.68611129,3.40743984 L9.83611093,3.35391357 L9.7486112,3.48772889 L9.84652764,3.6160547 L9.69166649,3.57213578 L9.6027776,3.70526492 L9.59444444,3.54331373 L9.44097209,3.49733624 L9.59097209,3.44175141 L9.58541653,3.28048641 Z M8.17152782,3.36695186 L8.35972231,3.88299916 L1.98541653,6.19972214 L1.24444444,5.88405508 L8.17152782,3.36695186 Z M11.5520832,3.38410765 L11.6520832,3.51106073 L11.8027776,3.45753481 L11.7152779,3.59203632 L11.8131943,3.71967559 L11.6583332,3.67644286 L11.5694443,3.80888616 L11.5611111,3.64762116 L11.4076388,3.60164368 L11.5576388,3.54537265 L11.5520832,3.38410765 Z M10.1465276,3.48429795 L10.2465276,3.61056449 L10.3972224,3.55703857 L10.3090279,3.69154008 L10.4076388,3.81917935 L10.252778,3.77594697 L10.1631943,3.90838992 L10.1555556,3.74712492 L10.0020832,3.70114743 L10.1520832,3.64487641 L10.1465276,3.48429795 Z M13.5173611,3.48841508 L13.6173611,3.61536816 L13.7673611,3.56184224 L13.679861,3.69634376 L13.7784722,3.82398303 L13.623611,3.78006411 L13.5340277,3.91319359 L13.526389,3.75192859 L13.3729166,3.70595111 L13.5229166,3.64968008 L13.5173611,3.48841508 Z M12.1118055,3.58860503 L12.2118055,3.71487227 L12.3618055,3.661346 L12.2743054,3.79584751 L12.3729166,3.92348714 L12.2180555,3.88025441 L12.1284722,4.01269735 L12.1208334,3.85143235 L11.9673611,3.80545486 L12.1166667,3.74918384 L12.1118055,3.58860503 Z M8.73541653,3.58929157 L8.83541653,3.71624465 L8.98611129,3.66271838 L8.8979168,3.79721989 L8.99652764,3.92485951 L8.84166684,3.88094059 L8.75277796,4.01406973 L8.74444444,3.85280508 L8.59097209,3.80682724 L8.74097209,3.75055622 L8.73541653,3.58929157 Z M10.7020832,3.693599 L10.8020832,3.81986589 L10.952778,3.76633962 L10.8645835,3.90084114 L10.9631943,4.02848076 L10.8083335,3.98524803 L10.7187499,4.11769097 L10.7111111,3.95642632 L10.5576388,3.91044849 L10.7076388,3.85417746 L10.7020832,3.693599 Z M9.29375004,3.79378895 L9.39375004,3.92074203 L9.54375004,3.86721576 L9.45624996,4.00171762 L9.55416676,4.12935689 L9.4,4.08543797 L9.31041671,4.21856711 L9.3027776,4.05730246 L9.1493056,4.01132497 L9.2986112,3.95505359 L9.29375004,3.79378895 Z M12.6673611,3.79790643 L12.7673611,3.92417332 L12.9173611,3.87064705 L12.829861,4.00514857 L12.9284722,4.13278819 L12.773611,4.08955546 L12.6840277,4.22199841 L12.676389,4.06073341 L12.5229166,4.01475592 L12.6722222,3.95848489 L12.6673611,3.79790643 Z M11.2604167,3.89809638 L11.3604167,4.02436327 L11.5104167,3.970837 L11.4229166,4.10533886 L11.5208334,4.23297814 L11.3666667,4.18974541 L11.2770834,4.32218835 L11.2694443,4.1609237 L11.1159723,4.11494586 L11.2652779,4.05867484 L11.2604167,3.89809638 Z M13.2249998,4.00240381 L13.3256946,4.1286707 L13.4756946,4.07514443 L13.3881945,4.2096463 L13.4861113,4.33728557 L13.3319445,4.29405284 L13.2423612,4.42649578 L13.2340277,4.26523114 L13.0812501,4.2192533 L13.2305557,4.16298227 L13.2249998,4.00240381 Z M9.8493056,4.00377619 L9.9493056,4.13004308 L10.0993056,4.07651681 L10.0118055,4.21101868 L10.1097223,4.33865795 L9.95555556,4.29542522 L9.86597227,4.42786816 L9.85833316,4.26660351 L9.70486116,4.22062603 L9.85416676,4.16435465 L9.8493056,4.00377619 Z M11.8152779,4.10739743 L11.9159723,4.23366432 L12.0659723,4.18013805 L11.9784722,4.31463992 L12.076389,4.44227919 L11.9222222,4.39904646 L11.8326389,4.53148941 L11.8249998,4.37022476 L11.6715278,4.32424692 L11.8208334,4.26797589 L11.8152779,4.10739743 Z M10.4097223,4.20690119 L10.5104167,4.33316808 L10.6604167,4.27964181 L10.5729166,4.41414368 L10.6708334,4.54246914 L10.5166667,4.49855022 L10.4270834,4.63099316 L10.4194446,4.46972851 L10.2659723,4.42375103 L10.4152779,4.36816584 L10.4097223,4.20690119 Z M13.7819445,4.21101868 L13.8826389,4.33797176 L14.0326389,4.2837593 L13.9451388,4.41826116 L14.0430556,4.54658662 L13.8888889,4.5026677 L13.7993056,4.63511065 L13.7909721,4.473846 L13.6381945,4.42786816 L13.7875001,4.37228332 L13.7819445,4.21101868 Z M12.3750002,4.31120862 L12.4756946,4.43747551 L12.6256946,4.38394924 L12.5381945,4.51845111 L12.6361109,4.64677657 L12.4812501,4.60285765 L12.3923612,4.73530059 L12.3840277,4.57403595 L12.2305557,4.52805846 L12.3805554,4.47247362 L12.3750002,4.31120862 Z M8.9986112,4.312581 L9.0993056,4.43884789 L9.2493056,4.38532197 L9.16180551,4.51982349 L9.25972231,4.64746276 L9.10555556,4.60423038 L9.01597227,4.73667332 L9.00833351,4.57540832 L8.85486116,4.52943084 L9.00416676,4.47315981 L8.9986112,4.312581 Z M8.5479168,4.39973265 L8.73611093,4.91577995 L3.46597227,6.83105659 L2.72499982,6.51538954 L8.5479168,4.39973265 Z M10.9652779,4.41620224 L11.0659723,4.54246914 L11.2159723,4.48894286 L11.1284722,4.62344473 L11.226389,4.751084 L11.0722222,4.70785127 L10.9826389,4.84029422 L10.9743054,4.67902957 L10.8215278,4.63305208 L10.9708334,4.5767807 L10.9652779,4.41620224 Z M9.55694436,4.51707873 L9.65694436,4.64334562 L9.80763876,4.58981935 L9.71944462,4.72432086 L9.81805547,4.85196049 L9.66319431,4.80872776 L9.57361102,4.9411707 L9.56597227,4.77990605 L9.41249991,4.73392822 L9.56249991,4.67765719 L9.55694436,4.51707873 Z M12.9305557,4.52050968 L13.0312501,4.64746276 L13.1812501,4.59325065 L13.09375,4.72775216 L13.1916665,4.85607762 L13.0368057,4.8121587 L12.9479168,4.944602 L12.9395833,4.783337 L12.7861113,4.73735951 L12.9361109,4.68177468 L12.9305557,4.52050968 Z M11.523611,4.62069962 L11.623611,4.74696686 L11.7743054,4.69344059 L11.6861113,4.82794211 L11.7847221,4.95626792 L11.629861,4.912349 L11.5402777,5.04479195 L11.5326389,4.88352695 L11.3791666,4.83754946 L11.5291666,4.78196462 L11.523611,4.62069962 Z M14.2819445,4.65501154 L14.4715278,5.17037265 L4.78888889,8.68868984 L5.16041671,7.96951719 L9.3006944,6.46460803 L14.2819445,4.65501154 Z M10.1124999,4.72637978 L10.2124999,4.85264668 L10.3631943,4.79912041 L10.2750002,4.93362227 L10.373611,5.06126154 L10.2187499,5.01802881 L10.1291666,5.15047176 L10.1215278,4.98920711 L9.96805547,4.94322927 L10.1180555,4.88695824 L10.1124999,4.72637978 Z M12.0791666,4.83000103 L12.1791666,4.95695411 L12.329861,4.90274165 L12.2416668,5.03724316 L12.3402777,5.16556897 L12.1854165,5.12165005 L12.0958332,5.254093 L12.0881945,5.092828 L11.9347221,5.04685051 L12.0847221,4.99126568 L12.0791666,4.83000103 Z M10.673611,4.92950478 L10.773611,5.05645786 L10.923611,5.00293159 L10.8361109,5.13674692 L10.9340277,5.26507273 L10.779861,5.22115381 L10.6902777,5.35359676 L10.6826389,5.19233211 L10.5291666,5.14635427 L10.6784722,5.09076943 L10.673611,4.92950478 Z M9.26249991,5.03518459 L9.36249991,5.16145149 L9.51249991,5.10792522 L9.42499982,5.24242708 L9.52291662,5.37006635 L9.36874987,5.32683362 L9.27916658,5.45927657 L9.27152782,5.29801192 L9.11805547,5.25203443 L9.26736107,5.19576305 L9.26249991,5.03518459 Z M11.2291666,5.13880584 L11.3291666,5.26575892 L11.4791666,5.21223265 L11.3916665,5.34604832 L11.4895833,5.47437378 L11.3354165,5.43045486 L11.2458332,5.56289781 L11.2381945,5.40163316 L11.0847221,5.35565532 L11.2340277,5.30007049 L11.2291666,5.13880584 Z M9.82013902,5.23968197 L9.92083342,5.36594886 L10.0708334,5.31242259 L9.98333333,5.44692446 L10.0812501,5.57524992 L9.92708338,5.531331 L9.83750009,5.66377395 L9.82916658,5.5025093 L9.67569458,5.45653181 L9.82569458,5.40026043 L9.82013902,5.23968197 Z M8.92430542,5.43182724 L9.11249991,5.94856073 L4.94652764,7.46239105 L4.20624996,7.146724 L8.92430542,5.43182724 Z M10.3756946,5.44898303 L10.476389,5.57593611 L10.626389,5.521724 L10.5388889,5.65622551 L10.6368057,5.78455097 L10.4826389,5.74063205 L10.3930556,5.87307535 L10.3854165,5.71181035 L10.2319445,5.66583286 L10.3812501,5.61024803 L10.3756946,5.44898303 Z M14.6604167,5.68573341 L14.8506944,6.20246724 L4.04583324,10.1284068 L4.41736107,9.40923451 L14.6604167,5.68573341 Z M9.52569458,5.75778819 L9.62638898,5.88474127 L9.77638898,5.831215 L9.68888889,5.96503032 L9.78680569,6.09335614 L9.63263893,6.04943722 L9.54305564,6.18188016 L9.53472213,6.02061551 L9.38125013,5.97463768 L9.53125013,5.91905284 L9.52569458,5.75778819 Z M15.0395833,6.717828 L15.229861,7.2338753 L3.30347236,11.5681238 L3.67500018,10.8482653 L15.0395833,6.717828 Z" id="Shape"></path>
                    <ellipse id="Oval" transform="translate(12.800943, 0.737018) scale(-1, 1) rotate(19.853738) translate(-12.800943, -0.737018) " cx="12.4779517" cy="0.413344535" rx="1" ry="1"></ellipse>
                </g>
            </g>
        </g>
    </g>
</svg>