<svg version="1.1" id="Warstwa_1" xmlns="http://www.w3.org/2000/svg" xmlns:xlink="http://www.w3.org/1999/xlink" x="0px" y="0px" width="60px" height="60px" viewBox="0 0 60 60" style="enable-background:new 0 0 60 60;" xml:space="preserve">
<style type="text/css">
	.st0{fill:#FFFFFF;}
</style>
<g id="Welcome">
	<g id="Tablet---Step-3" transform="translate(-494.000000, -842.000000)">
		<g id="noun_944974_cc-copy-3" transform="translate(494.000000, 842.000000)">
			<path id="Shape" class="st0" d="M18.2,13.8H4.4c-0.5,0-0.9,0.4-0.9,0.9v19.2c0,0.3,0.1,0.5,0.3,0.7l6.5,5v1.4
				c-3.9,0.4-6.9,3.8-6.9,7.8c0,4.3,3.5,7.8,7.8,7.8S19,53,19,48.7c0-4-3-7.3-6.9-7.8v-1.4l6.5-5c0.2-0.2,0.3-0.4,0.3-0.7V14.7
				C19,14.2,18.6,13.8,18.2,13.8z M13.8,15.6V36l-2.6,2l-2.6-2V15.6H13.8z M5.2,15.6h1.7v19.2l-1.7-1.3V15.6z M17.3,48.7
				c0,3.4-2.7,6.1-6,6.1s-6-2.7-6-6.1c0-3.4,2.7-6.1,6-6.1S17.3,45.3,17.3,48.7z M17.3,33.4l-1.7,1.3V15.6h1.7V33.4z"/>
			<path id="Shape_1_" class="st0" d="M38.8,3.5H22.5c-0.5,0-0.9,0.4-0.9,0.9v19.5c0,0.3,0.2,0.6,0.4,0.7l7.7,5.1v2.8l-2.3,3.8h-4.9
				c-0.3,0-0.7,0.2-0.8,0.5c-0.2,0.3-0.1,0.7,0.1,0.9l3.2,3.9l-3.2,3.9c-0.2,0.3-0.3,0.6-0.1,0.9c0.2,0.3,0.5,0.5,0.8,0.5h4.9l2.5,4
				c0.2,0.3,0.5,0.4,0.8,0.4s0.6-0.2,0.8-0.4l2.5-4h4.9c0.3,0,0.7-0.2,0.8-0.5c0.2-0.3,0.1-0.7-0.1-0.9l-3.2-3.9l3.2-3.9
				c0.2-0.3,0.3-0.6,0.1-0.9c-0.2-0.3-0.5-0.5-0.8-0.5h-4.9l-2.3-3.8v-2.8l7.7-5.1c0.3-0.2,0.4-0.4,0.4-0.7V4.4
				C39.7,3.9,39.3,3.5,38.8,3.5z M34.3,5.3v20.5l-3.6,2.4L27,25.8V5.3H34.3z M23.4,5.3h1.8v19.3l-1.8-1.2V5.3z M33.4,38h3.5l-2.4,3
				c-0.3,0.3-0.3,0.8,0,1.1l2.4,3h-3.5c-0.3,0-0.6,0.2-0.8,0.4l-1.9,3.2l-1.9-3.2c-0.2-0.3-0.5-0.4-0.8-0.4h-3.5l2.4-3
				c0.3-0.3,0.3-0.8,0-1.1l-2.4-3h3.5c0.3,0,0.6-0.2,0.8-0.4l1.9-3.2l1.9,3.2C32.7,37.9,33,38,33.4,38z M37.9,23.4l-1.8,1.2V5.3h1.8
				V23.4z"/>
			<path id="Shape_2_" class="st0" d="M7.4,48.1c0,2.5,2,4.5,4.5,4.5s4.5-2,4.5-4.5s-2-4.5-4.5-4.5S7.4,45.6,7.4,48.1z M14.6,48.1
				c0,1.5-1.2,2.7-2.7,2.7s-2.7-1.2-2.7-2.7s1.2-2.7,2.7-2.7S14.6,46.6,14.6,48.1z"/>
			<path id="Shape_3_" class="st0" d="M56.2,34.6c0.2-0.2,0.3-0.4,0.3-0.7V14.7c0-0.5-0.4-0.9-0.9-0.9H41.8c-0.5,0-0.9,0.4-0.9,0.9
				v19.2c0,0.3,0.1,0.5,0.3,0.7l6.5,5v1.4C44,41.3,41,44.6,41,48.7c0,4.3,3.5,7.8,7.8,7.8s7.8-3.5,7.8-7.8c0-4-3-7.3-6.9-7.8v-1.4
				L56.2,34.6z M48.7,38l-2.6-2V15.6h5.2V36L48.7,38z M54.8,33.4l-1.7,1.3V15.6h1.7V33.4z M42.7,15.6h1.7v19.2l-1.7-1.3V15.6z
				 M54.8,48.7c0,3.4-2.7,6.1-6,6.1c-3.3,0-6-2.7-6-6.1c0-3.4,2.7-6.1,6-6.1C52.1,42.6,54.8,45.3,54.8,48.7z"/>
			<path id="Shape_4_" class="st0" d="M43.6,48.1c0,2.5,2,4.5,4.5,4.5s4.5-2,4.5-4.5s-2-4.5-4.5-4.5S43.6,45.6,43.6,48.1z
				 M50.8,48.1c0,1.5-1.2,2.7-2.7,2.7s-2.7-1.2-2.7-2.7s1.2-2.7,2.7-2.7S50.8,46.6,50.8,48.1z"/>
			<rect id="Rectangle-path" x="33.2" y="52.6" class="st0" width="2.6" height="2.6"/>
			<rect id="Rectangle-path_1_" x="29.4" y="52.6" class="st0" width="2.6" height="2.6"/>
			<rect id="Rectangle-path_2_" x="25.5" y="52.6" class="st0" width="2.6" height="2.6"/>
			<rect id="Rectangle-path_3_" x="29.4" y="7.4" class="st0" width="2.6" height="2.6"/>
			<rect id="Rectangle-path_4_" x="29.4" y="10" class="st0" width="2.6" height="2.6"/>
			<rect id="Rectangle-path_5_" x="29.4" y="13.8" class="st0" width="2.6" height="2.6"/>
			<rect id="Rectangle-path_6_" x="29.4" y="17.7" class="st0" width="2.6" height="2.6"/>
			<rect id="Rectangle-path_7_" x="29.4" y="21.6" class="st0" width="2.6" height="2.6"/>
			<rect id="Rectangle-path_8_" x="29.4" y="25.5" class="st0" width="2.6" height="2.6"/>
			<rect id="Rectangle-path_9_" x="51.3" y="8.7" class="st0" width="2.6" height="2.6"/>
			<rect id="Rectangle-path_10_" x="47.5" y="8.7" class="st0" width="2.6" height="2.6"/>
			<rect id="Rectangle-path_11_" x="43.6" y="8.7" class="st0" width="2.6" height="2.6"/>
			<rect id="Rectangle-path_12_" x="13.8" y="8.7" class="st0" width="2.6" height="2.6"/>
			<rect id="Rectangle-path_13_" x="10" y="8.7" class="st0" width="2.6" height="2.6"/>
			<rect id="Rectangle-path_14_" x="7.4" y="8.7" class="st0" width="2.6" height="2.6"/>
		</g>
	</g>
</g>
</svg>
