<svg version="1.1" id="Warstwa_1" xmlns="http://www.w3.org/2000/svg" xmlns:xlink="http://www.w3.org/1999/xlink" x="0px" y="0px" width="60px" height="60px" viewBox="0 0 60 60" style="enable-background:new 0 0 60 60;" xml:space="preserve">
<style type="text/css">
	.st0{fill:#FFFFFF;}
</style>
<g id="Welcome">
	<g id="Tablet---Step-3" transform="translate(-495.000000, -710.000000)">
		<g id="noun_740303_cc-copy-2" transform="translate(495.000000, 710.000000)">
			<g id="Group">
				<polygon id="Shape" class="st0" points="42.6,32.5 42.6,47.6 44.3,47.6 44.3,32.5 				"/>
				<polygon id="Shape_1_" class="st0" points="46.8,32.5 46.8,47.6 48.5,47.6 48.5,32.5 				"/>
				<path id="Shape_2_" class="st0" d="M43.4,46.8c-1.4,0-2.5,1.1-2.5,2.5v1.3h1.7v-1.3c0-0.5,0.4-0.8,0.8-0.8h4.2
					c0.5,0,0.8,0.4,0.8,0.8v1.3h1.7v-1.3c0-1.4-1.2-2.5-2.5-2.5H43.4z"/>
				<path id="Shape_3_" class="st0" d="M40.9,29.6v1.3c0,1.4,1.2,2.5,2.5,2.5h4.2c1.4,0,2.5-1.1,2.5-2.5v-1.3h-1.7v1.3
					c0,0.5-0.4,0.8-0.8,0.8h-4.2c-0.5,0-0.8-0.4-0.8-0.8v-1.3H40.9z"/>
				<polygon id="Shape_4_" class="st0" points="26.9,32.5 26.9,47.6 28.6,47.6 28.6,32.5 				"/>
				<polygon id="Shape_5_" class="st0" points="31.1,32.5 31.1,47.6 32.8,47.6 32.8,32.5 				"/>
				<path id="Shape_6_" class="st0" d="M27.7,46.8c-1.4,0-2.5,1.1-2.5,2.5v1.3h1.7v-1.3c0-0.5,0.4-0.8,0.8-0.8H32
					c0.5,0,0.8,0.4,0.8,0.8v1.3h1.7v-1.3c0-1.4-1.2-2.5-2.5-2.5H27.7z"/>
				<path id="Shape_7_" class="st0" d="M25.2,29.6v1.3c0,1.4,1.2,2.5,2.5,2.5H32c1.4,0,2.5-1.1,2.5-2.5v-1.3h-1.7v1.3
					c0,0.5-0.4,0.8-0.8,0.8h-4.2c-0.5,0-0.8-0.4-0.8-0.8v-1.3H25.2z"/>
				<path id="Shape_8_" class="st0" d="M4.4,54.7c-0.3,0-0.6,0.2-0.7,0.4c-0.2,0.3-0.2,0.6,0,0.8c0.2,0.3,0.4,0.4,0.7,0.4h51
					c0.3,0,0.6-0.2,0.7-0.4c0.2-0.3,0.2-0.6,0-0.8c-0.2-0.3-0.4-0.4-0.7-0.4H4.4L4.4,54.7z"/>
				<path id="Shape_9_" class="st0" d="M29.8,3.6c-0.5,0-0.8,0.4-0.8,0.8v10.9h1.7V5.2h7.6v3.4H32v1.7h7.2c0.5,0,0.8-0.4,0.8-0.8v-5
					c0-0.5-0.4-0.8-0.8-0.8H29.8L29.8,3.6z"/>
				<path id="Shape_10_" class="st0" d="M6.9,51.4c-0.3,0-0.6,0.2-0.7,0.4c-0.2,0.3-0.2,0.6,0,0.8c0.2,0.3,0.4,0.4,0.7,0.4h45.9
					c0.3,0,0.6-0.2,0.7-0.4c0.2-0.3,0.2-0.6,0-0.8c-0.2-0.3-0.4-0.4-0.7-0.4H6.9z"/>
				<polygon id="Shape_11_" class="st0" points="11.1,32.5 11.1,47.6 12.8,47.6 12.8,32.5 				"/>
				<polygon id="Shape_12_" class="st0" points="15.4,32.5 15.4,47.6 17.1,47.6 17.1,32.5 				"/>
				<path id="Shape_13_" class="st0" d="M12,46.8c-1.4,0-2.5,1.1-2.5,2.5v1.3h1.7v-1.3c0-0.5,0.4-0.8,0.8-0.8h4.2
					c0.5,0,0.8,0.4,0.8,0.8v1.3h1.7v-1.3c0-1.4-1.2-2.5-2.5-2.5H12z"/>
				<path id="Shape_14_" class="st0" d="M9.4,29.6v1.3c0,1.4,1.2,2.5,2.5,2.5h4.2c1.4,0,2.5-1.1,2.5-2.5v-1.3h-1.7v1.3
					c0,0.5-0.4,0.8-0.8,0.8H12c-0.5,0-0.8-0.4-0.8-0.8v-1.3H9.4z"/>
				<path id="Shape_15_" class="st0" d="M29.8,13.6c-0.1,0-0.2,0-0.3,0.1L5.7,24.6c-0.3,0.1-0.5,0.4-0.5,0.8v2.5
					c0,0.5,0.4,0.8,0.8,0.8h47.6c0.5,0,0.8-0.4,0.8-0.8v-2.5c0-0.3-0.2-0.6-0.5-0.8L30.2,13.7C30.1,13.7,29.9,13.6,29.8,13.6
					L29.8,13.6z M29.8,15.4l22.9,10.5v1.1H6.9v-1.1L29.8,15.4z"/>
				<path id="Shape_16_" class="st0" d="M29.8,18.7c-1.9,0-3.4,1.5-3.4,3.4c0,1.8,1.5,3.4,3.4,3.4s3.4-1.5,3.4-3.4
					C33.2,20.2,31.7,18.7,29.8,18.7z M29.8,20.3c0.9,0,1.7,0.7,1.7,1.7c0,0.9-0.8,1.7-1.7,1.7c-0.9,0-1.7-0.7-1.7-1.7
					C28.1,21.1,28.9,20.3,29.8,20.3z"/>
			</g>
		</g>
	</g>
</g>
</svg>
