<svg id="Layer_1" data-name="Layer 1" xmlns="http://www.w3.org/2000/svg" viewBox="0 0 209.15 148.15"><defs><style>.cls-1{fill:#642265;}</style></defs><title>Hat</title><path class="cls-1" d="M207,105.34a4.35,4.35,0,0,0-4,6.07l-22.17,9.5c-.4-.4-.83-.8-1.22-1.2a4.36,4.36,0,1,0-6.21,6.11l.7.69C185.18,119.48,196,114,207,114a4.36,4.36,0,1,1,0,8.71c-8.32,0-17.15,4.26-26.39,10,7.82,7.15,19.14,16.18,26.38,16.18,12.41,0,17.43-15.37,17.43-21.79C224.46,114.1,217.45,105.34,207,105.34Z" transform="translate(-15.3 -9.48)"/><path class="cls-1" d="M216,108,180.27,83.79c-38.65,2.14-110.22,28-133.67,41.9,9.39,9.67,33.82,31.94,59.84,31.94,21.49,0,39.34-12.09,56.59-23.77,15-10.18,29.25-19.8,44-19.8a4.27,4.27,0,0,0,1.77-.39l2.34,1.59A4.36,4.36,0,0,0,216,108Z" transform="translate(-15.3 -9.48)"/><path class="cls-1" d="M51,113.52c-10.85-30.37-12.1-54.19-3.71-70.76C53.22,31,63.75,23,79.42,18.37a4.36,4.36,0,1,1,2.48,8.36C73.44,29.23,61.45,34,55,46.7c-7.2,14.21-5.87,35.45,3.87,63.07C90.13,95.64,141.53,79,174.26,75.54L162.18,36.28A30.4,30.4,0,0,0,144.51,17a101.4,101.4,0,0,0-37.7-7.5C76.59,9.48,48,18.53,34,32.54c-12.93,12.94-18.7,28.67-18.7,51a155.22,155.22,0,0,0,4.51,36A4.35,4.35,0,0,0,24,122.77H35.58C38.78,120.11,44,117,51,113.52Z" transform="translate(-15.3 -9.48)"/></svg>