<svg version="1.1" id="Warstwa_1" xmlns="http://www.w3.org/2000/svg" xmlns:xlink="http://www.w3.org/1999/xlink" x="0px" y="0px" width="60px" height="60px" viewBox="0 0 60 60" style="enable-background:new 0 0 60 60;" xml:space="preserve">
<style type="text/css">
	.st0{fill:#FFFFFF;}
</style>
<g id="Welcome">
	<g id="Tablet---Step-3" transform="translate(-215.000000, -839.000000)">
		<g id="noun_975699_cc-copy-3" transform="translate(215.000000, 839.000000)">
			<path id="Shape" class="st0" d="M3.9,40.3h23.9c0.5,0,0.9-0.4,0.9-0.9v-30c0-0.5-0.4-0.9-0.9-0.9h-5.5V6.6c0-0.5-0.4-0.9-0.9-0.9
				h-1.8V3.9c0-0.5-0.4-0.9-0.9-0.9h-5.5c-0.5,0-0.9,0.4-0.9,0.9v1.8h-1.8c-0.5,0-0.9,0.4-0.9,0.9v1.8H3.9C3.4,8.5,3,8.9,3,9.4v30
				C3,39.9,3.4,40.3,3.9,40.3z M11.3,7.5h1.8c0.5,0,0.9-0.4,0.9-0.9V4.8h3.7v1.8c0,0.5,0.4,0.9,0.9,0.9h1.8v1.8v2.7h-9.2V9.4V7.5z
				 M4.8,10.3h4.6V13c0,0.5,0.4,0.9,0.9,0.9h11c0.5,0,0.9-0.4,0.9-0.9v-2.7h4.6v28.2h-22V10.3z"/>
			<path id="Shape_1_" class="st0" d="M52.5,43.7L57,25.6c0.1-0.3,0-0.6-0.2-0.8c-0.2-0.2-0.4-0.3-0.7-0.3h-2.7v-0.9h-1.8v3.6h1.8
				v-0.9H55l-4,16.3H38l-4-16.3h1.5v0.9h1.8v-3.6h-1.8v0.9h-2.7c-0.3,0-0.5,0.1-0.7,0.3c-0.2,0.2-0.2,0.5-0.2,0.8l4.5,18.1
				c0.1,0.4,0.5,0.7,0.9,0.7h6.3v10.8H16.6v-1c3-0.4,5.4-3.1,5.4-6.3c0-3.5-2.8-6.3-6.3-6.3S9.4,44.5,9.4,48c0,3.2,2.3,5.8,5.4,6.3
				v1.9c0,0.5,0.4,0.9,0.9,0.9h28.7c0.5,0,0.9-0.4,0.9-0.9V44.4h6.3C52,44.4,52.4,44.1,52.5,43.7z M11.2,48c0-2.5,2-4.5,4.5-4.5
				s4.5,2,4.5,4.5c0,2.5-2,4.5-4.5,4.5S11.2,50.5,11.2,48z"/>
			<path id="Shape_2_" class="st0" d="M18.4,48c0-1.4-1.2-2.6-2.6-2.6s-2.6,1.2-2.6,2.6s1.2,2.6,2.6,2.6S18.4,49.4,18.4,48z M15,48
				c0-0.5,0.4-0.9,0.9-0.9c0.5,0,0.9,0.4,0.9,0.9s-0.4,0.9-0.9,0.9C15.4,48.9,15,48.5,15,48z"/>
			<path id="Shape_3_" class="st0" d="M21.4,24.9H9c-0.5,0-0.9,0.4-0.9,0.9v9.8c0,0.5,0.4,0.9,0.9,0.9h12.4c0.5,0,0.9-0.4,0.9-0.9
				v-9.8C22.3,25.3,21.9,24.9,21.4,24.9z M20.5,34.6H9.9v-8h10.6V34.6z"/>
			<path id="Shape_4_" class="st0" d="M14.3,32.6c0.2,0,0.4-0.1,0.6-0.3l3.5-3.6l-1.2-1.3l-2.9,3l-1.1-1.2L12,30.5l1.7,1.8
				C13.9,32.5,14.1,32.6,14.3,32.6z"/>
			<path id="Shape_5_" class="st0" d="M17.1,19.2l-0.9,1.5l-2-4.3c-0.1-0.3-0.4-0.5-0.7-0.5c-0.3,0-0.6,0.1-0.8,0.4l-1.5,2.5H8.1
				v1.9h3.5c0.3,0,0.6-0.2,0.7-0.4l0.9-1.5l2,4.3c0.1,0.3,0.4,0.5,0.7,0.5c0,0,0,0,0.1,0c0.3,0,0.6-0.2,0.7-0.4l1.5-2.5h3.9v-1.9
				h-4.4C17.6,18.8,17.3,18.9,17.1,19.2z"/>
			<path id="Shape_6_" class="st0" d="M39.9,14.6h1.7v1.7c0,0.5,0.4,0.9,0.9,0.9h3.4c0.5,0,0.9-0.4,0.9-0.9v-1.7h1.7
				c0.5,0,0.9-0.4,0.9-0.9v-3.4c0-0.5-0.4-0.9-0.9-0.9h-1.7V7.7c0-0.5-0.4-0.9-0.9-0.9h-3.4c-0.5,0-0.9,0.4-0.9,0.9v1.7h-1.7
				c-0.5,0-0.9,0.4-0.9,0.9v3.4C39,14.2,39.4,14.6,39.9,14.6z M40.7,11.1h1.7c0.5,0,0.9-0.4,0.9-0.9V8.6H45v1.7
				c0,0.5,0.4,0.9,0.9,0.9h1.7v1.7h-1.7c-0.5,0-0.9,0.4-0.9,0.9v1.7h-1.7v-1.7c0-0.5-0.4-0.9-0.9-0.9h-1.7V11.1z"/>
			<path id="Shape_7_" class="st0" d="M43.5,22.3c5.3,0,9.6-4.3,9.6-9.6S48.8,3,43.5,3s-9.6,4.3-9.6,9.6S38.2,22.3,43.5,22.3z
				 M43.5,4.8c4.3,0,7.9,3.5,7.9,7.9s-3.5,7.9-7.9,7.9s-7.9-3.5-7.9-7.9S39.2,4.8,43.5,4.8z"/>
		</g>
	</g>
</g>
</svg>
