<?xml version="1.0" encoding="UTF-8"?>
<svg width="60px" height="58px" viewBox="0 0 60 58" version="1.1" xmlns="http://www.w3.org/2000/svg" xmlns:xlink="http://www.w3.org/1999/xlink">
    <!-- Generator: Sketch 46.2 (44496) - http://www.bohemiancoding.com/sketch -->
    <title>noun_789269_cc copy 5</title>
    <desc>Created with Sketch.</desc>
    <defs></defs>
    <g id="Welcome" stroke="none" stroke-width="1" fill="none" fill-rule="evenodd">
        <g id="Tablet---Step-2" transform="translate(-495.000000, -626.000000)" fill-rule="nonzero" fill="#FFFFFF">
            <g id="noun_789269_cc-copy-5" transform="translate(495.000000, 626.000000)">
                <path d="M58.3386061,49.0524548 C58.0152707,48.0906222 57.5774337,47.1708986 57.0344667,46.3129698 C56.217712,45.0866417 55.2033614,44.0032292 54.0323758,43.1064821 C53.0308734,42.3544686 51.952755,41.7096218 50.8158364,41.1825979 C48.6408848,40.0680313 48.2987576,40.1626498 45.5621697,38.8311813 C44.349638,38.2715976 43.1921281,37.6004501 42.1046909,36.8264656 C41.4078064,36.3538608 40.7711561,35.7985334 40.2087576,35.1727104 C39.7797333,34.682979 39.7508909,34.5420692 38.9645515,33.5780125 C38.5902121,33.1190935 38.2858848,32.7459783 37.8980909,32.3377006 C37.2631924,31.718539 36.5792157,31.1514529 35.8528182,30.6419619 C35.8528182,30.6419619 35.5595879,31.5642888 35.4241212,32.0825127 C35.3583515,32.3347463 35.2763515,32.6485625 35.1628606,33.0221429 C34.9239572,33.8915742 34.5876633,34.7314428 34.1603273,35.5258942 C33.773709,36.1421233 33.3254521,36.7177162 32.8224242,37.2438542 C32.4927273,37.6226304 31.9425879,38.2226042 30.6009758,39.5142038 C29.5155939,40.5592429 28.9707879,41.0836354 28.6112364,41.371249 C27.691162,42.1009493 26.6830564,42.7129371 25.6104424,43.1929323 C24.8357244,42.7498062 24.1120707,42.2233527 23.4524485,41.6230052 C22.6463382,40.8692231 21.9312007,40.0242591 21.3215394,39.1052494 C21.1617758,38.8768019 21.1109697,38.7920373 20.9996545,38.6063346 C20.8841091,38.4134604 20.7004667,38.107015 20.2675758,37.4282096 C20.2487928,37.363338 20.211657,37.3052356 20.1606121,37.2608554 C20.1300303,37.2131263 20.098697,37.164225 20.0658667,37.1131125 C19.9601879,36.9485375 19.8669818,36.8043833 19.7840485,36.6759013 C19.5090379,36.2838093 19.2657107,35.8705561 19.0563636,35.4400421 C18.7678949,34.8038243 18.5840598,34.1254576 18.5119152,33.4309825 C18.490625,33.2373647 18.3162863,33.0973616 18.1219816,33.1178455 C17.927677,33.1383294 17.7865701,33.3115871 17.8063758,33.5053615 C17.886489,34.2752455 18.0904453,35.0272457 18.4104121,35.7324829 C18.4980336,35.9257382 18.5965985,36.1138747 18.7056303,36.2959831 C17.5075333,36.7454831 16.5074909,37.0642958 15.7986303,37.276455 C14.6981697,37.6058165 14.3847333,37.6526696 13.5141515,37.9445183 C12.5795435,38.2511787 11.6677419,38.6230232 10.785503,39.0572967 C9.54143371,39.655639 8.37521511,40.4030092 7.31267879,41.2828533 C6.36739859,42.0277065 5.5322954,42.9018185 4.83207273,43.8793321 C4.21936925,44.7913086 3.71961965,45.7738451 3.34372121,46.8055167 C2.68349389,48.5206696 2.15822582,50.2844628 1.77267879,52.0809067 C1.40675152,53.5987365 0.964345455,55.5062235 0.491042424,57.7272248 L14.1396788,57.6518067 C14.3106303,56.627279 14.5608364,54.8180173 14.909897,53.1643406 C15.218297,51.7033025 15.4483394,50.6134463 15.8578606,49.1480763 C16.4771758,46.9320292 17.1120303,45.2702446 17.2798182,44.8364952 C17.7584727,43.599029 17.9864848,43.1502238 18.3820242,42.1872244 C18.3693212,42.4151362 18.3628303,42.6430601 18.3625515,42.870996 C18.3600063,44.5593866 18.6924254,46.2316116 19.3406788,47.7914381 C19.3878471,47.905458 19.4912035,47.9867391 19.6134188,48.0059253 C19.7356342,48.0251115 19.8590472,47.9794302 19.9390848,47.88538 C20.6585538,47.0405825 21.4592394,46.268011 22.3296909,45.578714 C22.4522632,46.798289 22.3416953,48.0299735 22.0038485,49.2084748 C21.8004788,49.4724594 21.4915091,49.8864223 21.1389576,50.4155394 C20.8022909,50.9208221 20.7487697,51.055074 20.3173152,51.7088125 C19.7602788,52.5528333 19.6897333,52.6079092 19.4524242,53.0020917 C19.1529832,53.5134456 18.8927741,54.0466475 18.6740242,54.597134 C18.3528606,55.3489469 17.9366424,56.3517246 17.4631818,57.571676 L24.7282485,57.571676 C24.7660606,57.3161135 24.8160182,56.944261 24.8579879,56.4939454 C24.9328121,55.6911288 24.9159394,55.3504331 24.9444788,54.3384781 C24.9981515,52.4349 25.0997576,52.1544156 24.9444788,51.363936 C24.8661639,50.9659628 24.7503307,50.5762497 24.5985212,50.1999848 C24.8256913,48.922287 25.4577784,47.7508441 26.4019879,46.8576321 C26.5640398,46.709865 26.7348876,46.5719793 26.9136,46.4447265 C27.4704803,47.1432557 28.0962071,47.7843708 28.7813939,48.3584546 C28.8452682,48.4119656 28.9260321,48.4412974 29.0094667,48.4412858 C29.0264688,48.4412782 29.0434489,48.4400669 29.0602788,48.4376608 C29.1603032,48.4231859 29.2493899,48.3668791 29.3051879,48.2828673 C29.7208606,47.6572467 30.134497,47.0271975 30.5436606,46.397976 L29.6626242,48.9343342 C29.4500546,50.0129753 29.1730709,51.0780022 28.8331515,52.12373 C28.5442303,53.0113596 28.2613697,53.7119392 27.7074364,55.0768967 C27.225097,56.2654315 27.0010848,56.7955394 26.6683091,57.5568498 C37.5896727,57.4387231 48.9635152,57.702611 59.8848788,57.5844844 C59.6193567,54.7010564 59.1019705,51.8462211 58.3386061,49.0524548 L58.3386061,49.0524548 Z M19.7885879,46.9843923 C19.3121935,45.6653264 19.0697013,44.2736775 19.0719636,42.8717271 C19.0765874,41.3022263 19.38375,39.7482365 19.9767394,38.2943067 C20.1932485,38.6397752 20.3091273,38.8331629 20.3905636,38.96904 C20.5070242,39.1633158 20.5654667,39.2608525 20.7395152,39.5097329 C21.3783234,40.471863 22.1279714,41.3560991 22.9731394,42.1443708 C23.4445134,42.5739287 23.9475046,42.9676823 24.4778909,43.3223267 C22.7177646,44.2690714 21.13204,45.5074296 19.7885879,46.9843983 L19.7885879,46.9843923 Z M30.8891939,44.5547783 C30.2534545,45.5494542 29.5975758,46.5575485 28.9363636,47.5565865 C27.7398902,46.4906243 26.7582861,45.2070072 26.0441394,43.7745031 C27.1187323,43.2800093 28.1296906,42.6583327 29.0551879,41.9228954 C29.4401758,41.615 29.9928606,41.0828802 31.0971333,40.019849 C32.4554,38.7120698 33.0189879,38.0969979 33.3582485,37.7073588 C33.4819697,37.5652225 33.5944364,37.4359429 33.698703,37.3151458 L31.5398545,43.5300996 C31.3422485,43.8435594 31.1265818,44.1833608 30.8891697,44.5547663 L30.8891939,44.5547783 Z" id="Shape"></path>
                <path d="M37.633903,21.8919792 C37.7377082,22.0575956 37.8036881,22.2439518 37.8271636,22.4378317 C37.8327691,22.7451134 37.7780602,23.0505239 37.6661152,23.33688 C37.6194485,23.5109706 37.550497,23.7759883 37.4728606,24.1074946 L37.9237697,23.7542987 C37.9779697,23.5397712 38.0433152,23.2797923 38.1170303,22.9836842 C38.2094315,22.7263608 38.2531189,22.4541757 38.2458727,22.1809581 C38.2110364,21.8639035 38.0467758,21.5006665 37.8915636,21.5066719 C37.8577636,21.507995 37.7476364,21.5297813 37.633903,21.8919792 Z" id="Shape"></path>
                <path d="M24.5719697,31.0889908 C24.2638,31.0926158 24.3065152,30.9167731 23.6642061,30.7281221 C23.4389201,30.6614149 23.2103739,30.606183 22.9794545,30.5626408 C22.7738606,30.5236721 22.6934303,30.5172075 22.4994121,30.46798 C22.4702,30.4605669 22.3488909,30.4306969 22.1869394,30.3769985 C21.9924788,30.3125219 21.8374424,30.2508183 21.7006909,30.1964856 C21.5239791,30.1232242 21.3407484,30.0666892 21.1534182,30.0276271 C21.0580617,30.0052514 20.9607283,29.9922819 20.8628242,29.988906 C20.7791498,29.9866 20.695432,29.99151 20.6126061,30.0035813 C20.2894061,30.0503558 20.1079697,30.1866438 20.0882364,30.1569127 C20.0696364,30.1289096 20.2142364,29.9829792 20.3857333,29.8815275 C20.5020514,29.8146565 20.6283213,29.766702 20.7597879,29.7394698 C20.9194279,29.7049883 21.0840618,29.7000162 21.245503,29.7248006 C21.4267914,29.7746828 21.6039428,29.838453 21.7753758,29.9155421 C21.8910121,29.9546377 22.0045576,29.9856254 22.2316545,30.0476008 C22.3401879,30.077205 22.4959273,30.1195752 22.6879333,30.1649783 C22.8676909,30.2074875 22.9302061,30.21742 23.2472424,30.2823619 C23.6394121,30.362716 23.835497,30.4028508 23.9344788,30.432304 C24.1479347,30.4962 24.3543926,30.5813641 24.5507273,30.6865071 C24.7273178,30.5814002 24.921806,30.509591 25.1244727,30.4746681 C25.3569665,30.4447833 25.5918389,30.4376887 25.8257212,30.453486 C25.9421405,30.4604135 26.0588563,30.4608774 26.1753273,30.4548756 C26.2882424,30.4484594 26.3868788,30.4358685 26.4667333,30.4260085 C26.5491576,30.4158283 26.6409273,30.4023554 26.7554424,30.38243 C27.0074272,30.3389685 27.2567667,30.281444 27.5022848,30.2101277 C27.6435984,30.1663167 27.7881864,30.1337903 27.9346788,30.1128569 C28.0409484,30.1004449 28.1480487,30.096592 28.2549394,30.1013354 C28.5288209,30.0950318 28.7989553,30.1656786 29.0344606,30.3051994 C29.2040485,30.4173508 29.3317697,30.5729177 29.3107091,30.6017667 C29.2897636,30.6304646 29.1447333,30.502049 28.8644606,30.4322979 C28.6602153,30.3914129 28.4517673,30.3752453 28.2436364,30.3841458 C28.1547804,30.381207 28.0658268,30.3839414 27.9773212,30.3923323 C27.8423536,30.4115784 27.7091752,30.4417104 27.579097,30.4824317 C27.3244013,30.5564782 27.0657175,30.6161399 26.8042788,30.6611321 C26.6041401,30.6964837 26.4023343,30.7217118 26.1996364,30.7367194 C26.1189879,30.743625 26.0338121,30.7509173 25.9306788,30.7618165 C25.6782061,30.7885025 25.4497818,30.8214477 25.3668,30.8359719 C24.8469455,30.9269231 24.8652909,31.0855833 24.5719697,31.0889908 Z" id="Shape"></path>
                <path d="M30.5027515,30.4358625 C30.4328019,30.2418944 30.3204365,30.0658709 30.1738,29.9205506 C30.1738,29.9205506 29.7318,29.3742571 29.4898545,29.386129 C29.4714364,29.3870292 29.4122788,29.3899352 29.4061212,29.4130023 C29.4052856,29.4220394 29.4085364,29.4309772 29.4149879,29.4373804 C29.7315281,29.7752645 30.0024232,30.152932 30.2207939,30.5607921 C30.3865394,31.0727992 29.7112061,31.656835 29.8080667,31.7319088 C29.862697,31.7742488 30.0826121,31.5924188 30.2051333,31.4508746 C30.3133268,31.3231549 30.3933789,31.1741887 30.440097,31.0136392 C30.5140573,30.8304985 30.5357421,30.6305286 30.5027515,30.4358625 L30.5027515,30.4358625 Z" id="Shape"></path>
                <path d="M20.7964182,26.186849 C20.6862797,26.5203202 20.5394074,26.8405965 20.3584909,27.1418129 C20.1517937,27.4268027 19.9006698,27.6769746 19.6146485,27.8828354 C19.414974,28.0358036 19.2022161,28.1710053 18.9788242,28.286884 C18.6621185,28.4558662 18.3267208,28.5874446 17.9794303,28.6789519 C17.9478424,28.6871444 17.9217091,28.6935365 17.9043394,28.6977173 C18.1127078,28.7385032 18.3259759,28.7483913 18.5372424,28.7270617 C18.7983205,28.6974064 19.0525139,28.62408 19.2891333,28.5101658 C19.5689966,28.3984623 19.8262946,28.2372372 20.0486121,28.0342698 C20.3090277,27.7868959 20.5094055,27.4835625 20.634497,27.1473531 C20.7758534,26.8480599 20.8318718,26.5157627 20.7964182,26.186849 L20.7964182,26.186849 Z" id="Shape"></path>
                <path d="M31.0328788,28.8471035 C30.7496667,28.7737517 30.6056727,28.7362873 30.4888,28.6977173 C30.2702443,28.6289686 30.058406,28.5405681 29.855897,28.4336058 C29.7023649,28.3510657 29.5548183,28.2579111 29.4143394,28.1548252 C29.2824421,28.0636138 29.1592658,27.9604685 29.0463758,27.8467002 C28.922636,27.7086314 28.8094752,27.5614916 28.7078485,27.4065225 C28.4578667,27.0558642 28.4132667,26.9736371 28.3987576,26.981014 C28.4921104,27.2997795 28.6256447,27.605454 28.7961636,27.8907198 C28.9343383,28.168592 29.1422149,28.406144 29.3996242,28.5803277 C29.684933,28.7688921 30.0052255,28.8986043 30.3416182,28.9618167 C30.7457075,29.0723293 31.170516,29.0844507 31.5802848,28.9971604 C31.5817152,28.9795127 31.5085636,28.9703052 31.0328788,28.8471035 Z" id="Shape"></path>
                <path d="M27.4263091,31.1993781 C27.4493879,31.179205 27.6119091,31.0371715 27.5915697,31.0071746 C27.3641049,31.0806547 27.1430223,31.1724835 26.9305152,31.2817502 C26.6680215,31.3797638 26.3955483,31.448821 26.1179697,31.4876865 C25.6511193,31.5618119 25.1761598,31.5704446 24.7069091,31.5133333 C24.4148719,31.497901 24.125723,31.4478042 23.8455879,31.3641042 C23.688134,31.3113169 23.527036,31.2700198 23.3635697,31.24054 C23.2267697,31.2155456 23.0568182,31.1844975 23.0468121,31.2130806 C23.3127008,31.4165298 23.6158891,31.5662536 23.9393515,31.6538444 C24.645979,31.88839 25.4014386,31.9368041 26.1323758,31.7943856 C26.6058765,31.7041103 27.0500727,31.4998494 27.4263091,31.1993781 Z" id="Shape"></path>
                <path d="M19.7518121,29.5631619 C19.7122909,29.5276731 19.5064,29.6412263 19.3731697,29.8157035 C19.1820004,30.1452929 19.150514,30.5433606 19.287503,30.8987448 C19.3048242,30.9589198 19.3499697,31.1157735 19.3868606,31.1117196 C19.3953432,30.7123838 19.461966,30.3163935 19.5846424,29.9361502 C19.6758364,29.7366906 19.7873818,29.5951042 19.7518121,29.5631619 Z" id="Shape"></path>
                <path d="M26.175703,26.0671092 C25.9711977,25.9392056 25.7116641,25.9378176 25.5057939,26.0635265 C25.3898746,26.1635667 25.2648576,26.252623 25.1323636,26.329541 C25.0825394,26.3546442 25.0401636,26.3722375 25.0123636,26.3831185 C24.749447,26.5322365 24.4675653,26.645342 24.1743333,26.7193796 C24.0278499,26.7637706 23.8719814,26.7674057 23.7235758,26.7298921 C23.6380523,26.7032007 23.5574927,26.6627232 23.485097,26.6100677 C23.2724727,26.4685417 23.2616242,26.3706304 23.0934848,26.2352971 C22.9519707,26.1239621 22.7852401,26.0488998 22.6078848,26.0166794 C22.4617758,25.9871175 22.1346242,25.9508252 22.0752909,26.0791442 C22.0393879,26.1568098 22.1169697,26.2614273 22.1294364,26.2782352 C22.2223163,26.3745973 22.3486703,26.4318687 22.4825697,26.4382971 C22.6164987,26.465533 22.7533106,26.4760236 22.8898424,26.4695265 C23.0324493,26.5822604 23.1820007,26.6859774 23.3376182,26.7800681 C23.516433,26.9115089 23.7217406,27.0026848 23.9393576,27.0472971 C24.0748155,27.0689893 24.2132443,27.063681 24.3466303,27.0316794 C24.4909784,26.9897489 24.628246,26.9265914 24.753903,26.844291 C24.8637515,26.7813671 24.9505394,26.723065 25.0086182,26.6821085 C25.1217281,26.70533 25.2384795,26.7045065 25.3512485,26.6796919 C25.4744161,26.6400911 25.594195,26.5906948 25.7094303,26.5319792 C25.8004765,26.4884157 25.8947385,26.4518733 25.9913879,26.4226733 C26.1952545,26.3809435 26.2971818,26.4457827 26.3360061,26.391444 C26.3811576,26.3282663 26.3014,26.1593715 26.175703,26.0671092 Z" id="Shape"></path>
                <path d="M15.0549758,20.6397471 C15.0886172,20.8524202 15.1101245,21.0668252 15.1193939,21.2819279 C15.1352364,21.6470077 14.9298182,21.866006 15.1193939,22.1809763 C15.182679,22.410778 15.2044908,22.6499631 15.1838121,22.887374 L15.2160242,23.2405758 L14.9583455,22.8231571 C14.8259333,22.6306934 14.7379324,22.4113797 14.7006667,22.1809763 C14.7006667,21.7578542 14.6643394,21.3809206 14.7006667,21.5387954 L15.0549758,20.6397471 Z" id="Shape"></path>
                <path d="M27.0254545,24.5282363 C26.9007152,24.3261304 26.6983333,24.065801 26.6590909,24.08885 C26.6004485,24.1232875 26.9317879,24.7754431 27.0154545,25.3371731 C27.0425169,25.4996533 27.034166,25.6660376 26.9909697,25.8250135 C26.9688774,25.9023993 26.9383563,25.9771426 26.8999515,26.0479088 C26.7671188,26.2841429 26.6168032,26.5101759 26.4502545,26.7241283 C26.4433697,26.7317288 26.429697,26.7487058 26.4349455,26.7599675 C26.4496727,26.7915654 26.6077333,26.7626621 26.724903,26.7053871 C26.8340961,26.6453345 26.926944,26.5596328 26.9953939,26.4557152 C27.1030486,26.3280057 27.1877778,26.1827269 27.2458485,26.0262796 C27.302113,25.8659007 27.3292526,25.6968087 27.3259939,25.5269358 C27.3256228,25.3349315 27.2945249,25.1442158 27.2338727,24.9619796 C27.1827805,24.8093144 27.1127662,24.6636062 27.0254545,24.5282363 Z" id="Shape"></path>
                <path d="M22.2267879,23.5798154 C22.2303697,23.5741665 22.2400121,23.5592738 22.2353636,23.5535825 C22.2187515,23.5331979 22.0292727,23.6415733 21.8961273,23.7592469 C21.7602756,23.8840824 21.6541627,24.037636 21.5855636,24.2086563 C21.5020419,24.3980285 21.4544858,24.6012035 21.4453091,24.8078688 C21.4328704,25.0208262 21.4548622,25.234392 21.5104424,25.440389 C21.5496912,25.6517628 21.6415757,25.8499214 21.7776606,26.0166733 C21.8083273,26.0515579 21.8884424,26.1426844 21.9186424,26.1259852 C21.9624182,26.1017702 21.8410121,25.8853456 21.7776606,25.5169852 C21.7417457,25.3260235 21.7343932,25.1308129 21.7558424,24.9377042 C21.7700942,24.8323833 21.7931007,24.7284251 21.8246242,24.6269027 C21.9280639,24.2669409 22.0626225,23.9165993 22.2267879,23.5798154 L22.2267879,23.5798154 Z" id="Shape"></path>
                <path d="M19.4970667,21.2244354 C19.4609879,21.2228404 19.3887636,21.2191792 19.2966606,21.210165 C19.2245294,21.2054259 19.1527962,21.1958911 19.0819394,21.1816242 C18.9771158,21.1556944 18.8793465,21.1069636 18.7956424,21.038926 C19.176312,21.0830118 19.5613556,21.0724706 19.9390242,21.0076242 C20.2544453,20.9665703 20.5602511,20.8709198 20.8426606,20.7249829 C21.1174352,20.5762422 21.3611805,20.3765495 21.5607939,20.1366394 L21.4152545,20.4681215 C21.2764749,20.6485121 21.1068718,20.8030929 20.9142364,20.9247627 C20.6299232,21.0915591 20.3122421,21.1938724 19.9837758,21.2244294 C19.7987879,21.2373585 19.5133333,21.2251544 19.4970667,21.2244354 Z" id="Shape"></path>
                <path d="M30.0757576,21.79524 C29.9181553,21.8017647 29.7602865,21.7969956 29.6033697,21.7809696 C29.3208598,21.758109 29.0446279,21.6856439 28.7874242,21.5669194 C28.6261695,21.4941659 28.4766232,21.3979866 28.3436606,21.2815171 C28.2473671,21.1962563 28.1609411,21.1005272 28.0859939,20.9961148 C28.3291605,21.1520873 28.5892235,21.2801772 28.8612364,21.3779481 C29.1207893,21.4747432 29.3910772,21.5400715 29.6662788,21.572526 C30.2955694,21.6258735 30.9290799,21.546681 31.5256727,21.340091 C31.3564169,21.4885751 31.1608174,21.6042218 30.9489455,21.6810767 C30.6665803,21.7686603 30.371229,21.8072755 30.0757576,21.79524 L30.0757576,21.79524 Z" id="Shape"></path>
                <path d="M31.4829091,19.0427292 C31.3332207,18.8950863 31.1667169,18.7654104 30.9867939,18.6563465 C30.7291707,18.5028638 30.4453546,18.3980757 30.1495939,18.3472427 C29.8291994,18.3005375 29.5027563,18.3162834 29.1883818,18.3936065 C28.9600105,18.4453325 28.7368599,18.5177592 28.5217152,18.6099827 C28.3268452,18.683993 28.1390701,18.7753771 27.9606727,18.8830237 C27.9160606,18.9105858 27.8540061,18.9565569 27.729903,19.0485171 C27.5881455,19.1535575 27.5586788,19.18089 27.5449818,19.2281902 C27.5203792,19.3186332 27.5506178,19.4150917 27.622503,19.4754756 C27.6861982,19.5119623 27.7616499,19.5222675 27.8328424,19.5042038 C27.9785879,19.4860425 28.0368364,19.5275065 28.4426061,19.6548346 C28.5602303,19.6917431 28.8593455,19.770901 29.4575758,19.9292229 C29.6592925,19.9888747 29.8669726,20.0262551 30.0768788,20.0406917 C30.2571418,20.0533824 30.4382983,20.0399983 30.6147152,20.0009556 C30.7138044,19.9874666 30.8089094,19.9532299 30.8937818,19.9004948 C30.8895394,19.8809198 30.695897,19.9219185 30.3706485,19.9001867 L30.3607333,19.89951 C30.793799,19.8105467 31.1067657,19.4336591 31.1135576,18.9929277 C31.2200909,19.0644852 31.3215697,19.1390817 31.4209152,19.2127417 C31.6965152,19.4170829 31.8632788,19.5897054 31.8860242,19.5682092 C31.7910197,19.3662514 31.6535367,19.1870357 31.4829091,19.0427292 Z M29.3496545,19.7471271 C29.2113455,19.7156138 29.062503,19.6768444 28.7581394,19.5868235 C28.6921333,19.5673029 28.3613818,19.4821638 28.291303,19.4601902 C28.1796727,19.4405165 28.0738481,19.3962752 27.9815333,19.3306871 C27.9347758,19.2906973 27.8690303,19.2328785 27.8738424,19.1651454 C27.8766606,19.1254879 27.905097,19.0634279 28.2620909,18.9119996 C28.3904909,18.8575279 28.4829515,18.8251204 28.6678788,18.7603054 C28.8259055,18.700091 28.9886127,18.6528767 29.1543697,18.6191358 C29.2189212,18.6069981 29.2730909,18.5994581 29.3109333,18.594806 C29.098196,19.0636445 29.3051886,19.6157409 29.7742424,19.8305565 C29.6676121,19.8134948 29.5305455,19.7883735 29.3496545,19.7471513 L29.3496545,19.7471271 Z M30.3123818,19.1122748 C30.2245914,19.1122748 30.1454455,19.0595564 30.1118496,18.9787021 C30.0782536,18.8978479 30.0968239,18.8047806 30.1589011,18.7428974 C30.2209782,18.6810143 30.3143373,18.662502 30.395445,18.695993 C30.4765527,18.7294839 30.5294364,18.8083825 30.5294364,18.8958985 C30.5294444,18.9532903 30.5065798,19.0083342 30.4658733,19.0489192 C30.4251668,19.0895041 30.3699535,19.112305 30.3123818,19.112305 L30.3123818,19.1122748 Z" id="Shape"></path>
                <path d="M21.9585515,18.8260206 C21.9320552,18.7577591 21.8732274,18.7071124 21.8016242,18.6909169 C21.7272182,18.6333579 21.6208424,18.5550942 21.4877758,18.4704746 C21.1964115,18.272555 20.8756848,18.1214603 20.5373091,18.0227085 C20.113124,17.9007493 19.6645267,17.8901022 19.235,17.9917994 C19.0099211,18.0368458 18.7979397,18.1319409 18.6148485,18.27 C18.3261818,18.4966531 18.147303,18.8271444 18.1962485,18.8727529 C18.2591576,18.9313571 18.5834242,18.4126377 19.2127152,18.2583456 C19.1047329,18.5224257 19.1233373,18.821164 19.263256,19.0699021 C19.4031747,19.3186401 19.6491601,19.4902715 19.931503,19.5361581 C19.7017032,19.5446025 19.4729493,19.5713598 19.2474303,19.616174 C19.4718858,19.7135721 19.7188614,19.7476558 19.9614182,19.7147075 C20.0829832,19.7055297 20.2038547,19.6887939 20.3233273,19.6645979 C20.4695685,19.6368113 20.6139373,19.599997 20.7556,19.5543677 C20.9224921,19.5060731 21.0836211,19.4398295 21.2361455,19.3568052 C21.2601636,19.3427704 21.3025152,19.3170148 21.3729212,19.27746 C21.4688182,19.2235925 21.4926061,19.2139017 21.5733697,19.1673506 C21.6899758,19.1001431 21.6712,19.1026021 21.7160303,19.0820242 C21.8431576,19.0236617 21.8935576,19.0500517 21.9371636,18.9966856 C21.9699329,18.9459911 21.9778027,18.8831937 21.9585515,18.8260206 L21.9585515,18.8260206 Z M20.3667636,18.7336496 C20.2468877,18.7336496 20.1497091,18.6367746 20.1497091,18.5172733 C20.1497091,18.397772 20.2468877,18.3008971 20.3667636,18.3008971 C20.4866396,18.3008971 20.5838182,18.397772 20.5838182,18.5172733 C20.5838182,18.6367723 20.4866432,18.7336462 20.3667697,18.7336496 L20.3667636,18.7336496 Z M21.5947636,18.9540133 C21.2757711,19.1300738 20.9423988,19.2788959 20.5982182,19.3988854 C20.9168864,19.1964213 21.0816687,18.8224037 21.0156121,18.4514977 C21.2335368,18.5302656 21.4402191,18.6370453 21.6304242,18.7691323 C21.6586,18.8027542 21.6822848,18.8224258 21.6818485,18.8521508 C21.6811273,18.9011729 21.6229515,18.9370906 21.5947697,18.9540133 L21.5947636,18.9540133 Z" id="Shape"></path>
                <path d="M31.1399515,18.1155085 C30.4362607,17.8843149 29.6875612,17.8229774 28.9554485,17.9365423 C28.4189337,17.9993017 27.9187527,18.238687 27.5341091,18.6167917 C27.5294548,18.6222015 27.5275531,18.6294438 27.5289515,18.6364331 C27.5347818,18.652365 27.5730424,18.6520508 27.5854667,18.6519481 C27.682097,18.6511567 27.9412667,18.4507244 27.9723091,18.437469 C28.1116871,18.3724168 28.2552335,18.3166369 28.4020061,18.2704954 C28.6074328,18.2062495 28.8176994,18.1585384 29.0307818,18.1278215 C29.3635818,18.0790468 29.699765,18.0569119 30.0361091,18.061629 C30.7724848,18.0624446 31.1370667,18.1350292 31.1399515,18.1155085 Z" id="Shape"></path>
                <path d="M21.9992727,18.3680019 C21.7222355,18.0553263 21.3653087,17.823416 20.9665091,17.6969721 C20.4927452,17.5944741 20.0044115,17.5772644 19.5245697,17.6461556 C19.1885592,17.6712796 18.8549986,17.7222498 18.5268667,17.798611 C18.5268667,17.798611 17.9109091,17.9400888 17.7991152,18.1794777 C17.7927005,18.1901372 17.7914406,18.2031091 17.7956848,18.2147973 C17.8128061,18.2436825 17.9003333,18.2216425 17.9348727,18.2126767 C18.1233761,18.149375 18.3047058,18.0665546 18.4758909,17.9655725 C18.6311272,17.8981181 18.7955719,17.8540771 18.9638182,17.8348973 C19.2841205,17.7874931 19.6087645,17.776255 19.9315939,17.8013963 C20.2965978,17.7910186 20.6614541,17.8266669 21.0174909,17.907494 C21.2224574,17.9747739 21.4220738,18.0572827 21.6146606,18.1543263 C21.8667879,18.2809233 21.9941697,18.3754392 21.9992727,18.3680019 Z" id="Shape"></path>
                <path d="M36.177503,17.7545975 L36.0236788,17.5169727 L34.1473697,18.7241702 L33.510097,18.7947852 C33.474875,18.5949186 33.4110544,18.4011273 33.3205879,18.2193406 C33.0955193,17.8012357 32.7562359,17.4552473 32.3420364,17.2214506 C31.9170718,16.9584109 31.4438021,16.7823956 30.9498545,16.7036798 C30.4961624,16.6102135 30.0324004,16.5745584 29.569697,16.59757 C29.0915374,16.6131834 28.6168269,16.6842363 28.1551515,16.8092942 C27.7353299,16.904409 27.3360257,17.0738192 26.9762061,17.3094777 C26.7069099,17.4921868 26.4691029,17.7172025 26.2720364,17.9757708 C26.1945312,18.0741679 26.1237668,18.1776606 26.0602242,18.2855452 C25.9533268,18.276074 25.8470467,18.2606314 25.7418848,18.2392902 C25.6439576,18.219244 25.5832121,18.2014996 25.5188545,18.1826617 C25.4678,18.1677508 25.4164303,18.1527796 25.3478303,18.1366604 C25.1638295,18.0956353 24.9764687,18.0713688 24.7880606,18.0641604 C24.5749296,18.0511012 24.3611965,18.0510608 24.1480606,18.0640396 C23.9032153,18.068296 23.6591113,18.0921996 23.4181152,18.1355185 C23.2213492,18.1746197 23.0282514,18.2302339 22.8408848,18.3017671 C22.7994589,18.2155466 22.7527672,18.1319401 22.7010727,18.0514185 C22.5433602,17.8155213 22.3473011,17.6074846 22.1209576,17.4358633 C21.7828647,17.1724948 21.4027781,16.967637 20.9965758,16.8298479 C20.5743498,16.6713568 20.1343498,16.5646606 19.6862727,16.5121106 C19.1196877,16.4298646 18.5429819,16.4480536 17.9827455,16.5658392 C17.5012614,16.6559728 17.0438333,16.84491 16.639497,17.1206575 C16.3748566,17.3007107 16.1465485,17.5287767 15.9664788,17.7929621 C15.8303137,18.0006034 15.7309224,18.2300091 15.6726364,18.4711815 C15.6100057,18.7712082 15.6094901,19.0808241 15.6711212,19.3810565 C15.7204284,19.6785261 15.8109224,19.9677319 15.9400121,20.2403929 C16.1118307,20.6223408 16.3405018,20.976245 16.618297,21.2901446 C16.9948805,21.705634 17.4491569,22.043897 17.9556727,22.2859804 C18.303319,22.4654573 18.6785572,22.5858803 19.0659455,22.6422938 C19.2140108,22.6626243 19.3633003,22.6728102 19.5127636,22.67278 C19.8211332,22.669891 20.1280294,22.6299596 20.4268121,22.5538498 C20.7959504,22.4677917 21.1509393,22.3298494 21.4811212,22.1441644 C22.0991217,21.8420349 22.5767293,21.3143356 22.8148606,20.6705415 C22.9778875,20.3325292 23.0752874,19.9668194 23.1019212,19.5927081 C23.1179793,19.3059145 23.0872591,19.0184233 23.0109576,18.7414373 C22.9940667,18.6812925 22.9745939,18.6211658 22.9530061,18.5616856 C23.1218525,18.4979145 23.2957101,18.4482027 23.4727939,18.4130606 C23.7003577,18.3724662 23.9308328,18.3502172 24.1619818,18.3465298 C24.3643048,18.3340676 24.5672054,18.3340272 24.7695333,18.346409 C24.9421773,18.3526761 25.1138903,18.3746012 25.2825455,18.4119127 C25.3453455,18.4267027 25.3923455,18.4404717 25.4390364,18.4541138 C25.5060788,18.4737371 25.5754,18.4939888 25.6847939,18.5163429 C25.7689212,18.5335798 25.8538485,18.5461042 25.9387333,18.5564294 C25.9337091,18.5713402 25.9282364,18.58552 25.9235818,18.6009867 C25.8477617,18.8836432 25.8404908,19.1802267 25.9023697,19.4662379 L25.9023697,19.4664192 C25.9518632,20.1250513 26.1675624,20.7605252 26.5294242,21.3137917 C26.740123,21.6068692 26.9942487,21.8663487 27.2831091,22.083355 C27.7086496,22.3991411 28.1951162,22.6237638 28.7119333,22.743105 C29.0799507,22.8461306 29.4600023,22.9002685 29.8422364,22.9041154 C30.1165424,22.9042471 30.3899955,22.8736678 30.6574545,22.8129527 C31.2684011,22.6750246 31.8348662,22.3864857 32.3049636,21.9737652 C32.6719405,21.6486308 32.9703648,21.2539659 33.1828606,20.8127502 C33.3303536,20.5068408 33.4330624,20.1814209 33.4878485,19.846434 C33.5335517,19.5922746 33.5517973,19.3339641 33.5422727,19.0759281 L34.2452303,18.9980269 L36.177503,17.7545975 Z M22.8542,19.5792292 C22.8293102,19.9241483 22.7387102,20.2611791 22.5872485,20.5722858 L22.5871879,20.5723463 C22.3705326,21.166643 21.9299522,21.6532998 21.3590667,21.9289058 C21.0494187,22.1030281 20.7165156,22.2323911 20.3703455,22.3131135 C19.9561418,22.4219344 19.5248409,22.4505247 19.0998303,22.3973344 C18.7381416,22.3439965 18.3878638,22.2310894 18.0633212,22.0632302 C17.586366,21.8354984 17.1585641,21.5171878 16.8038909,21.1261375 C16.5428347,20.831139 16.3279451,20.4985461 16.1664848,20.1395998 C16.0465053,19.8865509 15.9622136,19.6181744 15.9160061,19.3420998 C15.8595418,19.0731311 15.8590055,18.795477 15.9144303,18.5262935 C15.96664,18.3134506 16.0546272,18.1109574 16.1746606,17.9274012 C16.3380268,17.6899881 16.5442259,17.4849046 16.7827576,17.3225942 C17.1597583,17.0651922 17.5868229,16.8896591 18.0362545,16.807379 C18.3369721,16.7410394 18.6440678,16.7076965 18.9520606,16.7079452 C19.1877486,16.7098001 19.4230877,16.7263949 19.6566909,16.7576319 C20.0846576,16.8085983 20.5049589,16.9104878 20.9086121,17.0611229 C21.2901874,17.1902354 21.6474187,17.382047 21.9655273,17.6286227 C22.3602401,17.9197714 22.6445091,18.3355007 22.7720848,18.8081735 C22.8411829,19.0590594 22.8689162,19.3194731 22.8542,19.5792292 L22.8542,19.5792292 Z M33.2426848,19.8088125 C33.1916338,20.1199315 33.0961066,20.4221484 32.9590182,20.7062417 C32.7608137,21.1175686 32.4825748,21.4855216 32.1404727,21.788715 C31.7015692,22.1738647 31.1727613,22.4431092 30.6024606,22.5717996 C29.9967252,22.7007393 29.3683173,22.6773141 28.7739333,22.5036375 C28.2890827,22.3920198 27.8325583,22.1818487 27.4329273,21.8862758 C27.1644361,21.684797 26.9282147,21.4438176 26.7323515,21.171589 C26.3925185,20.6497008 26.1912944,20.0502849 26.1475697,19.4296133 L26.0249333,19.4479075 L26.1475697,19.4294925 C26.0915626,19.1796664 26.0961711,18.9201231 26.1610121,18.6724294 C26.2284253,18.4719755 26.3333302,18.286071 26.4701758,18.1245529 C26.65109,17.8873799 26.8693538,17.6809913 27.1164848,17.5134081 C27.4545072,17.2938396 27.8290349,17.1360005 28.2225455,17.0472754 C28.6650182,16.9275435 29.1199696,16.8595704 29.5782121,16.8447285 C30.0210715,16.8224031 30.4649805,16.8563644 30.8992364,16.9457935 C31.3630001,17.0192393 31.8075882,17.1834901 32.2073576,17.4290725 C32.5841015,17.6387447 32.8931806,17.951005 33.0984545,18.3293413 C33.3038056,18.7944845 33.3543564,19.3129542 33.242703,19.8088125 L33.2426848,19.8088125 Z" id="Shape"></path>
                <path d="M34.2374727,17.4343106 C34.2263892,17.4005727 34.2050413,17.371113 34.1763939,17.3500233 C34.2050997,17.3348987 34.2242264,17.306371 34.2272667,17.274146 C34.2265621,17.2367618 34.2072992,17.2021611 34.1758485,17.1817871 C34.2041199,17.1622775 34.2157884,17.1263145 34.2043333,17.0939956 C34.1957922,17.0694288 34.1821873,17.0469162 34.1643939,17.0279058 C34.1817708,17.0059866 34.1874033,16.9770269 34.179503,16.9502221 L34.1791576,16.949485 C34.1873541,16.9231771 34.1839408,16.8946357 34.1697697,16.8709861 C34.1555986,16.8473366 34.1320071,16.8308107 34.1048848,16.8255342 C33.9971076,16.7894127 33.887379,16.7593583 33.7762182,16.7355133 C33.76604,16.700888 33.7379017,16.6744386 33.7026303,16.6663423 C33.6615333,16.65383 33.6220242,16.6375658 33.5824364,16.6213681 C33.6206026,16.6269833 33.658339,16.6351929 33.6953818,16.6459396 C33.7004303,16.6499573 33.7046303,16.6547483 33.7100667,16.6584035 C33.7260928,16.6677013 33.745084,16.6705229 33.7631333,16.6662879 C33.7900727,16.6753504 33.8167212,16.6850171 33.8427636,16.6948529 C33.9276121,16.7269402 33.9984303,16.774029 34.0895576,16.7359967 C34.1666303,16.7038429 34.1367091,16.6010983 34.0670424,16.5832029 C34.0930303,16.5898488 34.0453394,16.5745875 34.0377697,16.5731677 C34.0203022,16.5706216 34.0026921,16.5691667 33.9850424,16.5688117 C33.9882525,16.5358299 33.9650468,16.5060971 33.9321879,16.5010906 C33.8785259,16.488728 33.8234761,16.4833926 33.7684303,16.4852192 C33.6757749,16.4180083 33.5650125,16.3800748 33.4504848,16.3763302 C33.4145917,16.3540016 33.374976,16.3382642 33.3335152,16.3298638 C33.3751284,16.3315432 33.4163231,16.3210283 33.4520061,16.2996192 C33.5370424,16.3275438 33.6119091,16.3713156 33.6978121,16.400231 C33.7260196,16.4101818 33.7573955,16.3996174 33.7737737,16.3746546 C33.7901518,16.3496918 33.7872864,16.3168018 33.7668364,16.2950275 C33.7416228,16.2714631 33.7132934,16.2514487 33.6826364,16.2355413 C33.6872322,16.2301935 33.6912276,16.2243609 33.6945515,16.2181473 C33.7042628,16.1876064 33.6943284,16.154249 33.6694727,16.1339385 C33.6134163,16.096622 33.5512791,16.0693037 33.4858364,16.0532038 C33.524714,16.0480266 33.5630488,16.0393908 33.6003818,16.0273998 C33.6172955,16.0236432 33.6305498,16.0105508 33.6344731,15.9937252 C33.6383963,15.9768995 33.6322934,15.9593218 33.6187758,15.9485138 C33.6380589,15.9153128 33.6284461,15.872909 33.5967152,15.8512006 C33.5538023,15.8171463 33.5028497,15.7946253 33.4487212,15.7857875 C33.4449491,15.7570015 33.4204719,15.7353899 33.3913515,15.7351342 C33.3745212,15.7350435 33.3576667,15.7375085 33.3408061,15.738155 L33.3387455,15.7325 C33.2914742,15.6794766 33.2245179,15.6480161 33.1534061,15.6454154 C33.1238921,15.6239765 33.0905219,15.6083885 33.0551091,15.5994988 C33.0587587,15.5738113 33.0417934,15.549706 33.0163212,15.5443867 C32.9592477,15.5319432 32.9005472,15.5286636 32.8424364,15.5346717 C32.846523,15.5156653 32.8387258,15.4960759 32.8226788,15.4850333 C32.7320464,15.4273258 32.6229164,15.405814 32.5170727,15.4247919 C32.5258559,15.4139988 32.5285057,15.3994835 32.5241,15.3862978 C32.5196943,15.3731121 32.5088424,15.3630799 32.4953212,15.3596929 L32.5141091,15.3527933 C32.5361018,15.3415368 32.5484717,15.3175774 32.5448794,15.2931941 C32.5412871,15.2688108 32.5225289,15.2494088 32.4982182,15.2449315 C32.3900369,15.2384885 32.2818782,15.2579252 32.1827636,15.3016204 C32.1040121,15.326645 32.0261758,15.3542675 31.948303,15.3817692 C31.919703,15.3830379 31.8912061,15.3852431 31.8624667,15.3853338 C31.8493895,15.3849269 31.83667,15.3896268 31.8270182,15.3984321 C31.8385235,15.3806108 31.8396905,15.3580455 31.8300848,15.3391392 C31.8376121,15.3358646 31.8450424,15.3321792 31.8526364,15.3291704 C31.9920788,15.3065383 32.1325212,15.2941288 32.2699273,15.2595523 C32.2892923,15.2553375 32.3049386,15.2411582 32.3109879,15.2223417 C32.3311455,15.2175446 32.3513394,15.2128804 32.3713515,15.2070321 C32.4605939,15.1809563 32.4334061,15.0785802 32.3504303,15.0698863 C32.1729668,15.0625548 31.9968816,15.103849 31.8413091,15.1892817 C31.7564,15.2078658 31.6722182,15.2296883 31.5885818,15.253124 C31.610622,15.2365936 31.6303516,15.2172061 31.6472485,15.1954744 L31.6515939,15.1869315 C31.6904667,15.173229 31.7098909,15.1161896 31.6633212,15.0964031 C31.6349085,15.0849944 31.6053492,15.0766595 31.5751515,15.0715417 C31.5750221,15.0419605 31.5533952,15.0168369 31.5240848,15.0122185 C31.4129992,15.0147634 31.3041008,15.0435225 31.2063212,15.0961373 C31.1377818,15.1121658 31.0696667,15.1315838 31.0038061,15.1508144 C31.0035307,15.1458549 31.0027323,15.1409381 31.0014242,15.1361452 L30.9960667,15.1208477 C30.9836642,15.0893219 30.9530659,15.0686666 30.919097,15.0688894 C30.8997827,15.0676494 30.8804202,15.0704121 30.8622303,15.0770033 C30.8572644,15.0698138 30.8510348,15.0635791 30.8438424,15.0586004 C30.6674303,14.9339185 30.3921697,15.0161577 30.1597212,15.1383504 C30.1528346,15.1359061 30.1456601,15.1343587 30.1383758,15.1337467 C30.129497,15.1330519 30.1205576,15.1341031 30.1116667,15.1336138 C30.1360121,15.0798913 30.0826424,15.0313525 30.0198545,15.0399679 C29.8728413,15.0715693 29.7312543,15.1244334 29.5995879,15.1968821 C29.3051831,15.2913258 29.0192202,15.4101569 28.7446909,15.5521321 C28.6978606,15.5742446 28.7178909,15.6215025 28.7545333,15.6358213 C28.7212303,15.651874 28.6873152,15.6666035 28.6546061,15.6839129 C28.4488424,15.7927958 28.2152121,15.9277123 28.1895455,16.1774567 C28.1828788,16.2425919 28.2940061,16.2496969 28.3114848,16.1921017 C28.3745152,15.9842683 28.6978788,15.8505481 28.8999333,15.7627748 C28.9106307,15.7727932 28.9232462,15.7805566 28.9370242,15.7856002 C28.8678929,15.8210003 28.7992545,15.8572101 28.7311091,15.8942294 C28.7198664,15.8820874 28.7015642,15.8796015 28.6874727,15.8883025 C28.6636873,15.9044622 28.6386228,15.9186666 28.6125273,15.9307754 C28.5942607,15.9381801 28.5826467,15.9562446 28.5835273,15.9758825 C28.5493758,15.9950708 28.5150121,16.0140175 28.481103,16.0334535 C28.4123576,16.0728452 28.4783939,16.1595129 28.5426545,16.1268638 C28.6093212,16.0930103 28.6762545,16.060484 28.7434545,16.0292848 C28.9788584,15.9941267 29.2021375,15.9023682 29.3940061,15.761935 C29.4877576,15.7276788 29.5821697,15.694945 29.6769576,15.6629483 C29.6875034,15.6722072 29.701597,15.6763801 29.715503,15.674361 L29.7370788,15.6719444 L29.719503,15.6801369 C29.6527636,15.7117288 29.7162424,15.7934846 29.7765758,15.7667563 L29.7843273,15.763524 C29.8012738,15.7749346 29.8232224,15.7758577 29.8410727,15.7659104 C29.9060101,15.7309533 29.9712404,15.6970213 30.0367636,15.6641144 C30.1127758,15.6372894 30.1888848,15.6132073 30.2651455,15.5913606 C30.3419131,15.5760349 30.4184404,15.5600245 30.4947273,15.5433294 L30.5025273,15.5465315 C30.3964667,15.5762323 30.2907394,15.6056794 30.1854788,15.6331629 C30.100497,15.655366 30.1405515,15.7667563 30.2214364,15.7488729 C30.3350182,15.7237517 30.4482182,15.7021648 30.5615091,15.679285 C30.5713041,15.6851595 30.5824018,15.6885338 30.5938182,15.6891088 C30.6799515,15.6921719 30.7676545,15.6909756 30.8556364,15.6881904 C30.9216303,15.690166 30.9877212,15.6927942 31.0537333,15.6965521 C30.9934364,15.7225313 30.9327333,15.7476404 30.8706667,15.7695173 C30.8513794,15.7744058 30.8363686,15.789499 30.8316309,15.8087673 C30.8268932,15.8280356 30.833201,15.848338 30.8480343,15.8615637 C30.8628676,15.8747894 30.8838084,15.8787825 30.9024909,15.8719477 C31.0427206,15.8297512 31.180309,15.7792786 31.3145273,15.7207973 C31.4050854,15.7475408 31.5007058,15.7525467 31.5935758,15.735406 C31.6262575,15.724885 31.650402,15.6971801 31.6562848,15.6634498 L31.7049515,15.6593475 C31.6895954,15.6797331 31.6881599,15.707361 31.7013212,15.7292191 C31.7144825,15.7510771 31.7396162,15.7628069 31.7648848,15.758884 C31.899611,15.7597021 32.0332326,15.7831794 32.1601212,15.8283269 C32.1663856,15.8461527 32.1798006,15.8605809 32.1971559,15.868159 C32.2145113,15.8757372 32.2342455,15.8757833 32.2516364,15.8682865 L32.2651939,15.8622085 C32.3022727,15.8743644 32.3392667,15.8864538 32.3761636,15.8976852 C32.4248026,15.9142443 32.4751384,15.9253588 32.5262424,15.9308238 C32.5304344,15.9405765 32.5371581,15.9490393 32.5457212,15.9553408 C32.4368242,15.9523683 32.3278242,15.9521388 32.220303,15.9543198 C32.1974636,15.9527818 32.1756669,15.9640563 32.1637784,15.9835574 C32.1518899,16.0030586 32.1518899,16.027538 32.1637784,16.0470392 C32.1756669,16.0665404 32.1974636,16.0778148 32.220303,16.0762769 C32.3523514,16.080116 32.4841033,16.0909195 32.6150061,16.1086421 C32.6457212,16.1130706 32.6764182,16.1188162 32.7070545,16.1247673 C32.692523,16.1323149 32.6816497,16.1453746 32.6768851,16.1610033 C32.6721206,16.176632 32.6738657,16.1935146 32.6817273,16.2078462 C32.6530424,16.2005963 32.6242848,16.1937631 32.5958303,16.1853894 C32.5750701,16.177779 32.5517918,16.1822063 32.5353006,16.1969017 C32.5188095,16.211597 32.5117959,16.2341629 32.5170636,16.2555787 C32.5223313,16.2769946 32.5390208,16.2937666 32.5604606,16.2991902 C32.7068242,16.3487319 32.8538667,16.396461 33.0008848,16.4440996 C32.9909637,16.4580774 32.9883377,16.4759388 32.9938179,16.4921668 C32.9992981,16.5083948 33.0122251,16.5210367 33.0286061,16.5261877 C33.1601062,16.5793357 33.2862902,16.6447176 33.4054848,16.7214665 C33.3536364,16.7012269 33.3018485,16.6808121 33.2496606,16.6613821 C33.1724848,16.6326358 33.1050788,16.7557529 33.1890182,16.7890183 C33.3031758,16.8342462 33.4164242,16.8819754 33.5270848,16.9351119 C33.5344195,16.9618292 33.5587831,16.9803485 33.5865697,16.9803277 C33.5969091,16.980521 33.6070606,16.9828773 33.6173818,16.9834452 C33.6715865,17.0236461 33.7390646,17.0418657 33.8062121,17.0344308 C33.8175395,17.0311572 33.8282197,17.0259707 33.8377879,17.0190971 C33.8541515,17.0232779 33.8708788,17.026039 33.8870848,17.0306971 C33.9032909,17.0353552 33.9192061,17.0410042 33.9350182,17.0466894 C33.94727,17.0610389 33.9584841,17.0762377 33.9685758,17.092171 L33.9405818,17.0850842 C33.7980338,17.053631 33.650928,17.0483468 33.5064788,17.0694906 C33.443497,17.0775865 33.4601333,17.1714196 33.5215152,17.1680121 C33.5749343,17.1647014 33.6285334,17.165655 33.6818,17.1708638 C33.6630216,17.1793292 33.6511116,17.198137 33.6515218,17.2186778 C33.651932,17.2392186 33.6645834,17.2575389 33.6836848,17.2652527 C33.7608303,17.3053503 33.834764,17.3513102 33.9048303,17.4027248 C33.9397864,17.4311463 33.9732395,17.461357 34.0050545,17.493235 C33.9935394,17.4915675 33.9824303,17.489761 33.969903,17.4882083 C33.9293337,17.4813488 33.8908522,17.4654102 33.8573515,17.4415908 C33.7849758,17.3958917 33.6752727,17.5020075 33.7539152,17.5605392 C33.8439091,17.627505 33.9952667,17.7103725 34.0952848,17.6191433 C34.1124512,17.6035375 34.119559,17.5797513 34.1137576,17.557325 C34.1832606,17.565004 34.2592242,17.5109673 34.2374727,17.4343106 Z M29.7389152,15.3488058 C29.7196545,15.3545213 29.7006121,15.3603394 29.6820788,15.3663267 C29.6814327,15.3592265 29.6797334,15.3522611 29.6770364,15.3456581 L29.7060606,15.3367708 C29.7215939,15.335194 29.7372061,15.3336835 29.753503,15.3329223 C29.7474289,15.3369666 29.7424244,15.3424135 29.7389152,15.3487998 L29.7389152,15.3488058 Z M30.3832242,15.2063433 C30.4696709,15.1812692 30.5591162,15.1679378 30.6491394,15.16671 C30.5612941,15.1847536 30.4725225,15.1979826 30.3832242,15.2063373 L30.3832242,15.2063433 Z M30.6641212,15.5013156 C30.6692065,15.4986004 30.6739732,15.4953299 30.6783333,15.4915644 C30.7025758,15.4866585 30.7271636,15.4820488 30.7516182,15.4773363 C30.7224242,15.4853173 30.6932545,15.4932138 30.6641212,15.5013096 L30.6641212,15.5013156 Z M31.2265455,15.2892108 L31.1908545,15.3030281 L31.0817636,15.3056744 C31.057569,15.3048814 31.035048,15.317943 31.0237818,15.3393023 C31.0203678,15.3315008 31.0156755,15.3243199 31.009897,15.3180538 C31.085297,15.2976269 31.160697,15.2772121 31.2355273,15.2546163 C31.2577152,15.247916 31.2845152,15.2414333 31.312897,15.2343888 C31.3261758,15.2328723 31.3393333,15.2309631 31.3526909,15.2297306 C31.3116706,15.2516742 31.2695576,15.2715245 31.2265152,15.2892048 L31.2265455,15.2892108 Z M31.5491939,15.292715 L31.5220485,15.2945275 C31.5347152,15.2878817 31.5464727,15.2800819 31.5584121,15.2724815 C31.553611,15.2783036 31.5504225,15.2852773 31.5491636,15.292709 L31.5491939,15.292715 Z M31.8134364,15.4279275 C31.8021697,15.4316431 31.7910727,15.4358542 31.7797697,15.439461 C31.768332,15.4430423 31.7580416,15.4495622 31.7499333,15.4583654 C31.7495589,15.4534192 31.7486692,15.4485253 31.7472788,15.4437627 C31.7727652,15.4396556 31.7967036,15.428886 31.8166545,15.4125515 L31.8193515,15.4088842 C31.8159616,15.4147051 31.8139276,15.4212113 31.8134,15.4279215 L31.8134364,15.4279275 Z M32.177303,15.6299488 L32.1862061,15.6295802 L32.1882303,15.6322748 L32.177303,15.6299488 Z M32.8585152,15.783099 C32.8605758,15.7800781 32.8595394,15.776006 32.8607939,15.7725744 C32.8896606,15.7730094 32.9185333,15.7729429 32.9473879,15.7739881 C32.9131333,15.7810367 32.8789919,15.7888063 32.8449636,15.7972969 C32.8497899,15.7928668 32.8543131,15.7881195 32.858503,15.7830869 L32.8585152,15.783099 Z M32.5525394,15.6066823 C32.4917818,15.6138356 32.4310909,15.6217019 32.3704242,15.6293083 C32.3846581,15.6174177 32.3964716,15.6029154 32.4052242,15.5865877 C32.4293636,15.5825942 32.4533879,15.5778092 32.4776848,15.5748548 C32.5313325,15.5692771 32.5854456,15.569869 32.6389576,15.576619 C32.6099394,15.5858023 32.5812121,15.5956019 32.5525212,15.6066581 L32.5525394,15.6066823 Z M32.8329515,15.9711096 C32.767497,15.9657506 32.7011576,15.9630319 32.6348727,15.9601923 C32.6746485,15.953625 32.7144,15.9469006 32.7540727,15.9397956 C32.7726603,15.9659221 32.8066512,15.9761617 32.8366424,15.9646692 C32.8720545,15.9502115 32.9076061,15.9392942 32.9431697,15.9283346 C32.9578459,15.9457381 32.9784621,15.9571137 33.0010485,15.9602708 C33.0392606,15.9647779 33.077303,15.9677323 33.1153636,15.9705417 C33.0897091,15.9776708 33.0642788,15.9847154 33.0391455,15.9914579 C32.9880941,15.9847404 32.9376587,15.9739907 32.8883152,15.9593102 C32.8690472,15.9535876 32.8481824,15.9580239 32.8329333,15.9710854 L32.8329515,15.9711096 Z" id="Shape"></path>
                <path d="M19.3437939,15.0727802 L19.3451818,15.0740792 L19.342103,15.072164 L19.3437939,15.0727802 Z M21.4841152,16.0476877 C21.3273833,16.0230929 21.1808632,15.9546885 21.0615636,15.8504152 C21.0568675,15.8712698 21.0433218,15.8890655 21.0244384,15.8991883 C21.0055549,15.9093112 20.9831935,15.9107643 20.9631515,15.903171 C20.8147319,15.8422422 20.6767068,15.7587011 20.5540121,15.6555352 C20.5860364,15.6866135 20.6180182,15.7177644 20.6504788,15.7485769 C20.6605491,15.756009 20.6671737,15.7671873 20.6688439,15.7795665 C20.6705142,15.7919456 20.667088,15.8044716 20.6593455,15.8142921 C20.7226788,15.8370752 20.7856848,15.857931 20.8464788,15.876201 C20.8622086,15.8801718 20.8744569,15.8924711 20.8783254,15.9081803 C20.8821939,15.9238895 20.8770513,15.9404446 20.8649541,15.9512253 C20.852857,15.9620059 20.8357797,15.9652525 20.8205515,15.9596667 C20.6406685,15.9144816 20.4636776,15.8585413 20.2905394,15.7921494 C20.2993152,15.8017556 20.3076424,15.8115492 20.3165576,15.821089 C20.3606909,15.8682865 20.2869636,15.9260508 20.2444364,15.8850702 C20.1877515,15.8304233 20.1296,15.7642369 20.0677394,15.7003523 C20.0191446,15.677513 19.9741271,15.6477729 19.9340909,15.6120594 C19.8988478,15.6022847 19.8630183,15.5947477 19.8268182,15.5894937 C19.8783377,15.6554069 19.9204961,15.7280856 19.952103,15.8054773 C19.9774182,15.8697002 19.8625091,15.9060952 19.8345939,15.8494425 C19.8107236,15.8009975 19.7808432,15.7557334 19.7456545,15.7147133 L19.7426242,15.7144898 L19.7321394,15.7115777 C19.7331685,15.7185235 19.733242,15.7255767 19.7323576,15.7325423 C19.7267042,15.7481609 19.7115988,15.7583689 19.6949515,15.7578206 C19.6418271,15.7442625 19.5928622,15.7178897 19.5523697,15.681025 C19.5305091,15.666525 19.5097697,15.6503212 19.4882364,15.6352473 C19.3843991,15.5972864 19.2759867,15.5731648 19.1658121,15.5635085 C19.1369444,15.5627894 19.1094074,15.5512577 19.0886848,15.5312098 C19.0991697,15.541239 19.1089879,15.5518965 19.1196303,15.5619075 C19.126903,15.5687285 19.1343455,15.576625 19.1419394,15.5847027 C19.1567945,15.5750665 19.1740346,15.5697155 19.1917515,15.5692421 C19.2555835,15.5628197 19.3167581,15.5963793 19.3454727,15.6535717 C19.4821704,15.7286261 19.6269639,15.787988 19.7770788,15.83052 C19.7977602,15.8357995 19.8138423,15.8520071 19.8189126,15.8726802 C19.8239829,15.8933533 19.8172169,15.9151296 19.8013122,15.9293263 C19.7854076,15.943523 19.7629511,15.9478311 19.742897,15.9405327 C19.6398242,15.9093215 19.5367939,15.8786056 19.4344788,15.8457571 C19.4876727,15.886055 19.4309758,15.9611106 19.3736242,15.928836 C19.3230485,15.9003617 19.2710545,15.8725035 19.2176727,15.8479683 C19.1986407,15.8654897 19.1714134,15.8710062 19.1470303,15.862281 C19.0947939,15.8361931 19.0449394,15.805864 18.9955152,15.7748037 C18.9641803,15.7677696 18.9324794,15.762467 18.9005576,15.7589202 C18.8999696,15.7745179 18.8918691,15.7888748 18.8788034,15.7974762 C18.8657376,15.8060776 18.8493117,15.8078668 18.8346909,15.8022812 C18.8272848,15.7995142 18.8195818,15.798185 18.8121394,15.7955931 C18.7956497,15.8017985 18.7777016,15.8030709 18.760497,15.7992544 C18.8085879,15.8111867 18.7369394,15.8014415 18.7244485,15.799351 C18.7144383,15.7976054 18.7046448,15.794794 18.6952364,15.7909652 C18.5612429,15.7907533 18.4283688,15.7666395 18.302897,15.7197642 C18.3277455,15.736421 18.3514727,15.7531021 18.3728606,15.766001 C18.4710618,15.8220357 18.5655954,15.8842289 18.6558909,15.9522052 C18.7059576,15.9918567 18.6309636,16.04367 18.5869091,16.0134073 C18.4992719,15.9546759 18.4065242,15.9039035 18.3097818,15.861701 C18.2887576,15.852276 18.267297,15.8459927 18.2459576,15.8387971 C18.2259215,15.8451314 18.2040156,15.8401564 18.1887091,15.8257954 C18.1841515,15.8212883 18.1791939,15.8181225 18.1745758,15.8138269 C18.146897,15.8052598 18.1191697,15.7970492 18.0920364,15.7862285 C18.0660663,15.7789784 18.0490048,15.7542619 18.0514909,15.7274915 C18.0171086,15.7112088 17.980774,15.6993875 17.9433758,15.6923169 C17.9631964,15.7173761 17.9810089,15.7439508 17.9966485,15.771795 C18.0303175,15.782894 18.0627867,15.7973271 18.0935697,15.8148781 C18.1011671,15.8192427 18.1075083,15.825485 18.1119818,15.8330031 C18.1696303,15.8413346 18.2266121,15.850089 18.2821333,15.8582029 C18.3608303,15.8696821 18.3383636,15.9844737 18.2635636,15.9799062 C18.1981697,15.9759308 18.1322424,15.9754837 18.0662,15.9758583 L18.0676182,15.9828002 C18.0738545,16.0278952 18.0307091,16.0431444 17.9924303,16.0349035 C17.9956793,16.0561061 17.9864662,16.0772914 17.9687215,16.0894211 C17.9509768,16.1015508 17.9278329,16.1024839 17.9091636,16.0918221 C17.8423108,16.0577398 17.7734378,16.0277479 17.7029273,16.0020127 C17.7805478,16.0379212 17.853949,16.0822725 17.9217939,16.1342587 C17.9912364,16.1904462 17.8864667,16.265236 17.8246,16.2204975 C17.7137553,16.1453673 17.5892173,16.0926166 17.4580242,16.0652267 C17.4889616,16.0831946 17.5194889,16.1022077 17.5496061,16.122266 C17.608799,16.1443393 17.6694708,16.1622504 17.7311758,16.1758677 C17.7549084,16.1803745 17.7743636,16.19728 17.7820814,16.220102 C17.7897992,16.242924 17.784582,16.268121 17.7684303,16.2860315 C17.7771817,16.3107868 17.7691806,16.3383499 17.74852,16.3546207 C17.7278594,16.3708914 17.6991087,16.3722712 17.6769758,16.3580542 C17.6407818,16.3369083 17.6055636,16.3161129 17.5704727,16.2959821 C17.5364667,16.2910521 17.5021576,16.28466 17.4679879,16.2770837 C17.4638472,16.2927176 17.4530632,16.3057686 17.4384638,16.3128144 C17.4238644,16.3198601 17.4069062,16.3201977 17.3920364,16.3137385 C17.2504726,16.249269 17.0908349,16.2358419 16.9404364,16.2757546 C16.9850424,16.287119 17.0298606,16.2976315 17.0752364,16.3062348 L17.1900667,16.3119623 C17.2125452,16.3104363 17.2340032,16.3215256 17.2457079,16.3407172 C17.2574125,16.3599088 17.2574125,16.3840033 17.2457079,16.4031949 C17.2340032,16.4223865 17.2125452,16.4334758 17.1900667,16.4319498 C17.0993394,16.436469 17.0085818,16.4406196 16.9178727,16.4455133 C16.902,16.4463712 16.8842667,16.4485342 16.8658667,16.4504252 C16.8735664,16.4621858 16.8739284,16.4772768 16.8668013,16.4893908 C16.8596743,16.5015048 16.8462852,16.5085561 16.8322303,16.5075975 L16.8222606,16.5083829 C16.8150045,16.5281011 16.7981547,16.5427636 16.7775758,16.5472671 C16.7967879,16.5825323 16.7539394,16.6267875 16.7094667,16.6047354 C16.6580384,16.5773114 16.6049873,16.5530255 16.5506061,16.5320119 C16.5335576,16.5342292 16.5165394,16.535945 16.4995273,16.537401 C16.5135576,16.5425123 16.5266364,16.5475812 16.5377091,16.5522515 C16.5557356,16.5608668 16.567205,16.5790279 16.567205,16.5989566 C16.567205,16.6188852 16.5557356,16.6370464 16.5377091,16.6456617 L16.5263818,16.6501446 C16.5624572,16.659322 16.5974625,16.6722622 16.6308182,16.6887508 C16.6847576,16.716041 16.6428424,16.7881362 16.5906727,16.7732315 C16.5827152,16.7709598 16.5750424,16.7708148 16.5671455,16.7690023 C16.5645495,16.7693363 16.561932,16.7694757 16.5593152,16.7694192 C16.511802,16.7608463 16.4627828,16.7697944 16.4214,16.7945948 C16.3944107,16.814621 16.3602199,16.8224152 16.3271818,16.8160729 C16.3184418,16.8147742 16.3102061,16.8111791 16.3033212,16.8056571 C16.2689013,16.8134758 16.2335289,16.7971266 16.2172754,16.7658865 C16.2010218,16.7346465 16.2079918,16.6964049 16.2342303,16.6728612 C16.2273267,16.6698365 16.2207647,16.6660898 16.2146545,16.6616842 C16.1976598,16.6464734 16.1876545,16.6249886 16.1869675,16.6022308 C16.1862805,16.579473 16.1949717,16.5574274 16.2110182,16.5412254 C16.1982907,16.5267098 16.192009,16.5076712 16.193608,16.4884581 C16.1952069,16.469245 16.20455,16.4514986 16.219503,16.4392723 C16.271922,16.4016767 16.3351779,16.3820822 16.3997394,16.3834412 C16.4113705,16.3473799 16.4454311,16.3232576 16.4834182,16.3241785 C16.5007186,16.3249178 16.5175991,16.3297204 16.5326848,16.3381952 C16.5141939,16.3264744 16.4989091,16.3256225 16.5238667,16.3301296 C16.5435814,16.3353615 16.5619906,16.3446197 16.5779273,16.3573171 C16.5878,16.3633044 16.6226061,16.3782877 16.6413333,16.3873502 C16.6659818,16.3992825 16.6909152,16.4105865 16.716,16.4217031 L16.7168727,16.4217696 L16.7138061,16.41922 C16.6997739,16.4052217 16.6926376,16.3857736 16.694297,16.3660533 C16.6676303,16.3634977 16.6410606,16.3603198 16.614297,16.3588033 C16.4936909,16.3518856 16.4955879,16.1789731 16.614297,16.1907181 L16.6312667,16.1926333 C16.5944,16.0282456 16.7920667,16.0372296 16.9718,16.0676615 C16.963347,16.0443051 16.9665395,16.0183335 16.9803995,15.9977027 C16.9942594,15.977072 17.0171349,15.9642411 17.0420182,15.9631406 C17.054303,15.9614369 17.0657818,15.9624337 17.0778121,15.9615879 C17.1078681,15.9191593 17.1660036,15.9076498 17.2100424,15.9354094 C17.2388606,15.952761 17.266,15.9713331 17.2934424,15.9896454 C17.3012182,15.9922252 17.3092,15.9941404 17.3168788,15.9970042 C17.3091118,15.9851782 17.3053346,15.9711895 17.306097,15.9570748 L17.3075515,15.9435958 C17.30973,15.9238811 17.3177235,15.905253 17.3305212,15.8900667 C17.3024191,15.8825816 17.2794738,15.862376 17.2685551,15.8354994 C17.2576364,15.8086228 17.2600117,15.7781949 17.2749697,15.7533256 L17.2860727,15.7363546 C17.3205705,15.6902947 17.3833306,15.6756957 17.4347152,15.7017781 C17.4888803,15.7242723 17.5445751,15.7429152 17.6013818,15.7575669 C17.6380264,15.7476051 17.6755319,15.7411117 17.7134,15.7381731 L17.7126485,15.7376052 C17.6886275,15.7402944 17.6647751,15.7313013 17.6485515,15.7134385 C17.6355439,15.6975342 17.6191003,15.6847646 17.6004485,15.6760829 C17.4707515,15.6125487 17.595503,15.4439681 17.7131758,15.5049527 C17.7392041,15.5185571 17.7644311,15.5336335 17.7887333,15.5501081 C17.8049711,15.5193104 17.8383984,15.5014882 17.8731091,15.5051219 C17.9111275,15.5066049 17.9487928,15.5129938 17.9851636,15.524129 C17.9576485,15.4426269 18.079103,15.3560619 18.1750242,15.3989758 L18.1768424,15.3951333 C18.1969576,15.408425 18.2176364,15.4195296 18.2378667,15.4320781 C18.2703663,15.3167169 18.3796748,15.2399735 18.4995818,15.2483329 C18.5091385,15.1858295 18.5606615,15.1381459 18.623897,15.1332815 C18.6285758,15.1328948 18.6328909,15.1337769 18.6375394,15.1335171 C18.6434743,15.1060339 18.6542733,15.0798245 18.6694303,15.0561173 C18.6912345,15.0271203 18.7240515,15.0083498 18.7601673,15.004218 C18.7962831,15.0000863 18.8325125,15.0109576 18.8603394,15.0342767 C18.9056485,15.0658444 18.9532606,15.0945967 19.0019333,15.1217721 C18.9975654,15.1057822 18.9998835,15.0887103 19.0083585,15.0744534 C19.0168335,15.0601964 19.030742,15.0499714 19.0469091,15.0461123 L19.0353212,15.0403304 C19.0173389,15.0318578 19.0038403,15.0161354 18.9982192,14.9971161 C18.9925981,14.9780969 18.9953893,14.9575901 19.0058909,14.9407517 C19.0321452,14.9062877 19.0792838,14.8953233 19.1181273,14.9146456 C19.2596502,14.9731738 19.3657384,15.0940925 19.4050788,15.2417112 C19.4290384,15.2439898 19.4525982,15.2493699 19.4751636,15.2577156 C19.4669879,15.2435117 19.4587455,15.2293198 19.4503818,15.215424 C19.4300353,15.1801699 19.4068821,15.1466012 19.3811455,15.1150417 C19.3733273,15.10581 19.3631333,15.097841 19.3561394,15.0880837 L19.3450121,15.074061 C19.3658326,15.0845511 19.390517,15.0840622 19.410903,15.072756 C19.3892567,15.0810831 19.3652767,15.0810831 19.3436303,15.072756 C19.3375697,15.0666237 19.3370061,15.0683396 19.3419333,15.0721519 C19.2928424,15.0542806 19.2591333,15.0032769 19.3114848,14.9584537 C19.4083455,14.8755258 19.5061879,14.9858769 19.5474182,15.0675058 C19.5940965,15.1564601 19.6245631,15.2529686 19.6374,15.3525396 C19.6554966,15.3130715 19.6941573,15.2869542 19.7376364,15.2848246 C19.6661736,15.2337665 19.6070381,15.1674576 19.5645394,15.09073 C19.5476121,15.043315 19.6053879,15.0039656 19.6477212,15.016925 C19.6736978,15.0255502 19.6977821,15.0390435 19.7186788,15.0566792 C19.7364866,15.0442702 19.758442,15.0392623 19.7798909,15.0427169 C19.8845449,15.0769601 19.973629,15.1470858 20.0313091,15.2406298 C20.0626874,15.2383082 20.0938182,15.2476391 20.1187091,15.2668265 C20.1381113,15.2819591 20.15495,15.3000995 20.1685818,15.320555 C20.2065152,15.3468906 20.2425212,15.3753529 20.2781091,15.4042925 L20.2769273,15.4017731 C20.2429879,15.3040612 20.3928667,15.2425571 20.4564848,15.3090396 C20.4882424,15.3422204 20.5198727,15.3763981 20.5516364,15.4106544 C20.6745455,15.3088583 20.8736485,15.4524144 20.979303,15.5248056 C21.1644182,15.6516323 21.3327394,15.8049698 21.5208485,15.9267275 C21.5475654,15.9414956 21.5603198,15.9728492 21.5514673,16.0019964 C21.5426149,16.0311436 21.5145565,16.050179 21.4841091,16.0476937 L21.4841152,16.0476877 Z M17.9349515,15.9859056 L17.9302182,15.9770787 C17.9263515,15.977121 17.922503,15.9770365 17.9186364,15.9770787 L17.9349515,15.9859056 Z M18.4558303,15.5380731 C18.4494866,15.5274372 18.4447393,15.5159327 18.4417394,15.5039256 C18.4367818,15.5120335 18.4312242,15.5199783 18.4258061,15.5282494 L18.4558303,15.5380731 Z M18.7093939,15.6078302 C18.7036121,15.6051598 18.6982303,15.6016798 18.6923939,15.5991242 C18.6869702,15.6059669 18.6805135,15.6119286 18.6732545,15.616796 L18.6834848,15.6209708 C18.6916874,15.6157935 18.7003599,15.611396 18.7093879,15.6078362 L18.7093939,15.6078302 Z M19.0830121,15.5255065 C19.0638126,15.502855 19.0554405,15.4730014 19.0600727,15.4437083 C19.0337152,15.4352923 19.0072848,15.4271844 18.9808667,15.4191006 C18.9944545,15.4343619 19.008,15.4495808 19.0217697,15.4647515 C19.0412121,15.4861933 19.0623273,15.5056173 19.0830303,15.5255125 L19.0830121,15.5255065 Z M19.292297,15.2527735 C19.2620213,15.1982707 19.2197256,15.151333 19.1686,15.1155008 C19.19295,15.1601721 19.222235,15.2019885 19.2559091,15.2401706 C19.2679515,15.2447683 19.2801879,15.2484235 19.2922909,15.2527917 L19.292297,15.2527735 Z M19.9326242,15.3114865 L19.9258667,15.3048104 L19.9140667,15.2951437 L19.9308545,15.3168937 L19.9326242,15.3114865 Z M20.4232242,15.7165923 C20.3671394,15.6706756 20.3108545,15.6250127 20.2525697,15.5819296 C20.1939724,15.5371146 20.1305513,15.4989438 20.0634788,15.4681227 L20.0622667,15.4676031 C20.0674809,15.4736938 20.0710187,15.4810304 20.0725333,15.488894 C20.1098662,15.5230293 20.1493816,15.5547139 20.1908303,15.5837481 C20.2308303,15.6040542 20.2710364,15.6238044 20.3106727,15.6450952 C20.3219864,15.6506923 20.3309216,15.6601352 20.3358667,15.6717208 C20.3646424,15.6872781 20.3935939,15.7024306 20.4232182,15.7165983 L20.4232242,15.7165923 Z" id="Shape"></path>
                <path d="M40.1790061,17.9097898 C40.0867076,17.7815127 39.956135,17.6855634 39.8059091,17.635625 C39.8037636,17.6188956 39.8002424,17.5928802 39.7951758,17.56124 C40.1515283,15.4808807 40.0334574,13.3472347 39.4497212,11.3185731 L39.4334909,11.2446775 C39.146056,9.55283449 38.5709367,7.92234029 37.7329273,6.42348792 C37.1587352,5.41237961 36.4178923,4.50484502 35.5414545,3.73892771 C35.1925608,3.44622582 34.8222393,3.17989039 34.4335758,2.94214063 C34.0556361,2.38377724 33.5917795,1.88828289 33.0590788,1.47389479 C30.5003636,-0.506672292 27.1140788,0.0670625 25.2946364,0.375121042 C24.0657892,0.578379407 22.8711998,0.950727239 21.7450788,1.48150125 C20.8019025,1.94756587 19.9120335,2.5139114 19.0909818,3.17066667 C18.3144213,3.73317129 17.5980743,4.37395137 16.9532909,5.08285417 C16.0651886,6.12307717 15.3318486,7.28527403 14.7758121,8.53372125 L14.7162788,8.65422229 C14.2100986,9.59286246 13.8101577,10.5846874 13.5238242,11.6114248 C13.0689255,13.4111254 13.0247421,15.2896216 13.3945273,17.1085983 C13.4075819,17.1723202 13.4405636,17.2302766 13.4887333,17.27414 C13.483511,17.2884077 13.4809676,17.3035117 13.4812303,17.3186973 C13.5585091,17.9887665 13.7064667,18.6631675 13.7394727,19.3493558 C13.7954069,20.4402344 13.7834507,21.5335205 13.7036727,22.6229242 C13.6898061,22.8712971 13.6731515,23.0863985 13.658497,23.2763908 C13.5390667,23.8545001 13.60915,24.4555668 13.8584121,24.9909554 C14.1638818,25.5167438 14.6374622,25.9251759 15.2033576,26.1508829 C15.2362853,26.1654702 15.27125,26.1749719 15.3070485,26.1790613 L15.3085879,26.1792183 C15.3012848,26.5937552 15.3652848,26.9612215 15.3673152,27.2710985 C15.4104538,28.9936226 15.8951706,30.6764687 16.7753152,32.159411 C17.4597914,33.3122057 18.5679937,34.1537017 19.8646848,34.5052754 C19.9147636,34.610189 19.9717697,34.7216638 20.0369576,34.8386485 C20.1680861,35.073914 20.3157265,35.2996491 20.4787758,35.5141673 C20.9657739,36.1438976 21.5743868,36.6699914 22.2686909,37.0613958 C23.0886733,37.5155431 24.0009919,37.7791303 24.937503,37.8324696 C25.1440182,37.8487821 25.4156848,37.8702602 25.7331576,37.8702602 C26.7319786,37.8879023 27.7155592,37.6245089 28.5710606,37.1102971 C29.0720719,36.8012063 29.5152855,36.4075336 29.8808545,35.9469077 C32.4621212,35.3059896 34.469697,34.0976563 35.5052727,31.9511427 C35.5901212,31.7753302 35.6066364,31.5983758 36.2507636,29.8886385 C36.5033127,29.271444 36.7149871,28.6384032 36.8844242,27.9935913 C36.9819152,27.6601577 37.0872667,27.3106896 37.1523697,27.0294802 C37.2085394,27.03235 37.3525697,27.0621052 37.4150121,27.0621052 C38.0337656,27.0953672 38.6375075,26.8647099 39.0754788,26.4277302 C39.3307457,26.0304791 39.4760644,25.5729864 39.4966909,25.101669 C39.6222061,24.333169 39.5783636,23.5718585 39.7525333,22.8187285 C39.9543093,22.0025983 40.1141698,21.1767339 40.2314909,20.3443579 C40.3923152,19.0462938 40.5639455,18.3936548 40.1790061,17.9097898 Z M14.1247152,11.7640615 C14.4014959,10.7792501 14.7864733,9.82790254 15.2726545,8.92729958 L15.3322485,8.80655688 C15.862844,7.60721186 16.565226,6.49097384 17.4174364,5.49273896 C18.0355486,4.81298684 18.7229026,4.1991624 19.4684061,3.66117146 C20.256209,3.03056319 21.1099059,2.48644734 22.014703,2.03825292 C23.0883967,1.53257292 24.2273267,1.1779646 25.3988667,0.98458625 C27.1241333,0.692435417 30.3357576,0.148625 32.6787515,1.96218229 C33.1767545,2.34998659 33.6081371,2.81598987 33.9559879,3.34192375 C33.9813234,3.38001721 34.0148342,3.41202206 34.054097,3.43562396 C34.4365161,3.66563736 34.8002696,3.92516587 35.1420182,4.21182708 C35.9661019,4.93042962 36.661248,5.78383873 37.1975758,6.73537083 C37.9353031,8.23582875 38.4882526,9.81973703 38.8443758,11.4525833 C39.2877813,13.5057901 39.4420563,15.6105705 39.3027515,17.7062219 C39.2831879,17.7452812 39.2640364,17.751329 39.1624242,17.8464731 C39.1044364,17.9007696 39.1092788,17.9161517 39.0215758,17.9921437 C38.8318511,18.1477669 38.6705956,18.334969 38.5449576,18.5454517 C38.3724685,18.8496236 38.2475268,19.1782425 38.1744424,19.5199725 C38.1180789,19.7280133 38.0779929,19.9401 38.0545455,20.1543233 C38.0374667,20.2981875 38.0331091,20.3195025 37.9971333,20.3700108 C37.7914969,20.6296654 37.443976,20.7318547 37.129897,20.6250235 C37.0368727,20.5647096 36.8402,20.3231637 37.0208848,19.3841377 C37.0559457,19.195368 37.1179447,19.0125766 37.2049939,18.8413302 C37.319077,18.6484231 37.3604334,18.4212901 37.3216364,18.2007202 C37.2315146,17.8483894 36.9880876,17.5546816 36.6579939,17.4 C36.4289402,17.2729708 36.2297664,17.0986067 36.0738182,16.888591 C35.8599152,16.5761644 35.8545879,16.1230756 35.8439273,15.2198827 C35.7934457,14.4090515 35.8694463,13.595321 36.0692182,12.8077171 C36.1205758,12.623404 36.1770182,12.4536754 36.2267939,12.303975 C36.3870364,11.8219648 36.5254848,11.4056396 36.2450848,11.0740185 C36.0975383,10.9137364 35.8885672,10.8235817 35.6703576,10.8260685 C35.5516561,10.8268143 35.4353129,10.793036 35.3355758,10.7288702 C35.2667818,10.679969 35.2435212,10.6238238 35.1087152,10.1823229 C35.0625697,10.031094 35.0056424,9.84472063 34.930303,9.61235208 C34.662503,8.78676438 34.5148545,8.33198396 34.4662848,8.09055292 C34.429253,7.91804269 34.3791662,7.74857653 34.3164545,7.58360875 C34.2872667,7.50107958 34.2554061,7.41124604 34.221497,7.304085 C33.9969333,6.59423146 33.7539636,5.84754792 33.4994848,5.0849325 C33.4720854,5.00282622 33.4114181,4.93592729 33.3322274,4.90049478 C33.2530368,4.86506227 33.1625737,4.86434047 33.0828242,4.89850479 C32.5611937,5.12173499 32.023165,5.30477585 31.4734667,5.44601875 C31.0106293,5.56199701 30.5404475,5.64661063 30.0661455,5.69927938 C29.7645515,5.73984917 29.4023939,5.78856917 28.9146303,5.86445854 C28.8810315,5.86237219 28.8473221,5.86283673 28.8137939,5.86584813 L28.8124,5.85890625 L28.6771091,5.88432354 C28.6497939,5.88903 28.6223636,5.89416542 28.5949879,5.89923438 L24.1797636,6.7225625 C23.697249,6.85899146 23.1991064,6.93285117 22.6976485,6.94231604 C22.4009014,6.91271255 22.1121897,6.82873499 21.8460364,6.69460771 C21.5377363,6.52520334 21.1841094,6.45587619 20.8344182,6.49628396 C20.5660456,6.53137176 20.3124532,6.63911486 20.1012,6.80780438 C19.8594463,6.97654761 19.6039319,7.12479722 19.3373394,7.25099688 C19.0618772,7.39289064 18.7689515,7.49819099 18.4660424,7.56420896 C18.2297591,7.60924715 18.0037364,7.69700339 17.7991394,7.82314271 C16.9951879,8.30473 16.6430848,9.03203188 16.1100848,10.133035 C15.7878125,10.7009152 15.5867431,11.3290605 15.5194909,11.9780633 C15.4985429,12.2326226 15.5189943,12.4888837 15.5800545,12.736939 C15.6294115,12.9650019 15.6656062,13.1956991 15.6884606,13.4278942 C15.7596544,14.3504071 15.7045629,15.2782875 15.524703,16.1859875 C15.4900471,16.3723237 15.4443859,16.5564577 15.3879576,16.7374285 C15.3217247,16.9506194 15.2687733,17.1676874 15.2294061,17.387391 C15.1863758,17.6099842 15.151703,17.8227354 15.1233455,18.0206363 C15.0407821,17.8531642 14.9408556,17.6947703 14.8252,17.548045 C14.5928918,17.2578148 14.3036011,17.0179093 13.9750424,16.8430188 C13.6534964,15.1593539 13.7045768,13.4260058 14.1247152,11.7640615 L14.1247152,11.7640615 Z M39.7589091,20.2130604 C39.6799717,20.580579 39.6124566,20.9502847 39.5563636,21.3221775 C39.4916303,21.7495106 39.3251515,22.1463031 39.2530182,22.5763671 C39.1407515,23.2456388 39.1353879,23.9285948 39.0087758,24.5957821 C38.9523091,24.8932858 38.8622,25.1839263 38.7910303,25.4761013 C38.7675827,25.6980621 38.6945899,25.9119755 38.5774061,26.1021508 C38.1735671,26.3628044 37.700889,26.4973954 37.2198727,26.4886967 C37.2661768,26.1990192 37.2879546,25.9059721 37.2849758,25.612655 C37.3012545,25.3044031 37.2194121,24.8445658 37.1194788,24.8422338 C37.0336788,24.840234 36.9719212,25.2168533 36.8615576,25.735621 C36.8615576,25.735621 36.6807091,26.5855929 36.3286667,27.7862715 C36.1363383,28.4270579 35.9066217,29.0560963 35.6406909,29.6701719 C35.0128121,31.3369408 34.9458121,31.4882242 34.873497,31.6293817 C34.5092195,32.3358275 34.0337187,32.9795072 33.4650848,33.5359323 C32.6082407,34.3276477 31.5525622,34.8736257 30.4098485,35.1160456 C30.502557,34.9309716 30.5813298,34.7392806 30.6455152,34.5425585 C30.792903,34.0846002 30.8922424,33.482536 30.7889818,33.4461048 C30.7301939,33.4253638 30.5365212,33.7498858 30.1515152,34.3997577 C29.5647939,35.3901198 29.5406848,35.4344233 29.469697,35.5325702 C29.1171425,36.0031619 28.6643727,36.3900375 28.1439394,36.6653827 C27.2394466,37.1577201 26.2106606,37.3767052 25.1833333,37.2955708 C24.2705609,37.26744 23.3748309,37.0418521 22.5581818,36.6344313 C21.6250802,36.0027991 20.8299161,35.1893831 20.2206061,34.2432 C19.9436196,33.8649302 19.6881179,33.471482 19.455303,33.0647065 C19.3731818,33.1055119 19.5595818,33.7118173 19.5826182,33.7870602 C19.5885273,33.8063935 19.5956545,33.8285242 19.6027212,33.8504977 C19.1791698,33.6882796 18.7790745,33.4707718 18.412903,33.2036648 C17.8450915,32.7793999 17.3656972,32.2488533 17.0015455,31.6417127 C16.7247946,31.1634699 16.5052995,30.6545029 16.3475636,30.1252544 C16.2988545,29.9775477 16.2140242,29.7199915 16.1343091,29.3741181 C16.012494,28.7474004 15.9364721,28.1126951 15.9068424,27.4750048 C15.8099091,26.377391 15.807097,26.297629 15.8073152,26.1711346 C15.807703,25.9521302 15.8171455,25.6148058 15.8086667,25.085725 C15.7984485,24.4474471 15.7750667,24.3368242 15.7361152,24.3307221 C15.6453576,24.3164879 15.4871455,24.8751669 15.4723152,24.9329373 C15.4098784,25.1772423 15.3654228,25.4257667 15.339303,25.6765275 L15.3060303,25.6570492 C14.9423739,25.4328327 14.6413622,25.1207526 14.4308788,24.7497177 C14.2816468,24.3601265 14.2102933,23.9451999 14.2208364,23.5283042 C14.1773333,22.9422625 14.1854,22.5050573 14.1858242,22.481374 C14.2225636,20.484156 14.1532,20.7085315 14.2113576,19.3401423 C14.2118472,19.3289823 14.2117075,19.3178037 14.2109394,19.3066594 C14.203903,19.2094852 14.1615273,18.678326 14.0072303,17.602571 C14.1300154,17.6986962 14.2410941,17.8088154 14.3382,17.9306819 C14.6257922,18.3313393 14.8005292,18.8014504 14.8442606,19.2921835 C14.8772121,19.5152056 14.9234242,19.8208294 15.2341576,19.8084863 C15.5533152,19.7963002 15.5809939,19.5203954 15.6361636,18.9706521 C15.6731636,18.6015365 15.7239152,18.0959215 15.8383212,17.5045148 C15.8736735,17.3060344 15.9214271,17.109949 15.981303,16.9174038 C16.0436874,16.7168855 16.0943423,16.5129262 16.1330121,16.306555 C16.3241455,15.3384275 16.3821591,14.348865 16.3054545,13.3651333 C16.2805674,13.1119579 16.241139,12.8604131 16.1873636,12.6117375 C16.1378424,12.4189887 16.1212162,12.2193059 16.1381818,12.0210558 C16.2007832,11.4505202 16.3813831,10.8991236 16.6685758,10.4016898 C17.1703939,9.36522375 17.4732606,8.739585 18.1185394,8.3530875 C18.2671127,8.26042667 18.4322051,8.1971733 18.6047879,8.16678667 C18.9530263,8.09060405 19.2899307,7.96988497 19.6071333,7.80762771 C19.9014431,7.66803611 20.1836535,7.50439239 20.4508727,7.31837354 C20.5812646,7.20557573 20.7417528,7.13302068 20.9127818,7.10954938 C21.1484297,7.08519781 21.3856857,7.13705359 21.589497,7.25745542 C21.9175461,7.41988416 22.2724653,7.52155647 22.6369697,7.55752083 C23.197282,7.56047931 23.7551676,7.48396442 24.2938606,7.33027563 C25.3160788,7.13956438 26.1220303,6.98923563 26.7546485,6.87120563 L26.7548909,6.87254083 L26.8069758,6.86281375 L26.8123697,6.86179271 L27.1043939,6.80727271 C27.7381697,6.6890675 28.1456061,6.61454354 28.6736,6.52875188 C29.3315939,6.42181438 29.7848364,6.36091438 30.1490485,6.31189833 C30.6475647,6.25592913 31.141746,6.16663767 31.6282545,6.04462708 C32.0996353,5.92345731 32.5630137,5.77322617 33.0157152,5.59480083 C33.2312061,6.24494458 33.4373576,6.88107167 33.6300606,7.49007167 C33.6663879,7.60496 33.7004364,7.70107083 33.7318061,7.78952083 C33.7845105,7.92709589 33.8267808,8.06842088 33.8582606,8.21230458 C33.9139697,8.488445 34.0564,8.92758354 34.3402,9.80247125 C34.4142,10.0306771 34.4700364,10.2137215 34.5154606,10.3622981 C34.6651576,10.852519 34.7270667,11.0554888 34.9754606,11.2320806 C35.1635741,11.3615253 35.3850809,11.4342716 35.6135394,11.4416358 C35.7185576,11.4513025 35.7581576,11.4573925 35.7708788,11.4723638 C35.8275697,11.5395048 35.7269152,11.8422708 35.6381515,12.1094756 C35.5860667,12.2658944 35.5270667,12.4432052 35.4716,12.6421935 C35.2560007,13.4861103 35.1724079,14.358153 35.2237758,15.2275013 C35.2355212,16.2222496 35.2419576,16.7702469 35.5614667,17.2369596 C35.7634325,17.5165317 36.0232862,17.7495921 36.3234424,17.9203688 C36.5827697,18.0860856 36.6834424,18.1630625 36.7121273,18.3150165 C36.7271455,18.3947665 36.7167333,18.4248963 36.6446727,18.5763065 C36.5350571,18.7947748 36.456695,19.0274791 36.4118727,19.2676302 C36.3428303,19.625901 36.1330545,20.7160715 36.7918242,21.1432596 C36.9575744,21.2468249 37.1500193,21.299967 37.3456,21.2961802 C37.7977866,21.2910082 38.2233053,21.0820025 38.5029394,20.7277198 C38.6053449,20.5800297 38.6634007,20.4063016 38.670303,20.2268958 C38.6903232,20.041368 38.7250293,19.8577088 38.774097,19.6776358 C38.833564,19.3930703 38.935385,19.1189697 39.0761818,18.8644275 C39.1684043,18.7094182 39.2876491,18.5720686 39.428303,18.4588444 C39.5380877,18.3728184 39.6310698,18.267403 39.7026121,18.1478556 C39.7772238,18.1626923 39.8492638,18.1883051 39.9164545,18.223884 C40.2159879,18.4136708 39.9510788,19.3185192 39.7589091,20.2130604 Z" id="Shape"></path>
            </g>
        </g>
    </g>
</svg>