<svg version="1.1" id="Warstwa_1" xmlns="http://www.w3.org/2000/svg" xmlns:xlink="http://www.w3.org/1999/xlink" x="0px" y="0px" width="60px" height="60px" viewBox="0 0 60 60" style="enable-background:new 0 0 60 60;" xml:space="preserve">
<style type="text/css">
	.st0{fill:#FFFFFF;}
</style>
<g id="Welcome">
	<g id="Tablet---Step-3" transform="translate(-352.000000, -841.000000)">
		<g id="noun_606437_cc-copy-2" transform="translate(352.000000, 841.000000)">
			<path id="Shape" class="st0" d="M55.6,9.7c-3.1-3.2-7.2-5-11.6-5.2C39.5,4.4,35.3,6,32.1,9l-2.4,2.2l-2.6-2.7c0,0,0,0-0.1-0.1
				C20.6,2.9,11.3,3.2,4.9,9.2c-6.5,6.1-6.6,16.2-0.2,22.9l13.1,13.7l8,8.5c0,0,0,0,0,0c0,0,0,0,0,0c0.7,0.8,1.7,1.1,2.6,1.1
				c0.9,0,1.8-0.4,2.6-1c0,0,0.1,0,0.1-0.1l1.4-1.3l0,0l0.7-0.7l0.2-0.2l6.6-6.1l2-1.9l0.7-0.7l0,0l11.7-11
				c3.3-3.1,5.2-7.1,5.4-11.3C60.2,17,58.7,12.9,55.6,9.7z M6.3,10.6c5.6-5.3,13.8-5.6,19.4-0.7l14.1,14.6c0.5,0.5,0.7,1.1,0.7,1.8
				s-0.3,1.3-0.8,1.8c-0.5,0.5-1.1,0.7-1.8,0.7c-0.7,0-1.3-0.3-1.8-0.8l-5.9-6.2c0,0,0,0,0,0c0,0,0,0,0,0l-3-3.2
				c-0.3-0.3-0.8-0.4-1.1-0.2c-0.1,0.1-3.2,1.4-7.3-3c-0.4-0.4-1-0.4-1.4,0c-0.4,0.4-0.4,1,0,1.4c4,4.2,7.5,4,8.9,3.7l1.9,2L14,35.7
				c-0.6,0.6-1,1.2-1.1,2l-1.5-1.6c0,0,0,0-0.1,0l-5-5.3C0.5,24.9,0.6,16,6.3,10.6z M18.1,40.1c-0.8,0.8-2.1,0.7-2.9-0.1
				c-0.8-0.8-0.7-2.1,0.1-2.9l14.1-13.2l2.8,3c0,0-0.1,0-0.1,0.1L18.1,40.1z M27.3,53l-1.1-1.2c0,0,0,0,0,0
				c-0.4-0.4-0.6-0.9-0.6-1.4c0,0,0,0,0-0.1c0-0.5,0.2-1,0.6-1.3c0.4-0.4,0.9-0.5,1.4-0.5c0.5,0,1,0.3,1.4,0.7l2.3,2.4l-1.4,1.3
				C29.3,53.5,28.2,53.9,27.3,53z M38.8,38.4c0-0.5,0.2-0.9,0.6-1.2c0.3-0.3,0.7-0.4,1.2-0.4c0.5,0,0.9,0.2,1.2,0.5l2.2,2.5
				l-2.5,2.3l-2.3-2.5c0,0,0,0,0,0C38.9,39.3,38.7,38.9,38.8,38.4z M37.7,41l2.3,2.5l-3,2.7l-2.3-2.5c-0.4-0.4-0.6-0.9-0.5-1.4
				c0-0.5,0.3-1,0.6-1.4c0.4-0.3,0.9-0.5,1.4-0.5C36.8,40.3,37.4,40.6,37.7,41C37.7,41,37.7,41,37.7,41z M33.4,45.1l2.3,2.4
				l-2.9,2.7l-2.3-2.5c-0.4-0.4-0.6-0.9-0.5-1.4c0-0.5,0.3-1,0.6-1.4c0.4-0.3,0.8-0.5,1.3-0.5C32.5,44.5,33,44.7,33.4,45.1z
				 M58,21.2c-0.2,3.7-1.9,7.3-4.8,10l-7.8,7.3L43.2,36c-0.7-0.8-1.7-1.2-2.7-1.2c-0.9,0-1.8,0.3-2.5,1c-0.7,0.7-1.2,1.6-1.2,2.5
				c0,0,0,0.1,0,0.1c-0.2,0-0.3,0-0.5,0c-1,0-2,0.4-2.7,1.1c-0.8,0.7-1.2,1.7-1.3,2.7c0,0.1,0,0.2,0,0.3c-0.1,0-0.2,0-0.4,0
				c-1,0-1.9,0.4-2.6,1c-0.8,0.7-1.2,1.7-1.3,2.7c0,0.1,0,0.2,0,0.3c-0.1,0-0.1,0-0.2,0c-1-0.1-2.1,0.3-2.9,1c-0.5,0.4-0.8,1-1,1.5
				c-0.2-0.1-0.3-0.2-0.4-0.3c-0.8-0.8-0.7-2.2,0.1-3c0,0,0,0,0,0l14-13.2c0.4-0.4,0.4-1,0-1.4c-0.4-0.4-1-0.4-1.4,0L22.2,44.5
				c-0.4,0.4-0.9,0.6-1.5,0.6c-0.5,0-1.1-0.2-1.4-0.6c-0.8-0.8-0.7-2,0.1-2.8c0,0,0,0,0,0c0,0,0.1,0,0.1-0.1l14-13.2
				c0,0,0-0.1,0.1-0.1l1.1,1.1c0.8,0.9,2,1.4,3.2,1.4c1.2,0,2.4-0.4,3.2-1.2c0.9-0.8,1.4-1.9,1.4-3.1c0-1.2-0.4-2.3-1.2-3.2
				L31.1,12.7l2.4-2.2c2.8-2.7,6.6-4.1,10.5-4c3.9,0.1,7.6,1.7,10.3,4.5C56.9,13.8,58.2,17.4,58,21.2z"/>
		</g>
	</g>
</g>
</svg>
